<svg width="50" height="77" viewBox="0 0 50 77" fill="none" xmlns="http://www.w3.org/2000/svg">
<path d="M0 33.3636C0 30.9537 1.95367 29 4.36364 29H45.6364C48.0463 29 50 30.9537 50 33.3636V52C50 65.8071 38.8071 77 25 77C11.1929 77 0 65.8071 0 52V33.3636Z" fill="url(#paint0_linear_1865_4812)"/>
<ellipse opacity="0.9" cx="25.2503" cy="51.3215" rx="9.98468" ry="10.0227" fill="#EDF1FD"/>
<ellipse cx="25.2514" cy="51.3206" rx="2.78262" ry="2.79322" fill="url(#paint1_linear_1865_4812)"/>
<rect x="24.4336" y="50.1709" width="1.63683" height="5.25782" rx="0.818417" fill="url(#paint2_linear_1865_4812)"/>
<path d="M9 27V19C9 10.1634 16.1634 3 25 3V3C33.8366 3 41 10.1634 41 19V27" stroke="url(#paint3_linear_1865_4812)" stroke-width="5.26749"/>
<defs>
<linearGradient id="paint0_linear_1865_4812" x1="25" y1="29" x2="25" y2="77" gradientUnits="userSpaceOnUse">
<stop stop-color="#020619"/>
<stop offset="1" stop-color="#0A1D7F"/>
</linearGradient>
<linearGradient id="paint1_linear_1865_4812" x1="25.2514" y1="48.5273" x2="25.2514" y2="54.1138" gradientUnits="userSpaceOnUse">
<stop stop-color="#020619"/>
<stop offset="1" stop-color="#0A1D7F"/>
</linearGradient>
<linearGradient id="paint2_linear_1865_4812" x1="25.252" y1="50.1709" x2="25.252" y2="55.4287" gradientUnits="userSpaceOnUse">
<stop stop-color="#020619"/>
<stop offset="1" stop-color="#0A1D7F"/>
</linearGradient>
<linearGradient id="paint3_linear_1865_4812" x1="25" y1="27" x2="25" y2="3" gradientUnits="userSpaceOnUse">
<stop stop-color="#020619"/>
<stop offset="1" stop-color="#0A1D7F"/>
</linearGradient>
</defs>
</svg>
