<?xml version="1.0" standalone="no"?>
<!DOCTYPE svg PUBLIC "-//W3C//DTD SVG 20010904//EN"
 "http://www.w3.org/TR/2001/REC-SVG-20010904/DTD/svg10.dtd">
<svg version="1.0" xmlns="http://www.w3.org/2000/svg"
 width="2242.000000pt" height="1155.000000pt" viewBox="0 0 2242.000000 1155.000000"
 preserveAspectRatio="xMidYMid meet">

<g transform="translate(0.000000,1155.000000) scale(0.100000,-0.100000)"
fill="#000000" stroke="none">
<path d="M8030 11543 c623 -64 1231 -314 1725 -709 117 -94 343 -314 441 -429
379 -447 637 -987 744 -1560 54 -292 53 -247 60 -1875 5 -1015 11 -1548 19
-1615 40 -354 88 -627 162 -915 223 -871 650 -1677 1245 -2350 142 -161 454
-464 614 -598 l135 -112 5 4542 c5 4228 6 4546 22 4580 25 56 97 122 153 141
45 16 306 17 3387 17 2353 0 3352 -3 3382 -11 62 -15 135 -75 165 -134 l26
-49 5 -4530 5 -4530 135 115 c596 504 1083 1131 1431 1844 252 517 411 1014
504 1580 l25 149 0 3228 0 3228 -7212 -2 c-3967 0 -7197 -3 -7178 -5z"/>
<path d="M13389 10586 c-59 -21 -96 -53 -123 -108 l-26 -52 0 -575 c1 -496 3
-572 14 -545 22 51 82 110 134 132 47 20 65 21 763 23 393 1 723 5 734 9 12 5
-10 7 -52 6 -40 -1 -73 2 -73 6 0 4 62 8 138 9 75 0 197 2 270 2 114 2 131 0
127 -13 -4 -12 -3 -12 7 1 12 14 232 16 2398 15 l2385 -1 51 -27 c27 -14 67
-45 87 -68 l38 -41 -3 543 -3 543 -28 47 c-18 31 -44 57 -75 75 l-47 28 -3340
2 c-2713 2 -3347 0 -3376 -11z m1411 -422 c11 -12 10 -18 -3 -32 -16 -15 -18
-15 -34 0 -13 14 -14 20 -3 32 7 9 16 16 20 16 4 0 13 -7 20 -16z m300 0 c11
-12 10 -18 -3 -32 -16 -15 -18 -15 -34 0 -13 14 -14 20 -3 32 7 9 16 16 20 16
4 0 13 -7 20 -16z m178 -18 c-4 -25 -36 -34 -44 -12 -8 21 13 46 32 39 8 -3
14 -15 12 -27z m-1467 -84 c55 -136 55 -132 25 -132 -15 0 -30 8 -36 20 -8 15
-21 20 -55 20 -34 0 -47 -5 -55 -20 -10 -19 -60 -29 -60 -12 0 4 13 39 29 77
16 39 36 87 45 108 13 33 19 38 43 35 24 -3 31 -14 64 -96z m1079 58 l0 -39
28 15 c61 35 126 -37 102 -112 -7 -19 -20 -39 -30 -44 -26 -14 -73 -13 -88 2
-9 9 -12 9 -12 0 0 -7 -11 -12 -25 -12 l-25 0 0 115 0 115 25 0 c22 0 25 -4
25 -40z m300 -75 l0 -115 -25 0 -25 0 0 115 0 115 25 0 25 0 0 -115z m628 55
c18 -33 35 -60 37 -60 3 0 18 27 35 60 25 49 35 60 55 60 l25 0 0 -115 0 -115
-25 0 c-24 0 -25 3 -25 63 l-1 62 -24 -40 c-13 -22 -28 -46 -33 -54 -6 -11
-16 -1 -40 40 l-32 54 0 -62 c0 -60 -1 -63 -25 -63 l-25 0 0 115 c0 113 0 115
23 115 17 0 30 -15 55 -60z m-438 25 c0 -18 5 -25 20 -25 13 0 20 -7 20 -20 0
-13 -7 -20 -20 -20 -17 0 -20 -7 -20 -44 0 -36 4 -45 21 -49 29 -8 18 -31 -16
-35 -39 -5 -55 19 -55 80 0 26 -4 48 -10 48 -5 0 -10 9 -10 20 0 11 5 20 10
20 6 0 10 11 10 25 0 20 5 25 25 25 20 0 25 -5 25 -25z m-1381 -26 c17 -6 31
-17 31 -24 0 -15 -27 -28 -41 -19 -6 3 -21 3 -35 0 -18 -5 -24 -13 -24 -35 0
-37 22 -55 56 -47 15 4 32 2 40 -5 21 -17 -11 -38 -59 -39 -56 0 -89 36 -85
92 2 35 9 46 37 65 39 27 38 26 80 12z m199 -11 c21 -18 -5 -38 -40 -31 -23 5
-34 2 -45 -12 -29 -41 0 -80 53 -71 39 8 56 -11 29 -31 -48 -35 -129 1 -141
62 -6 34 23 80 60 95 23 10 64 4 84 -12z m180 -14 c12 -14 22 -36 22 -50 0
-23 -3 -24 -61 -24 -55 0 -60 -2 -48 -16 9 -11 22 -14 44 -10 22 4 36 2 44 -8
16 -19 -14 -36 -64 -36 -90 0 -117 120 -37 165 34 19 71 11 100 -21z m145 26
c7 0 18 -4 26 -9 12 -8 12 -12 2 -25 -9 -10 -23 -13 -48 -9 -43 7 -39 -11 4
-22 15 -3 34 -11 40 -17 20 -16 16 -66 -6 -78 -28 -14 -84 -12 -106 4 -16 12
-17 16 -6 30 10 11 18 13 31 6 10 -6 26 -10 34 -10 29 0 16 17 -25 33 -37 15
-40 19 -37 49 3 34 39 63 66 53 8 -3 19 -5 25 -5z m166 -1 c34 -12 33 -11 25
-32 -4 -11 -15 -14 -40 -10 -22 4 -34 2 -34 -6 0 -6 9 -11 19 -11 11 0 33 -11
48 -24 27 -24 27 -26 13 -53 -13 -23 -24 -29 -57 -31 -56 -4 -87 12 -73 38 8
16 14 17 40 7 21 -8 33 -8 41 0 8 8 -1 14 -33 24 -40 13 -43 17 -43 49 0 27 6
37 25 47 31 16 30 16 69 2z m1435 -3 c19 -8 36 -22 39 -33 3 -10 8 -28 12 -40
6 -22 4 -23 -54 -23 -34 0 -61 -4 -61 -9 0 -13 29 -22 54 -15 14 3 27 -1 35
-10 10 -12 9 -17 -8 -25 -52 -28 -115 -3 -135 53 -12 33 13 87 48 102 39 16
31 16 70 0z m229 -18 c12 -15 17 -38 17 -84 0 -62 -1 -64 -25 -64 -23 0 -25 3
-25 49 0 61 -7 81 -29 81 -29 0 -41 -22 -41 -77 0 -50 -1 -53 -25 -53 -25 0
-25 1 -25 86 l0 87 33 -6 c19 -3 40 -1 48 4 19 12 50 2 72 -23z m-1553 -63 c0
-84 0 -85 -25 -85 -25 0 -25 1 -25 85 0 84 0 85 25 85 25 0 25 -1 25 -85z
m308 3 c-3 -77 -5 -83 -25 -86 -22 -3 -23 -1 -23 82 0 85 0 86 25 86 26 0 26
0 23 -82z m172 -3 c0 -84 0 -85 -25 -85 -25 0 -25 1 -25 85 0 84 0 85 25 85
25 0 25 -1 25 -85z m227 28 l20 -57 18 53 c17 52 31 66 58 59 19 -4 -44 -172
-78 -207 -28 -28 -75 -23 -75 8 0 14 5 18 20 14 32 -9 33 18 0 96 -36 88 -36
91 -7 91 19 0 27 -10 44 -57z m945 -5 c3 -60 4 -63 28 -63 24 0 25 3 28 63 3
58 4 62 27 62 25 0 25 -1 25 -84 l0 -84 -65 -1 c-81 0 -95 15 -95 106 0 60 1
63 25 63 23 0 24 -4 27 -62z m-2132 -554 c0 -8 -19 -13 -24 -6 -3 5 1 9 9 9 8
0 15 -2 15 -3z m40 0 c0 -8 -19 -13 -24 -6 -3 5 1 9 9 9 8 0 15 -2 15 -3z m40
0 c0 -8 -19 -13 -24 -6 -3 5 1 9 9 9 8 0 15 -2 15 -3z m350 -3 c0 -7 -306 -8
-313 -1 -3 3 66 5 154 6 87 0 159 -2 159 -5z"/>
<path d="M13732 10055 c-17 -37 -15 -45 13 -45 28 0 31 13 12 48 l-13 23 -12
-26z"/>
<path d="M14899 10039 c-15 -28 3 -69 30 -69 21 0 51 25 51 41 0 46 -60 67
-81 28z"/>
<path d="M14295 10050 c-4 -6 7 -10 25 -10 18 0 29 4 25 10 -3 6 -15 10 -25
10 -10 0 -22 -4 -25 -10z"/>
<path d="M16065 10050 c-4 -6 7 -10 25 -10 18 0 29 4 25 10 -3 6 -15 10 -25
10 -10 0 -22 -4 -25 -10z"/>
<path d="M13700 9108 c-11 -12 -23 -18 -27 -15 -12 12 -41 -23 -36 -44 4 -12
0 -19 -10 -19 -12 0 -26 -27 -27 -52 0 -5 72 -8 160 -8 153 0 160 1 160 20 0
18 -7 20 -80 20 -73 0 -80 2 -80 20 0 18 7 20 72 20 70 0 71 0 53 20 -14 15
-31 20 -72 20 -46 0 -53 2 -53 20 0 27 -33 26 -60 -2z m39 -14 c-14 -18 -24
-11 -15 11 3 9 11 13 16 10 8 -5 7 -11 -1 -21z m-49 -43 c0 -6 -4 -13 -10 -16
-5 -3 -10 1 -10 9 0 9 5 16 10 16 6 0 10 -4 10 -9z m50 0 c0 -6 -4 -13 -10
-16 -5 -3 -10 1 -10 9 0 9 5 16 10 16 6 0 10 -4 10 -9z m-100 -56 c0 -8 -4
-15 -10 -15 -5 0 -10 7 -10 15 0 8 5 15 10 15 6 0 10 -7 10 -15z m50 0 c0 -8
-4 -15 -10 -15 -5 0 -10 7 -10 15 0 8 5 15 10 15 6 0 10 -7 10 -15z m50 0 c0
-8 -4 -15 -10 -15 -5 0 -10 7 -10 15 0 8 5 15 10 15 6 0 10 -7 10 -15z"/>
<path d="M20087 9123 c-4 -3 -7 -631 -7 -1395 0 -1230 2 -1389 15 -1394 8 -4
22 -1 30 6 13 11 15 183 15 1389 0 1058 -3 1380 -12 1389 -13 13 -31 16 -41 5z"/>
<path d="M14077 9043 c-4 -3 -7 -33 -7 -65 l0 -58 53 1 c51 2 51 2 12 8 -27 4
-41 12 -43 24 -3 14 4 17 32 17 20 0 36 5 36 10 0 6 -16 10 -36 10 -28 0 -35
3 -32 18 2 12 14 18 41 20 20 2 35 7 32 13 -7 10 -78 12 -88 2z"/>
<path d="M14420 8985 c0 -37 4 -65 10 -65 6 0 10 28 10 65 0 37 -4 65 -10 65
-6 0 -10 -28 -10 -65z"/>
<path d="M14470 9040 c0 -5 5 -10 10 -10 6 0 10 5 10 10 0 6 -4 10 -10 10 -5
0 -10 -4 -10 -10z"/>
<path d="M14608 9044 c-12 -11 -10 -124 2 -124 6 0 10 13 10 29 0 31 22 57 40
46 5 -3 10 -22 10 -41 0 -19 5 -34 10 -34 6 0 10 18 10 40 0 42 -24 66 -53 54
-10 -4 -17 2 -19 16 -2 12 -6 18 -10 14z"/>
<path d="M14880 8970 l0 -65 32 33 33 32 -33 32 -32 33 0 -65z"/>
<path d="M14213 9013 c-20 -4 -23 -11 -23 -49 0 -54 18 -59 22 -6 2 29 7 37
23 37 16 0 21 -8 23 -37 4 -47 22 -50 22 -4 0 32 -22 68 -38 65 -4 -1 -17 -4
-29 -6z"/>
<path d="M14318 9009 c-25 -14 -23 -65 2 -79 12 -6 31 -8 43 -4 20 6 20 5 8
-10 -9 -11 -24 -16 -38 -13 -13 2 -23 1 -23 -4 0 -14 39 -20 60 -9 16 9 20 21
20 65 0 41 -4 55 -14 55 -8 0 -20 2 -28 5 -7 2 -21 0 -30 -6z m52 -24 c10 -12
10 -18 0 -30 -25 -30 -61 -7 -46 30 3 8 12 15 19 15 8 0 20 -7 27 -15z"/>
<path d="M14526 9008 c-24 -13 -20 -37 9 -48 14 -5 25 -15 25 -21 0 -7 -9 -9
-25 -5 -29 7 -35 -10 -6 -19 48 -15 73 37 26 55 -14 5 -25 15 -25 21 0 7 9 9
25 5 14 -4 25 -2 25 3 0 13 -35 20 -54 9z"/>
<path d="M14470 8965 c0 -25 5 -45 10 -45 6 0 10 20 10 45 0 25 -4 45 -10 45
-5 0 -10 -20 -10 -45z"/>
<path d="M13610 8923 c1 -30 20 -34 156 -31 123 3 139 5 142 21 3 16 -9 17
-147 17 -83 0 -151 -3 -151 -7z"/>
<path d="M13678 8834 c32 -22 93 -29 136 -14 66 21 50 30 -56 30 -97 0 -101
-1 -80 -16z"/>
<path d="M13700 8388 c-61 -31 -90 -77 -90 -142 0 -82 45 -138 125 -156 108
-24 213 85 185 192 -19 69 -89 128 -153 128 -12 0 -43 -10 -67 -22z m90 -64
c0 -8 -7 -14 -15 -14 -15 0 -21 21 -9 33 10 9 24 -2 24 -19z m0 -55 c0 -12 11
-32 25 -45 25 -23 33 -44 16 -44 -5 0 -11 6 -14 14 -3 8 -18 16 -34 18 -29 3
-42 31 -29 64 9 22 36 17 36 -7z m-70 -29 c-24 -44 23 -83 58 -48 7 7 12 8 12
2 0 -5 -5 -15 -12 -22 -37 -37 -102 15 -80 63 7 14 16 25 22 25 7 0 7 -6 0
-20z"/>
<path d="M19360 8371 c-105 -55 -109 -199 -7 -275 27 -20 41 -21 250 -21 252
0 271 5 315 81 42 73 19 159 -58 212 -32 21 -41 22 -249 22 -191 0 -220 -2
-251 -19z m480 -19 c23 -11 43 -32 58 -64 20 -40 22 -52 13 -85 -6 -21 -25
-52 -41 -68 -30 -29 -35 -30 -143 -33 -134 -5 -165 7 -198 75 -34 71 -6 148
65 179 47 20 203 18 246 -4z"/>
<path d="M19632 8268 c-18 -18 -15 -43 8 -63 29 -27 70 -7 70 34 0 39 -50 57
-78 29z m57 -12 c15 -18 3 -46 -20 -46 -22 0 -34 22 -25 45 7 19 30 19 45 1z"/>
<path d="M19730 8241 c0 -22 5 -43 10 -46 6 -4 10 7 10 27 l0 32 30 -34 29
-35 -1 50 c0 40 -2 44 -7 20 l-6 -29 -21 27 c-30 38 -44 34 -44 -12z"/>
<path d="M14685 8320 c-3 -5 -1 -10 4 -10 6 0 11 5 11 10 0 6 -2 10 -4 10 -3
0 -8 -4 -11 -10z"/>
<path d="M15125 8320 c-3 -5 -1 -10 4 -10 6 0 11 5 11 10 0 6 -2 10 -4 10 -3
0 -8 -4 -11 -10z"/>
<path d="M15847 8308 c-9 -15 -12 -40 -9 -70 5 -58 22 -64 22 -9 0 22 6 42 13
45 10 5 10 7 0 12 -18 8 -16 24 3 24 8 0 12 5 9 10 -10 16 -24 12 -38 -12z"/>
<path d="M15905 8320 c-3 -5 -1 -10 4 -10 6 0 11 5 11 10 0 6 -2 10 -4 10 -3
0 -8 -4 -11 -10z"/>
<path d="M16440 8320 c0 -5 5 -10 11 -10 5 0 7 5 4 10 -3 6 -8 10 -11 10 -2 0
-4 -4 -4 -10z"/>
<path d="M14070 8255 c0 -72 17 -90 22 -22 l3 42 18 -32 c10 -18 21 -33 25
-33 5 0 16 15 25 33 l16 32 0 -42 c1 -24 6 -43 11 -43 6 0 10 28 10 65 0 36
-4 65 -8 65 -5 0 -17 -16 -28 -35 -10 -19 -21 -35 -25 -35 -3 0 -14 16 -25 35
-29 55 -44 45 -44 -30z"/>
<path d="M14360 8307 c0 -9 -5 -17 -12 -17 -9 0 -9 -3 0 -12 7 -7 12 -27 12
-45 0 -33 22 -55 38 -38 4 4 1 10 -5 12 -17 6 -17 60 -1 65 8 3 5 12 -10 28
-18 19 -22 21 -22 7z"/>
<path d="M15430 8301 c0 -14 -6 -17 -25 -13 -33 6 -55 -14 -55 -48 0 -36 17
-48 63 -47 l37 1 0 63 c0 35 -4 63 -10 63 -5 0 -10 -8 -10 -19z m-6 -46 c8
-23 -4 -45 -25 -45 -22 0 -34 22 -25 45 3 8 14 15 25 15 10 0 21 -7 25 -15z"/>
<path d="M15950 8254 c0 -41 4 -63 10 -59 6 3 10 33 10 66 0 33 -4 59 -10 59
-6 0 -10 -29 -10 -66z"/>
<path d="M16372 8304 c-6 -11 -9 -29 -7 -40 14 -70 16 -74 35 -74 11 0 20 5
20 10 0 6 -7 10 -15 10 -19 0 -21 56 -2 63 8 4 9 8 1 14 -6 4 -13 15 -16 23
-4 12 -7 11 -16 -6z"/>
<path d="M14241 8276 c-21 -25 -9 -69 21 -80 50 -17 89 42 52 78 -19 20 -58
21 -73 2z m64 -36 c0 -18 -6 -26 -23 -28 -13 -2 -25 3 -28 12 -10 26 4 48 28
44 17 -2 23 -10 23 -28z"/>
<path d="M14431 8276 c-21 -25 -9 -69 21 -80 50 -17 89 42 52 78 -19 20 -58
21 -73 2z m64 -36 c0 -18 -6 -26 -23 -28 -13 -2 -25 3 -28 12 -10 26 4 48 28
44 17 -2 23 -10 23 -28z"/>
<path d="M14540 8238 c0 -26 5 -48 10 -48 6 0 10 15 10 34 0 24 7 38 23 49 22
15 22 15 -10 15 -33 -1 -33 -2 -33 -50z"/>
<path d="M14680 8240 c0 -27 5 -50 10 -50 6 0 10 23 10 50 0 28 -4 50 -10 50
-5 0 -10 -22 -10 -50z"/>
<path d="M14730 8239 c0 -31 4 -48 10 -44 6 3 10 22 10 41 0 28 4 35 18 32 12
-2 18 -14 20 -41 4 -50 22 -48 22 3 0 33 3 40 20 40 17 0 20 -7 20 -40 0 -22
5 -40 10 -40 11 0 13 69 2 86 -4 6 -35 12 -69 12 l-63 1 0 -50z"/>
<path d="M14900 8223 c0 -35 4 -63 10 -63 6 0 10 9 10 19 0 14 5 18 20 14 28
-7 50 14 50 47 0 35 -17 49 -58 48 l-32 -1 0 -64z m68 20 c-2 -20 -9 -28 -23
-28 -14 0 -21 8 -23 28 -3 23 0 27 23 27 23 0 26 -4 23 -27z"/>
<path d="M15024 8278 c-5 -7 0 -9 14 -6 12 4 26 0 33 -8 9 -11 6 -14 -20 -14
-19 0 -34 -6 -37 -15 -10 -24 15 -44 52 -43 32 1 34 3 34 38 0 20 -5 41 -12
48 -15 15 -55 16 -64 0z m54 -50 c-5 -15 -48 -24 -48 -10 0 14 12 22 33 22 10
0 17 -5 15 -12z"/>
<path d="M15120 8240 c0 -27 5 -50 10 -50 6 0 10 23 10 50 0 28 -4 50 -10 50
-5 0 -10 -22 -10 -50z"/>
<path d="M15170 8238 c0 -26 5 -48 10 -48 6 0 10 15 10 34 0 24 7 38 23 49 22
15 22 15 -10 15 -33 -1 -33 -2 -33 -50z"/>
<path d="M15252 8278 c-22 -22 -15 -67 12 -80 25 -11 56 -6 56 10 0 5 -11 7
-24 5 -13 -3 -27 0 -30 6 -5 7 5 11 28 11 28 0 36 4 36 18 0 24 -19 42 -45 42
-12 0 -26 -5 -33 -12z m58 -18 c0 -5 -11 -10 -25 -10 -14 0 -25 5 -25 10 0 6
11 10 25 10 14 0 25 -4 25 -10z"/>
<path d="M15530 8224 c0 -36 4 -64 10 -64 6 0 10 8 10 19 0 14 6 17 24 14 30
-6 58 31 49 65 -5 22 -24 30 -70 30 -22 1 -23 -3 -23 -64z m73 34 c7 -23 -5
-48 -24 -48 -22 0 -34 22 -25 45 7 18 43 20 49 3z"/>
<path d="M15650 8239 c0 -27 5 -49 10 -49 6 0 10 16 10 35 0 22 6 38 15 41 23
9 18 22 -10 22 -23 0 -25 -4 -25 -49z"/>
<path d="M15727 8272 c-22 -24 -21 -45 1 -65 37 -34 82 -15 82 33 0 49 -51 68
-83 32z m66 -14 c7 -20 -12 -48 -33 -48 -19 0 -36 32 -25 50 9 14 52 12 58 -2z"/>
<path d="M15900 8240 c0 -27 5 -50 10 -50 6 0 10 23 10 50 0 28 -4 50 -10 50
-5 0 -10 -22 -10 -50z"/>
<path d="M16002 8278 c-17 -17 -15 -54 4 -72 17 -18 50 -21 59 -6 3 6 -5 10
-19 10 -14 0 -28 5 -31 10 -4 6 8 10 29 10 28 0 36 4 36 18 0 24 -19 42 -45
42 -12 0 -26 -5 -33 -12z m58 -18 c0 -5 -12 -10 -26 -10 -14 0 -23 4 -19 10 3
6 15 10 26 10 10 0 19 -4 19 -10z"/>
<path d="M16164 8279 c-3 -6 1 -10 12 -9 31 4 44 1 44 -10 0 -5 -13 -10 -29
-10 -32 0 -48 -24 -30 -46 6 -7 26 -13 45 -12 32 1 34 3 34 38 0 20 -5 41 -12
48 -15 15 -55 16 -64 1z m56 -54 c0 -9 -9 -15 -25 -15 -24 0 -32 10 -18 23 12
13 43 7 43 -8z"/>
<path d="M16276 8274 c-43 -42 13 -107 64 -74 15 10 13 11 -30 13 -20 2 -25 7
-25 27 0 20 6 26 28 28 15 2 25 8 22 13 -9 14 -42 11 -59 -7z"/>
<path d="M16440 8240 c0 -27 5 -50 10 -50 6 0 10 23 10 50 0 28 -4 50 -10 50
-5 0 -10 -22 -10 -50z"/>
<path d="M16480 8283 c0 -18 34 -93 42 -93 5 0 18 21 28 46 23 52 23 54 11 54
-4 0 -15 -17 -23 -37 l-14 -38 -14 38 c-12 32 -30 50 -30 30z"/>
<path d="M16592 8278 c-7 -7 -12 -24 -12 -40 0 -33 30 -53 66 -44 32 8 23 25
-10 19 -13 -3 -27 0 -30 6 -5 7 5 11 28 11 28 0 36 4 36 18 0 24 -19 42 -45
42 -12 0 -26 -5 -33 -12z m58 -18 c0 -5 -12 -10 -26 -10 -14 0 -23 4 -19 10 3
6 15 10 26 10 10 0 19 -4 19 -10z"/>
<path d="M16835 8250 c16 -16 34 -30 40 -30 6 0 24 14 40 30 l29 30 -69 0 -69
0 29 -30z"/>
<path d="M14610 8240 c0 -5 9 -10 19 -10 11 0 23 5 26 10 4 6 -5 10 -19 10
-14 0 -26 -4 -26 -10z"/>
<path d="M13656 7860 c-16 -5 -44 -24 -62 -41 -49 -48 -56 -97 -52 -360 l3
-226 28 -37 c60 -78 -90 -71 1523 -71 l1443 0 28 21 c15 11 38 36 51 54 21 32
22 40 22 295 0 256 -1 263 -23 296 -12 18 -40 44 -62 56 l-40 23 -1415 -1
c-778 0 -1428 -5 -1444 -9z m264 -274 c0 -8 -5 -18 -11 -22 -14 -8 -33 11 -25
25 10 16 36 13 36 -3z m1452 -31 c0 -5 -5 -11 -11 -13 -6 -2 -11 4 -11 13 0 9
5 15 11 13 6 -2 11 -8 11 -13z m-1066 -36 l20 -41 18 41 c13 27 25 41 38 41
17 0 19 -7 16 -67 -3 -77 -25 -100 -30 -31 l-3 43 -19 -35 c-17 -32 -20 -33
-30 -17 -32 53 -35 54 -36 9 0 -30 -4 -42 -12 -40 -8 3 -14 29 -16 71 -3 60
-1 67 16 67 11 0 25 -15 38 -41z m274 27 c0 -8 6 -17 13 -20 10 -5 10 -7 0
-12 -15 -7 -18 -64 -3 -64 6 0 10 -7 10 -15 0 -18 -24 -20 -38 -2 -9 11 -17
70 -13 110 1 20 31 23 31 3z m328 -53 c-2 -42 -8 -68 -15 -71 -10 -3 -13 15
-13 67 0 57 3 71 15 71 13 0 15 -12 13 -67z m792 -2 l0 -70 -46 3 c-49 3 -64
16 -64 57 0 34 23 53 55 47 19 -4 25 -1 25 13 0 11 7 19 15 19 12 0 15 -14 15
-69z m690 56 c0 -7 -25 -37 -55 -67 l-55 -54 -35 34 c-19 19 -35 38 -35 42 0
15 24 8 47 -14 l24 -22 47 47 c48 49 62 56 62 34z m-2472 -40 c2 -15 9 -27 17
-27 17 0 49 -57 36 -64 -5 -3 -16 5 -25 18 -9 14 -27 26 -43 28 -29 3 -41 32
-29 64 10 25 41 12 44 -19z m596 1 c21 -30 20 -44 -4 -68 -38 -38 -90 -15 -90
40 0 50 66 69 94 28z m201 -2 c29 -44 -13 -98 -63 -81 -26 8 -45 51 -32 75 20
37 73 40 95 6z m95 15 c0 -3 -9 -12 -20 -19 -14 -8 -20 -23 -20 -48 0 -57 -24
-36 -28 23 l-3 51 36 0 c19 0 35 -3 35 -7z m271 -13 c13 -24 8 -80 -8 -85 -8
-3 -13 11 -15 39 -2 30 -7 43 -18 43 -11 0 -16 -13 -18 -43 -4 -53 -25 -52
-32 2 -3 20 -9 37 -15 37 -5 0 -12 -17 -15 -37 -8 -62 -30 -55 -30 10 l0 55
71 -1 c57 -1 72 -5 80 -20z m128 -9 c13 -24 13 -29 -3 -54 -13 -20 -24 -26
-42 -22 -18 3 -24 0 -24 -14 0 -11 -7 -19 -15 -19 -12 0 -15 14 -15 69 l0 70
42 -2 c34 -2 45 -7 57 -28z m111 11 c6 -12 10 -35 8 -53 -3 -30 -5 -32 -42
-32 -25 0 -42 6 -49 17 -14 22 7 48 40 48 14 0 22 4 18 10 -4 6 -14 10 -23 9
-27 -2 -34 0 -27 11 11 19 64 11 75 -10z m58 -32 c-4 -74 -28 -77 -28 -4 0 44
3 56 16 56 12 0 14 -10 12 -52z m82 41 c0 -4 -6 -12 -14 -16 -8 -4 -16 -23
-18 -42 -2 -19 -9 -36 -15 -39 -9 -3 -13 12 -13 51 0 55 0 56 30 55 17 -1 30
-5 30 -9z m107 -19 c12 -24 12 -25 -27 -28 -43 -3 -46 -22 -4 -22 27 0 33 -17
8 -27 -24 -9 -63 14 -70 42 -14 58 66 88 93 35z m-1717 2 c0 -4 -5 -13 -11
-19 -15 -15 -4 -59 17 -67 8 -3 25 -1 36 5 27 14 38 1 14 -17 -27 -19 -52 -18
-76 6 -22 22 -26 51 -10 81 11 19 30 26 30 11z"/>
<path d="M15627 7503 c-4 -3 -7 -17 -7 -30 0 -16 6 -23 20 -23 25 0 36 25 20
45 -14 16 -23 19 -33 8z"/>
<path d="M14450 7495 c-17 -20 -5 -45 20 -45 11 0 23 7 26 15 6 15 -11 45 -26
45 -4 0 -13 -7 -20 -15z"/>
<path d="M14650 7495 c-17 -20 -5 -45 20 -45 11 0 23 7 26 15 6 15 -11 45 -26
45 -4 0 -13 -7 -20 -15z"/>
<path d="M15147 7503 c-4 -3 -7 -17 -7 -30 0 -20 5 -24 22 -21 26 3 37 36 16
49 -16 11 -23 11 -31 2z"/>
<path d="M15260 7454 c0 -9 7 -14 17 -12 25 5 28 28 4 28 -12 0 -21 -6 -21
-16z"/>
<path d="M15509 7499 c-10 -6 -7 -9 14 -9 29 0 35 5 14 13 -8 3 -20 1 -28 -4z"/>
<path d="M17187 7573 c-4 -3 -8 -36 -8 -72 -1 -36 -4 -52 -6 -36 -7 58 -14 75
-29 75 -9 0 -18 -9 -21 -20 -3 -13 -14 -20 -29 -20 -13 0 -24 -4 -24 -10 0 -5
15 -10 34 -10 28 0 35 4 39 23 2 12 5 -2 6 -31 1 -49 3 -53 24 -50 20 3 23 10
28 73 l5 70 2 -62 c2 -56 4 -63 22 -63 16 0 20 7 20 35 0 19 5 35 10 35 6 0
10 -7 10 -15 0 -10 10 -15 30 -15 17 0 30 5 30 10 0 6 -11 10 -24 10 -16 0
-26 7 -29 21 -9 33 -31 17 -38 -27 l-6 -39 -2 47 c0 25 -4 53 -7 62 -6 16 -26
21 -37 9z"/>
<path d="M17560 7510 l0 -70 44 0 c51 0 71 18 60 52 -4 13 -7 31 -5 41 4 29
-19 47 -60 47 l-39 0 0 -70z m78 33 c-2 -11 -14 -19 -31 -21 -22 -3 -27 1 -27
17 0 17 6 21 31 21 24 0 30 -4 27 -17z m7 -63 c0 -10 -12 -16 -32 -18 -28 -3
-33 0 -33 18 0 18 5 21 33 18 20 -2 32 -8 32 -18z"/>
<path d="M17690 7510 c0 -40 4 -70 10 -70 6 0 10 30 10 70 0 40 -4 70 -10 70
-6 0 -10 -30 -10 -70z"/>
<path d="M17740 7570 c0 -5 5 -10 10 -10 6 0 10 5 10 10 0 6 -4 10 -10 10 -5
0 -10 -4 -10 -10z"/>
<path d="M17990 7555 c0 -22 -3 -24 -19 -15 -44 23 -85 -32 -56 -76 12 -19 23
-24 55 -22 l40 1 0 69 c0 39 -4 68 -10 68 -5 0 -10 -11 -10 -25z m-12 -37 c18
-18 14 -46 -7 -58 -15 -7 -23 -6 -35 6 -19 18 -19 20 -6 45 12 22 30 25 48 7z"/>
<path d="M17825 7540 c-3 -5 -12 -7 -20 -3 -12 4 -15 -5 -15 -46 0 -62 18 -68
22 -8 2 34 7 42 23 42 16 0 21 -8 23 -42 4 -57 22 -55 22 2 0 34 -5 47 -19 55
-24 12 -28 13 -36 0z"/>
<path d="M17740 7490 c0 -27 5 -50 10 -50 6 0 10 23 10 50 0 28 -4 50 -10 50
-5 0 -10 -22 -10 -50z"/>
<path d="M13865 6609 c-56 -88 -57 -127 -4 -154 52 -28 119 11 119 68 0 18
-70 127 -81 127 -5 0 -20 -18 -34 -41z m35 -69 l0 -80 -25 12 c-37 17 -40 42
-8 98 15 27 29 50 31 50 1 0 2 -36 2 -80z"/>
<path d="M15010 6620 c0 -5 5 -10 11 -10 5 0 7 5 4 10 -3 6 -8 10 -11 10 -2 0
-4 -4 -4 -10z"/>
<path d="M17560 6560 l0 -70 34 0 c45 0 86 33 86 70 0 37 -41 70 -86 70 l-34
0 0 -70z m81 40 c40 -22 13 -90 -37 -90 -22 0 -24 4 -24 50 0 44 3 50 21 50
11 0 29 -5 40 -10z"/>
<path d="M17933 6560 c0 -41 2 -58 4 -37 2 20 2 54 0 75 -2 20 -4 3 -4 -38z"/>
<path d="M18205 6620 c4 -6 11 -8 16 -5 14 9 11 15 -7 15 -8 0 -12 -5 -9 -10z"/>
<path d="M14260 6593 c-25 -32 -20 -69 12 -95 25 -22 48 -23 74 -3 18 14 17
15 -17 9 -31 -5 -39 -2 -53 17 -21 31 -20 45 4 69 15 15 27 18 51 13 23 -4 30
-3 25 5 -4 7 -22 12 -41 12 -25 0 -39 -7 -55 -27z"/>
<path d="M14510 6550 c0 -40 4 -70 10 -70 6 0 10 30 10 70 0 40 -4 70 -10 70
-6 0 -10 -30 -10 -70z"/>
<path d="M14820 6555 c0 -74 7 -82 66 -71 39 8 53 29 36 56 -7 12 -7 21 0 28
5 5 7 19 3 31 -5 18 -14 21 -56 21 l-49 0 0 -65z m76 40 c16 -13 17 -16 4 -25
-33 -22 -68 -6 -56 25 7 19 27 19 52 0z m9 -70 c0 -15 -8 -21 -32 -23 -30 -3
-33 -1 -33 23 0 24 3 26 33 23 24 -2 32 -8 32 -23z"/>
<path d="M14960 6550 c0 -40 4 -70 10 -70 6 0 10 30 10 70 0 40 -4 70 -10 70
-6 0 -10 -30 -10 -70z"/>
<path d="M15260 6600 c0 -17 -4 -19 -25 -14 -50 12 -87 -55 -48 -87 9 -8 31
-14 50 -14 l33 0 0 68 c0 37 -2 67 -5 67 -3 0 -5 -9 -5 -20z m-11 -47 c12 -23
-4 -53 -29 -53 -21 0 -37 40 -25 59 10 17 43 13 54 -6z"/>
<path d="M17120 6556 l0 -66 30 0 c41 0 84 42 75 73 -11 33 -28 47 -68 54
l-37 6 0 -67z m61 34 c23 -13 25 -55 3 -64 -35 -13 -44 -7 -44 34 0 41 8 47
41 30z"/>
<path d="M17252 6603 c-11 -22 -3 -113 9 -113 5 0 9 18 9 39 0 22 5 42 13 44
9 4 8 8 -3 16 -10 7 -11 11 -2 11 6 0 12 5 12 10 0 17 -29 11 -38 -7z"/>
<path d="M17843 6593 c-22 -8 -14 -43 12 -55 34 -16 31 -28 -7 -28 -23 0 -29
-3 -21 -11 6 -6 23 -9 39 -7 21 2 30 9 32 26 3 18 -3 25 -27 33 -33 12 -32 34
0 26 10 -3 22 -1 25 4 3 5 1 9 -5 9 -5 0 -15 2 -23 4 -7 3 -19 2 -25 -1z"/>
<path d="M17992 6584 c-41 -29 -19 -94 33 -94 37 0 39 18 3 22 -49 5 -48 28 1
28 45 0 48 5 25 38 -18 26 -32 28 -62 6z m56 -21 c2 -9 -7 -13 -27 -13 -30 0
-39 9 -24 24 11 10 46 3 51 -11z"/>
<path d="M18271 6591 c-11 -7 -7 -10 14 -13 16 -2 31 -9 33 -17 3 -10 0 -12
-12 -8 -27 10 -58 -11 -54 -36 2 -18 10 -22 46 -23 l42 -2 0 38 c0 55 -33 84
-69 61z m49 -65 c0 -16 -27 -29 -41 -20 -19 11 -9 34 16 34 15 0 25 -6 25 -14z"/>
<path d="M14397 6572 c-24 -27 -21 -59 8 -78 31 -20 63 -10 76 23 21 55 -46
98 -84 55z m68 -22 c8 -27 -12 -52 -39 -48 -21 3 -32 28 -22 54 8 22 54 18 61
-6z"/>
<path d="M14578 6578 c-31 -24 -27 -74 7 -90 53 -24 100 46 57 85 -22 20 -42
21 -64 5z m57 -43 c0 -25 -4 -30 -24 -30 -32 0 -49 28 -31 50 7 9 23 15 34 13
16 -2 21 -10 21 -33z"/>
<path d="M14690 6533 c0 -34 4 -52 10 -48 6 3 10 22 10 41 0 22 6 37 15 40 23
9 18 22 -10 22 -24 0 -25 -4 -25 -55z"/>
<path d="M15010 6534 c0 -34 4 -53 10 -49 6 3 10 28 10 56 0 27 -4 49 -10 49
-5 0 -10 -25 -10 -56z"/>
<path d="M15061 6530 c1 -30 3 -44 6 -30 10 65 13 71 36 68 18 -2 23 -10 25
-46 4 -47 22 -48 22 -1 0 50 -16 69 -55 66 l-35 -2 1 -55z"/>
<path d="M17722 6539 c21 -51 21 -52 2 -66 -18 -14 -18 -14 4 -11 19 2 29 16
48 62 27 68 27 66 15 66 -5 0 -16 -17 -24 -37 l-15 -38 -16 38 c-9 20 -20 37
-26 37 -5 0 1 -23 12 -51z"/>
<path d="M18106 6565 c16 -24 16 -27 -1 -45 -10 -11 -15 -23 -11 -28 5 -4 15
2 24 14 l17 21 16 -21 c10 -12 21 -18 25 -14 4 5 0 16 -9 26 -21 23 -21 31 0
54 15 16 15 18 0 18 -9 0 -20 -8 -26 -17 -9 -17 -10 -17 -16 0 -4 9 -14 17
-21 17 -12 0 -11 -5 2 -25z"/>
<path d="M18200 6540 c0 -27 5 -50 10 -50 6 0 10 23 10 50 0 28 -4 50 -10 50
-5 0 -10 -22 -10 -50z"/>
<path d="M13770 5430 c0 -5 5 -10 10 -10 6 0 10 5 10 10 0 6 -4 10 -10 10 -5
0 -10 -4 -10 -10z"/>
<path d="M15310 5395 c-17 -19 -29 -23 -49 -19 l-26 6 23 -23 22 -24 42 43
c27 27 37 42 27 42 -8 0 -26 -11 -39 -25z"/>
<path d="M13770 5365 c0 -19 5 -35 10 -35 6 0 10 16 10 35 0 19 -4 35 -10 35
-5 0 -10 -16 -10 -35z"/>
<path d="M16677 5237 c-87 -28 -146 -108 -147 -199 0 -60 13 -95 53 -137 105
-111 268 -86 339 53 29 58 22 142 -18 199 -51 73 -148 109 -227 84z m143 -42
c100 -51 122 -193 42 -279 -29 -31 -79 -56 -112 -56 -19 0 -20 6 -20 173 0 96
3 177 6 180 8 8 50 -1 84 -18z"/>
<path d="M18871 5117 c-78 -131 -81 -169 -22 -228 34 -34 44 -39 85 -39 86 0
136 47 136 127 0 28 -16 64 -61 141 -33 56 -64 102 -68 102 -5 0 -36 -46 -70
-103z m65 -244 c-2 -2 -20 3 -40 11 -26 11 -41 26 -52 51 -18 44 -14 57 45
160 l46 80 3 -149 c1 -82 1 -151 -2 -153z"/>
<path d="M14518 5203 c-24 -6 -28 -27 -31 -168 -2 -99 -5 -120 -17 -120 -12 0
-16 21 -20 110 -5 109 -5 110 -31 113 -35 4 -47 -14 -51 -73 l-3 -50 -47 -3
c-27 -2 -48 -8 -48 -13 0 -6 24 -9 58 -7 l57 3 5 60 c4 44 9 60 20 60 12 0 16
-19 18 -99 1 -55 8 -106 14 -113 6 -8 23 -13 37 -11 l26 3 5 140 c4 123 7 140
23 143 15 3 17 -8 17 -130 0 -141 5 -158 45 -158 38 0 45 19 45 127 0 85 3
103 15 103 11 0 15 -12 15 -46 0 -71 11 -84 75 -84 30 0 55 5 55 10 0 6 -22
10 -50 10 l-50 0 0 54 c0 72 -28 103 -70 76 -11 -7 -16 -36 -20 -115 -3 -58
-9 -106 -15 -108 -6 -1 -12 51 -16 133 -4 74 -7 136 -8 137 -5 9 -39 19 -53
16z"/>
<path d="M19166 4681 c-4 -5 -2 -12 3 -15 5 -4 12 -2 15 3 4 5 2 12 -3 15 -5
4 -12 2 -15 -3z"/>
<path d="M13901 4666 c-18 -22 -7 -45 29 -57 44 -16 40 -43 -5 -36 -35 6 -48
-6 -19 -17 45 -17 93 6 80 39 -3 9 -22 23 -41 31 -42 17 -37 39 7 30 21 -4 28
-2 26 7 -7 18 -63 21 -77 3z"/>
<path d="M14570 4615 c0 -51 3 -65 15 -65 8 0 15 9 15 20 0 11 6 20 13 20 7 0
18 -9 25 -20 7 -11 19 -20 27 -20 14 0 14 3 0 24 -14 21 -14 25 0 36 35 29 3
70 -56 70 l-39 0 0 -65z m78 23 c3 -13 -3 -18 -22 -18 -20 0 -26 5 -26 21 0
15 5 20 22 17 13 -2 24 -11 26 -20z"/>
<path d="M14990 4661 c0 -14 -5 -18 -20 -14 -24 6 -60 -22 -60 -48 0 -28 28
-48 65 -47 l35 1 0 64 c0 35 -4 63 -10 63 -5 0 -10 -9 -10 -19z m-5 -61 c0
-18 -6 -26 -22 -28 -18 -3 -23 1 -23 21 0 28 9 39 30 35 9 -2 15 -14 15 -28z"/>
<path d="M16307 4662 c-10 -10 -17 -32 -17 -49 0 -48 45 -76 94 -57 25 9 8 25
-20 18 -30 -8 -54 11 -54 41 0 30 24 49 54 41 28 -7 45 9 20 18 -29 11 -61 6
-77 -12z"/>
<path d="M18512 4671 c-25 -16 -10 -55 26 -65 46 -13 43 -40 -4 -33 -25 4 -34
2 -31 -6 2 -7 16 -13 31 -15 61 -7 77 55 19 72 -41 11 -45 38 -5 36 41 -3 49
-1 32 10 -18 12 -51 13 -68 1z"/>
<path d="M16651 4654 c-10 -12 -10 -19 -2 -27 6 -6 11 -26 11 -44 0 -26 4 -33
20 -33 11 0 20 5 20 10 0 6 -4 10 -10 10 -15 0 -12 58 2 62 9 3 8 9 -4 21 -20
20 -19 20 -37 1z"/>
<path d="M17000 4653 c-10 -12 -11 -18 -2 -21 7 -2 12 -19 12 -38 0 -34 22
-56 38 -39 4 4 1 10 -5 12 -17 6 -17 60 -1 65 9 3 8 9 -4 21 -20 20 -19 20
-38 0z"/>
<path d="M18727 4658 c-2 -7 -1 -33 2 -58 4 -32 11 -46 24 -48 9 -2 17 1 17 7
0 6 -4 11 -10 11 -15 0 -12 58 2 62 9 3 8 9 -4 21 -20 20 -24 21 -31 5z"/>
<path d="M19090 4653 c-10 -12 -11 -18 -2 -21 7 -2 12 -19 12 -38 0 -34 22
-56 38 -39 4 4 1 10 -5 12 -17 6 -17 60 -1 65 9 3 8 9 -4 21 -20 20 -19 20
-38 0z"/>
<path d="M17160 4645 c0 -9 -10 -20 -22 -25 l-23 -9 23 -7 c12 -3 22 -13 22
-20 0 -8 5 -14 10 -14 6 0 10 7 10 15 0 8 7 15 15 15 8 0 15 5 15 10 0 6 -7
10 -15 10 -8 0 -15 9 -15 20 0 11 -4 20 -10 20 -5 0 -10 -7 -10 -15z"/>
<path d="M14014 4626 c-15 -24 -15 -28 0 -51 10 -15 26 -25 41 -25 34 0 41 18
8 22 -22 2 -28 8 -28 28 0 19 5 25 22 25 31 1 30 19 -1 23 -18 2 -30 -4 -42
-22z"/>
<path d="M14110 4598 c0 -26 5 -48 10 -48 6 0 10 11 10 25 0 14 9 34 20 45 26
26 26 27 -10 27 -29 0 -30 -2 -30 -49z"/>
<path d="M14196 4634 c-21 -20 -20 -48 0 -69 17 -17 71 -17 66 0 -2 6 -14 9
-27 7 -12 -2 -26 2 -30 7 -4 7 7 11 29 11 28 0 36 4 36 18 0 39 -45 55 -74 26z
m54 -14 c0 -5 -9 -10 -21 -10 -11 0 -17 5 -14 10 3 6 13 10 21 10 8 0 14 -4
14 -10z"/>
<path d="M14305 4630 c-35 -39 9 -96 61 -76 24 9 8 24 -21 18 -15 -2 -25 0
-25 7 0 6 16 11 35 11 39 0 42 6 19 38 -19 27 -45 28 -69 2z m55 -10 c0 -5 -9
-10 -20 -10 -11 0 -20 5 -20 10 0 6 9 10 20 10 11 0 20 -4 20 -10z"/>
<path d="M14410 4599 c0 -57 17 -66 22 -12 2 27 8 39 21 41 14 3 17 -4 17 -37
0 -23 5 -41 11 -41 6 0 9 19 7 48 -3 47 -3 47 -40 49 l-38 1 0 -49z"/>
<path d="M14705 4630 c-36 -40 11 -98 62 -74 14 6 11 9 -14 12 -44 4 -42 22 2
22 39 0 42 6 19 38 -19 27 -45 28 -69 2z m60 -10 c4 -6 -5 -10 -20 -10 -15 0
-24 4 -20 10 3 6 12 10 20 10 8 0 17 -4 20 -10z"/>
<path d="M14825 4640 c-4 -6 5 -10 19 -10 14 0 26 -4 26 -10 0 -5 -11 -10 -25
-10 -29 0 -51 -32 -32 -48 7 -6 27 -10 45 -10 30 1 32 3 32 38 0 20 -5 41 -12
48 -15 15 -45 16 -53 2z m41 -51 c8 -14 -18 -31 -30 -19 -9 9 0 30 14 30 5 0
12 -5 16 -11z"/>
<path d="M15044 4625 c-15 -23 -15 -27 0 -50 17 -25 59 -34 71 -15 3 6 -5 10
-19 10 -14 0 -28 5 -31 10 -4 6 8 10 29 10 40 0 47 17 20 44 -23 23 -51 20
-70 -9z m61 -5 c4 -6 -5 -10 -20 -10 -15 0 -24 4 -20 10 3 6 12 10 20 10 8 0
17 -4 20 -10z"/>
<path d="M15150 4598 c0 -26 5 -48 10 -48 6 0 10 13 10 30 0 19 7 34 20 42 28
18 25 25 -10 25 -29 0 -30 -2 -30 -49z"/>
<path d="M16424 4625 c-15 -23 -15 -27 0 -50 10 -15 26 -25 41 -25 15 0 31 10
41 25 15 23 15 27 0 50 -10 15 -26 25 -41 25 -15 0 -31 -10 -41 -25z m61 -25
c0 -16 -6 -26 -18 -28 -19 -4 -32 20 -23 44 9 25 41 13 41 -16z"/>
<path d="M16540 4599 c0 -57 17 -66 22 -12 2 27 8 39 21 41 14 3 17 -4 17 -37
0 -23 5 -41 11 -41 6 0 9 19 7 48 -3 47 -3 47 -40 49 l-38 1 0 -49z"/>
<path d="M16720 4598 c0 -26 5 -48 10 -48 6 0 10 11 10 25 0 14 9 34 20 45 26
26 26 27 -10 27 -29 0 -30 -2 -30 -49z"/>
<path d="M16810 4640 c-12 -8 -9 -10 12 -10 15 0 30 -4 33 -10 3 -6 -4 -10
-18 -10 -14 0 -30 -7 -37 -15 -19 -23 5 -45 46 -43 32 1 34 3 34 38 0 53 -31
75 -70 50z m47 -56 c5 -15 -20 -24 -37 -14 -7 4 -9 13 -5 19 8 14 37 11 42 -5z"/>
<path d="M16911 4636 c-16 -19 -7 -34 27 -49 l27 -11 -33 -4 c-36 -4 -34 -22
2 -22 33 0 53 25 36 45 -7 8 -19 15 -26 15 -8 0 -14 5 -14 11 0 7 9 9 21 6 13
-3 19 -1 16 6 -6 18 -42 20 -56 3z"/>
<path d="M18625 4640 c-4 -6 5 -10 19 -10 35 0 33 -18 -1 -22 -22 -2 -28 -8
-28 -28 0 -23 4 -25 43 -26 40 -2 42 -1 42 28 0 16 -5 38 -10 49 -11 20 -54
26 -65 9z m46 -55 c0 -5 -9 -11 -21 -13 -20 -3 -27 8 -13 22 10 9 34 3 34 -9z"/>
<path d="M18796 4643 c-9 -10 -7 -52 4 -73 7 -14 20 -19 45 -18 35 1 35 1 35
50 0 56 -17 65 -22 11 -2 -27 -8 -39 -20 -41 -14 -3 -18 4 -18 32 0 34 -11 52
-24 39z"/>
<path d="M18910 4598 c0 -26 5 -48 10 -48 6 0 10 16 10 36 0 27 5 37 20 41 30
8 24 20 -10 20 -29 0 -30 -2 -30 -49z"/>
<path d="M18995 4640 c-4 -6 5 -10 19 -10 35 0 33 -18 -1 -22 -22 -2 -28 -8
-28 -28 0 -22 5 -25 43 -28 41 -3 42 -2 42 28 0 17 -5 40 -10 51 -11 20 -54
26 -65 9z m45 -55 c0 -8 -9 -15 -20 -15 -20 0 -26 11 -13 23 12 13 33 7 33 -8z"/>
<path d="M19160 4601 c0 -39 4 -51 16 -51 12 0 14 10 12 47 -4 66 -28 70 -28
4z"/>
<path d="M19228 4639 c-21 -12 -24 -59 -6 -77 18 -18 53 -15 71 6 22 24 21 45
-1 65 -21 19 -39 21 -64 6z m56 -24 c8 -23 -4 -45 -25 -45 -11 0 -22 7 -25 15
-9 23 3 45 25 45 10 0 21 -7 25 -15z"/>
<path d="M19330 4598 c0 -26 5 -48 10 -48 6 0 10 16 10 35 0 23 6 38 16 42 20
7 34 -13 34 -49 0 -16 5 -28 10 -28 15 0 12 76 -3 88 -7 6 -27 10 -45 10 -32
-1 -32 -2 -32 -50z"/>
<path d="M13535 3976 c-41 -18 -92 -77 -105 -123 -8 -26 -10 -234 -8 -680 l3
-641 30 -43 c17 -23 48 -52 70 -63 40 -21 49 -21 960 -24 l920 -2 44 22 c25
13 59 40 75 61 l31 39 3 664 c2 637 2 665 -17 701 -22 43 -42 64 -88 87 -29
14 -124 16 -960 16 -744 -1 -934 -3 -958 -14z m1898 -20 c39 -16 82 -61 96
-99 7 -19 11 -238 11 -660 0 -595 -2 -634 -19 -673 -10 -23 -34 -52 -52 -65
l-34 -24 -936 -3 -936 -2 -34 23 c-18 12 -44 38 -56 57 l-23 34 2 660 3 661
24 34 c13 18 42 42 65 52 39 18 85 19 949 19 749 0 913 -2 940 -14z"/>
<path d="M13690 3765 c0 -8 5 -15 10 -15 6 0 10 7 10 15 0 8 -4 15 -10 15 -5
0 -10 -7 -10 -15z"/>
<path d="M15303 3728 c-27 -27 -34 -30 -48 -18 -25 21 -31 2 -7 -22 l22 -22
31 29 c33 33 55 65 42 65 -5 0 -23 -14 -40 -32z"/>
<path d="M13690 3700 c0 -22 5 -40 10 -40 6 0 10 18 10 40 0 22 -4 40 -10 40
-5 0 -10 -18 -10 -40z"/>
<path d="M14287 3582 c-25 -27 -25 -422 -1 -446 13 -14 47 -16 215 -16 123 0
199 4 199 10 0 6 -77 11 -197 12 l-198 3 0 25 0 25 198 3 197 2 0 200 0 200
-198 0 c-180 0 -200 -2 -215 -18z m83 -182 l0 -180 -35 0 -35 0 0 174 c0 184
0 184 48 185 l22 1 0 -180z m305 0 l0 -175 -140 0 -140 0 -3 165 c-1 90 0 170
3 177 3 11 36 13 142 11 l138 -3 0 -175z"/>
<path d="M14525 3500 c-3 -6 -17 -42 -30 -80 -22 -66 -23 -70 -6 -70 10 0 21
9 24 20 3 13 14 20 31 20 15 0 30 -8 36 -20 14 -25 45 -28 35 -2 -3 9 -16 45
-28 80 -15 43 -27 62 -39 62 -9 0 -20 -5 -23 -10z m34 -60 c9 -28 8 -30 -14
-30 -22 0 -23 2 -14 30 6 17 12 30 14 30 2 0 8 -13 14 -30z"/>
<path d="M14185 3010 c-3 -5 -1 -10 4 -10 6 0 11 5 11 10 0 6 -2 10 -4 10 -3
0 -8 -4 -11 -10z"/>
<path d="M14416 3011 c-4 -5 -2 -12 3 -15 5 -4 12 -2 15 3 4 5 2 12 -3 15 -5
4 -12 2 -15 -3z"/>
<path d="M14040 2945 l0 -65 39 0 c31 0 44 6 60 27 36 45 0 103 -65 103 l-34
0 0 -65z m85 20 c20 -32 2 -65 -35 -65 -29 0 -30 1 -30 46 0 43 1 45 26 42 15
-2 32 -12 39 -23z"/>
<path d="M14340 2983 c-10 -12 -11 -18 -2 -21 7 -2 12 -21 12 -43 0 -34 3 -39
23 -38 12 0 16 3 10 6 -17 6 -17 70 -1 75 9 3 8 9 -4 21 -20 20 -19 20 -38 0z"/>
<path d="M14187 2973 c-11 -10 -8 -93 3 -93 6 0 10 23 10 50 0 51 -1 55 -13
43z"/>
<path d="M14247 2962 c-20 -22 -22 -53 -5 -70 14 -14 68 -16 68 -2 0 5 -9 9
-21 7 -25 -2 -45 23 -35 48 4 12 14 16 32 12 15 -3 23 0 21 7 -6 19 -42 18
-60 -2z"/>
<path d="M14420 2931 c0 -28 5 -51 10 -51 6 0 10 20 10 44 0 25 -4 48 -10 51
-6 4 -10 -13 -10 -44z"/>
<path d="M14482 2964 c-41 -29 -23 -84 28 -84 14 0 31 5 38 12 19 19 15 66 -7
78 -26 13 -33 13 -59 -6z m56 -35 c4 -30 -22 -46 -44 -28 -15 12 -19 41 -7 53
16 16 48 1 51 -25z"/>
<path d="M14590 2928 c0 -56 17 -65 22 -10 2 29 7 37 23 37 16 0 21 -8 23 -37
4 -50 22 -49 22 1 0 45 -13 58 -57 58 -33 0 -33 -1 -33 -49z"/>
<path d="M14721 2971 c-11 -7 -7 -10 14 -13 16 -2 30 -8 32 -14 2 -7 -5 -10
-20 -7 -27 5 -52 -19 -43 -42 4 -10 18 -14 46 -13 39 1 40 2 40 38 0 52 -31
75 -69 51z m47 -63 c-3 -7 -13 -13 -23 -13 -10 0 -20 6 -22 13 -3 7 5 12 22
12 17 0 25 -5 23 -12z"/>
<path d="M14820 2930 c0 -27 5 -50 10 -50 6 0 10 13 10 29 0 19 8 35 22 45 12
9 19 19 15 22 -4 4 -13 1 -22 -6 -10 -8 -15 -9 -15 -1 0 6 -4 11 -10 11 -5 0
-10 -22 -10 -50z"/>
<path d="M14890 2977 c0 -3 9 -26 20 -52 24 -56 25 -65 5 -65 -8 0 -15 -5 -15
-11 0 -6 8 -9 18 -7 24 4 86 138 63 138 -5 0 -15 -16 -21 -35 -14 -43 -24 -44
-36 -3 -5 17 -15 33 -22 36 -6 2 -12 1 -12 -1z"/>
<path d="M16737 3504 c-10 -11 -8 -74 2 -74 5 0 11 10 13 23 3 19 9 22 43 22
l40 0 3 -122 3 -123 -31 0 c-16 0 -30 -4 -30 -10 0 -6 28 -10 65 -10 37 0 65
4 65 10 0 6 -11 10 -25 10 l-25 0 0 125 0 125 40 0 c36 0 40 -2 40 -25 0 -16
6 -25 16 -25 12 0 14 9 12 38 l-3 37 -111 3 c-60 1 -113 -1 -117 -4z"/>
<path d="M16500 3420 c0 -34 19 -41 27 -10 3 11 14 20 24 20 17 0 19 -8 19
-80 0 -64 -3 -80 -15 -80 -8 0 -15 -7 -15 -16 0 -12 9 -14 42 -12 38 3 69 28
34 28 -13 0 -16 14 -16 80 0 73 2 80 20 80 13 0 20 -7 20 -20 0 -11 7 -20 16
-20 11 0 14 8 12 28 -3 27 -4 27 -85 30 l-83 3 0 -31z"/>
<path d="M18612 3377 l-42 -43 50 -49 c51 -50 85 -57 37 -7 -31 32 -34 42 -12
42 8 0 15 5 15 10 0 6 -7 10 -15 10 -22 0 -18 13 10 40 14 13 25 27 25 32 0
20 -29 5 -68 -35z"/>
<path d="M19200 3413 c0 -4 14 -22 32 -40 30 -31 31 -33 10 -33 -12 0 -22 -4
-22 -10 0 -5 10 -10 22 -10 21 0 20 -2 -10 -33 -18 -18 -32 -36 -32 -40 0 -19
30 -2 70 38 l44 45 -44 45 c-40 40 -70 57 -70 38z"/>
<path d="M18740 3330 c0 -5 18 -10 40 -10 22 0 40 5 40 10 0 6 -18 10 -40 10
-22 0 -40 -4 -40 -10z"/>
<path d="M18900 3330 c0 -5 18 -10 40 -10 22 0 40 5 40 10 0 6 -18 10 -40 10
-22 0 -40 -4 -40 -10z"/>
<path d="M19060 3330 c0 -5 18 -10 40 -10 22 0 40 5 40 10 0 6 -18 10 -40 10
-22 0 -40 -4 -40 -10z"/>
<path d="M16360 3000 c0 -5 5 -10 10 -10 6 0 10 5 10 10 0 6 -4 10 -10 10 -5
0 -10 -4 -10 -10z"/>
<path d="M18853 3003 c-16 -6 -17 -45 -1 -61 7 -7 20 -12 29 -12 10 0 21 -5
25 -11 9 -14 -16 -31 -36 -23 -25 9 -28 9 -29 -1 -1 -15 41 -23 67 -14 15 6
22 17 22 34 0 20 -6 27 -30 32 -35 6 -47 20 -32 35 7 7 17 6 30 -1 13 -7 23
-7 27 -2 11 19 -42 37 -72 24z"/>
<path d="M19285 3000 c3 -5 10 -10 16 -10 5 0 9 5 9 10 0 6 -7 10 -16 10 -8 0
-12 -4 -9 -10z"/>
<path d="M16230 2941 l0 -61 50 0 c54 0 69 14 55 48 -4 9 -8 28 -9 42 -1 23
-6 25 -48 28 l-48 3 0 -60z m69 40 c18 -11 5 -31 -20 -31 -12 0 -19 7 -19 20
0 21 16 26 39 11z m12 -66 c0 -5 -12 -11 -26 -13 -18 -2 -25 1 -25 13 0 12 7
15 25 13 14 -2 26 -7 26 -13z"/>
<path d="M16885 2990 c3 -5 13 -10 21 -10 10 0 14 -13 14 -50 0 -38 4 -50 15
-50 11 0 15 12 15 50 0 37 4 50 14 50 8 0 18 5 21 10 4 6 -15 10 -50 10 -35 0
-54 -4 -50 -10z"/>
<path d="M17223 2980 c-8 -12 -9 -21 -3 -25 6 -3 10 -21 10 -40 0 -34 24 -55
43 -36 7 7 5 12 -6 17 -19 7 -23 50 -6 56 8 3 8 10 -2 26 -17 27 -21 27 -36 2z"/>
<path d="M18370 2990 c0 -5 9 -10 20 -10 17 0 20 -7 20 -50 0 -27 5 -50 10
-50 6 0 10 23 10 50 0 43 3 50 19 50 11 0 23 5 26 10 4 6 -15 10 -49 10 -31 0
-56 -4 -56 -10z"/>
<path d="M18720 2985 c0 -8 -5 -15 -12 -15 -9 0 -9 -3 0 -12 7 -7 12 -26 12
-44 0 -31 23 -53 35 -34 4 6 1 10 -4 10 -15 0 -14 57 2 64 10 5 10 7 0 12 -7
3 -13 12 -13 20 0 8 -4 14 -10 14 -5 0 -10 -7 -10 -15z"/>
<path d="M18978 2973 c-27 -4 -28 -7 -28 -63 0 -59 17 -90 27 -50 4 13 11 19
20 16 8 -3 23 -1 34 4 26 15 26 75 0 90 -11 5 -21 9 -23 9 -2 -1 -15 -4 -30
-6z m50 -49 c2 -13 -4 -24 -13 -28 -24 -9 -35 1 -35 30 0 21 4 25 23 22 13 -2
23 -11 25 -24z"/>
<path d="M19093 2973 c-21 -8 -15 -26 7 -20 11 3 22 1 25 -3 3 -5 -4 -10 -16
-12 -12 -2 -27 -11 -33 -21 -15 -25 13 -45 54 -39 26 4 30 8 30 37 0 49 -29
74 -67 58z m42 -62 c3 -5 1 -13 -5 -16 -15 -9 -43 3 -35 15 8 13 32 13 40 1z"/>
<path d="M16360 2925 c0 -25 5 -45 10 -45 6 0 10 20 10 45 0 25 -4 45 -10 45
-5 0 -10 -20 -10 -45z"/>
<path d="M16417 2963 c-4 -3 -7 -19 -7 -34 0 -32 28 -53 56 -42 12 4 15 2 12
-8 -3 -8 -16 -13 -32 -12 -14 1 -26 -2 -26 -6 0 -13 34 -19 58 -10 19 7 22 16
22 62 l0 54 -38 1 c-22 1 -42 -1 -45 -5z m61 -37 c-2 -13 -10 -21 -23 -21 -23
0 -33 34 -14 45 20 13 40 -1 37 -24z"/>
<path d="M16537 2963 c-4 -3 -7 -19 -7 -34 0 -32 28 -53 56 -42 12 4 15 2 12
-8 -3 -8 -16 -13 -32 -12 -14 1 -26 -2 -26 -6 0 -13 34 -19 58 -10 19 7 22 16
22 62 l0 54 -38 1 c-22 1 -42 -1 -45 -5z m51 -12 c19 -11 11 -45 -11 -49 -19
-4 -32 20 -23 43 6 17 15 19 34 6z"/>
<path d="M16651 2948 c-11 -31 -2 -58 23 -67 24 -9 56 -3 56 11 0 6 -7 8 -15
4 -18 -6 -45 2 -45 15 0 5 16 9 35 9 22 0 35 5 35 13 0 40 -75 53 -89 15z m50
-16 c-28 -4 -40 6 -21 18 9 6 20 4 29 -3 12 -10 11 -13 -8 -15z"/>
<path d="M16760 2925 c0 -25 5 -45 10 -45 6 0 10 11 10 25 0 13 10 33 22 45
l22 20 -32 0 c-31 0 -32 -1 -32 -45z"/>
<path d="M17010 2950 c-21 -39 16 -88 54 -74 23 9 19 24 -5 21 -12 -1 -24 4
-26 11 -3 8 7 12 31 12 39 0 41 2 26 31 -15 26 -66 26 -80 -1z m58 -8 c2 -7
-6 -12 -17 -12 -21 0 -27 11 -14 24 9 9 26 2 31 -12z"/>
<path d="M17120 2962 c0 -4 6 -14 12 -20 10 -10 10 -17 0 -33 -17 -26 -8 -36
14 -18 13 11 18 11 21 2 3 -7 12 -13 20 -13 14 0 14 3 0 23 -13 20 -13 25 1
45 13 20 13 22 -1 22 -8 0 -17 -6 -20 -12 -4 -10 -7 -10 -18 0 -15 14 -29 16
-29 4z"/>
<path d="M18502 2958 c-31 -31 10 -98 52 -82 23 9 20 24 -5 21 -12 -1 -24 4
-26 11 -3 8 7 12 31 12 32 0 35 2 27 23 -9 25 -59 35 -79 15z m58 -18 c0 -5
-9 -10 -20 -10 -11 0 -20 5 -20 10 0 6 9 10 20 10 11 0 20 -4 20 -10z"/>
<path d="M18610 2962 c0 -4 6 -14 12 -20 10 -10 10 -17 0 -33 -17 -27 -6 -38
12 -13 14 18 15 18 21 2 4 -10 14 -18 21 -18 12 0 11 5 -2 25 -16 24 -16 27 1
45 16 17 16 20 2 20 -8 0 -17 -6 -20 -12 -4 -10 -7 -10 -18 0 -15 14 -29 16
-29 4z"/>
<path d="M19192 2958 c-20 -20 -14 -56 12 -73 23 -16 56 -11 56 7 0 6 -6 8
-14 5 -8 -3 -22 1 -33 8 -14 11 -16 17 -7 32 7 10 21 17 33 16 12 -2 21 2 21
7 0 14 -54 12 -68 -2z"/>
<path d="M19290 2925 c0 -25 5 -45 10 -45 6 0 10 20 10 45 0 25 -4 45 -10 45
-5 0 -10 -20 -10 -45z"/>
<path d="M19330 2926 c0 -34 4 -46 15 -46 10 0 15 10 15 33 0 38 6 48 26 40 8
-3 14 -19 14 -39 0 -19 5 -34 11 -34 6 0 9 17 7 43 -3 42 -3 42 -45 45 l-43 3
0 -45z"/>
<path d="M19452 2958 c-30 -30 8 -86 50 -72 21 6 21 5 9 -10 -10 -11 -22 -15
-38 -11 -13 3 -23 1 -23 -4 0 -17 44 -20 67 -5 19 12 23 24 23 63 l0 48 -38 1
c-21 1 -44 -4 -50 -10z m58 -14 c11 -12 11 -18 -2 -31 -19 -18 -38 -10 -38 16
0 33 20 40 40 15z"/>
<path d="M18035 2256 c-37 -17 -80 -62 -94 -99 -7 -19 -11 -225 -11 -617 0
-392 4 -598 11 -617 14 -38 57 -83 96 -99 26 -11 155 -14 700 -14 414 0 674 4
683 10 10 6 -221 10 -660 10 l-676 0 -44 22 c-33 17 -51 35 -67 68 l-23 44 0
576 0 576 23 44 c16 33 34 51 67 68 l44 22 856 0 856 0 44 -22 c33 -17 51 -35
68 -68 22 -44 22 -46 22 -537 0 -322 3 -493 10 -493 14 0 14 989 -1 1027 -14
38 -57 83 -96 99 -47 20 -1763 20 -1808 0z"/>
<path d="M18770 1839 c0 -24 83 -319 90 -319 4 0 17 23 29 50 12 28 25 50 29
50 4 0 30 -22 57 -50 27 -27 54 -50 60 -50 14 0 65 52 65 66 0 5 -22 32 -50
59 -27 27 -50 52 -50 55 0 4 23 17 50 30 28 13 47 27 43 31 -8 8 -297 89 -315
89 -4 0 -8 -5 -8 -11z m154 -49 c59 -16 111 -32 114 -35 3 -3 -13 -13 -36 -22
-23 -9 -42 -21 -42 -27 0 -6 25 -36 57 -68 48 -49 54 -59 43 -72 -20 -25 -32
-20 -90 39 -30 30 -57 55 -61 55 -3 0 -14 -21 -24 -46 -9 -25 -19 -44 -20 -42
-5 5 -65 226 -65 238 0 14 2 14 124 -20z"/>
<path d="M16866 1808 c-9 -12 -16 -30 -16 -40 0 -10 -7 -18 -15 -18 -8 0 -15
-7 -15 -15 0 -8 7 -15 16 -15 14 0 15 -13 12 -90 -3 -89 -3 -90 21 -90 24 0
24 0 19 90 l-5 90 28 0 c19 0 29 5 29 15 0 10 -10 15 -31 15 -26 0 -30 3 -27
22 2 13 12 24 26 28 30 7 29 24 -2 28 -16 2 -29 -4 -40 -20z"/>
<path d="M16540 1680 l0 -140 71 0 c44 0 84 6 105 16 69 33 95 125 54 192 -28
45 -89 72 -167 72 l-63 0 0 -140z m155 96 c49 -21 71 -58 59 -103 -13 -52 -50
-75 -121 -77 l-58 -1 -3 98 -3 97 46 0 c25 0 61 -6 80 -14z"/>
<path d="M14311 1774 c-15 -19 -21 -41 -21 -78 1 -84 31 -106 145 -106 57 0
76 3 73 13 -3 8 -31 13 -84 15 -66 2 -82 6 -96 23 -26 31 -23 85 7 114 21 22
33 25 100 25 43 0 75 4 75 10 0 6 -36 10 -89 10 -85 0 -91 -1 -110 -26z"/>
<path d="M14570 1790 c0 -6 32 -10 75 -10 67 0 79 -3 100 -25 29 -28 32 -63
10 -105 -15 -30 -17 -30 -100 -30 -69 0 -85 -3 -85 -15 0 -12 15 -15 79 -15
71 0 83 3 110 26 28 23 31 32 31 80 0 45 -4 59 -25 79 -22 23 -32 25 -110 25
-50 0 -85 -4 -85 -10z"/>
<path d="M14432 1698 c3 -9 32 -13 106 -13 140 0 139 19 -1 23 -85 2 -108 0
-105 -10z"/>
<path d="M18640 1349 c0 -5 5 -7 10 -4 6 3 10 8 10 11 0 2 -4 4 -10 4 -5 0
-10 -5 -10 -11z"/>
<path d="M18880 1347 c-37 -18 -41 -80 -7 -102 16 -10 34 -14 51 -9 36 9 33
25 -3 18 -22 -5 -32 -1 -45 17 -23 34 -1 65 46 62 31 -1 32 -1 14 13 -24 17
-25 17 -56 1z"/>
<path d="M18520 1291 c0 -57 2 -61 23 -61 58 0 67 9 64 64 l-2 51 -43 3 -42 3
0 -60z m65 29 c0 -18 -33 -26 -47 -12 -6 6 -7 15 -3 22 10 16 50 8 50 -10z m5
-50 c0 -16 -7 -20 -30 -20 -18 0 -30 5 -30 13 0 20 10 27 37 27 16 0 23 -6 23
-20z"/>
<path d="M14040 1331 c0 -6 5 -13 10 -16 6 -3 10 1 10 9 0 9 -4 16 -10 16 -5
0 -10 -4 -10 -9z"/>
<path d="M14370 1331 c0 -6 5 -13 10 -16 6 -3 10 1 10 9 0 9 -4 16 -10 16 -5
0 -10 -4 -10 -9z"/>
<path d="M14886 1331 c-4 -5 -2 -12 3 -15 5 -4 12 -2 15 3 4 5 2 12 -3 15 -5
4 -12 2 -15 -3z"/>
<path d="M16600 1324 c0 -8 5 -12 10 -9 6 3 10 10 10 16 0 5 -4 9 -10 9 -5 0
-10 -7 -10 -16z"/>
<path d="M17000 1324 c0 -8 5 -12 10 -9 6 3 10 10 10 16 0 5 -4 9 -10 9 -5 0
-10 -7 -10 -16z"/>
<path d="M13900 1265 c0 -51 3 -65 15 -65 10 0 15 10 15 30 0 27 3 30 30 30
27 0 30 -3 30 -30 0 -16 5 -30 10 -30 6 0 10 28 10 65 0 37 -4 65 -10 65 -5 0
-10 -11 -10 -25 0 -21 -5 -25 -30 -25 -25 0 -30 4 -30 25 0 16 -6 25 -15 25
-12 0 -15 -14 -15 -65z"/>
<path d="M14210 1265 c0 -37 4 -65 10 -65 6 0 10 16 10 35 0 23 6 38 16 42 20
7 34 -13 34 -49 0 -16 5 -28 10 -28 16 0 12 76 -5 90 -8 7 -24 10 -35 7 -15
-4 -20 0 -20 14 0 10 -4 19 -10 19 -6 0 -10 -28 -10 -65z"/>
<path d="M14320 1265 c0 -37 4 -65 10 -65 6 0 10 28 10 65 0 37 -4 65 -10 65
-6 0 -10 -28 -10 -65z"/>
<path d="M14540 1265 c0 -37 4 -65 10 -65 6 0 10 16 10 35 0 23 6 38 16 42 20
7 34 -13 34 -49 0 -16 5 -28 10 -28 15 0 12 63 -4 85 -8 12 -20 16 -35 12 -16
-4 -21 -1 -21 14 0 10 -4 19 -10 19 -6 0 -10 -28 -10 -65z"/>
<path d="M14780 1265 l0 -65 40 0 c22 0 40 5 40 10 0 6 -13 10 -30 10 -30 0
-30 1 -30 55 0 30 -4 55 -10 55 -6 0 -10 -28 -10 -65z"/>
<path d="M15042 1268 c2 -38 8 -63 16 -66 7 -2 12 5 12 17 0 27 7 26 30 -1 10
-13 22 -20 26 -16 4 5 0 16 -9 26 -21 23 -21 36 -2 52 9 7 13 15 10 18 -3 3
-16 -5 -30 -18 l-25 -23 0 36 c0 27 -4 37 -15 37 -13 0 -15 -11 -13 -62z"/>
<path d="M15990 1265 l0 -65 35 0 c39 0 85 36 85 65 0 29 -46 65 -85 65 l-35
0 0 -65z m78 33 c19 -19 14 -56 -9 -68 -33 -18 -49 -5 -49 40 0 35 3 40 23 40
13 0 28 -5 35 -12z"/>
<path d="M16330 1265 c0 -51 3 -65 15 -65 12 0 15 14 15 65 0 51 -3 65 -15 65
-12 0 -15 -14 -15 -65z"/>
<path d="M16810 1265 c0 -37 4 -65 10 -65 6 0 10 14 10 30 0 28 3 30 36 30 21
0 33 4 29 10 -3 6 -19 10 -36 10 -19 0 -29 5 -29 15 0 10 11 15 35 15 19 0 35
5 35 10 0 6 -20 10 -45 10 l-45 0 0 -65z"/>
<path d="M17340 1311 c0 -14 -5 -18 -20 -14 -28 7 -50 -14 -50 -47 0 -36 17
-48 63 -47 l37 1 0 63 c0 49 -3 63 -15 63 -8 0 -15 -9 -15 -19z m-5 -61 c0
-16 -6 -26 -18 -28 -19 -4 -32 20 -23 44 9 25 41 13 41 -16z"/>
<path d="M17390 1265 c0 -37 4 -65 10 -65 6 0 10 28 10 65 0 37 -4 65 -10 65
-6 0 -10 -28 -10 -65z"/>
<path d="M18698 1319 c-39 -22 -11 -87 33 -76 13 3 19 1 16 -6 -2 -7 -16 -12
-30 -12 -15 1 -27 -2 -27 -6 0 -13 31 -18 55 -9 22 8 25 15 25 60 0 36 -4 50
-14 50 -8 0 -20 2 -28 5 -7 2 -21 0 -30 -6z m50 -37 c3 -16 -2 -22 -17 -22
-24 0 -35 15 -27 36 9 23 40 13 44 -14z"/>
<path d="M19167 1318 c-25 -13 -21 -37 8 -44 14 -3 25 -11 25 -16 0 -6 -11 -8
-25 -6 -30 6 -33 -8 -4 -17 30 -10 57 18 39 39 -7 9 -19 16 -26 16 -23 0 -16
18 9 22 17 2 18 5 6 10 -8 3 -23 2 -32 -4z"/>
<path d="M19270 1322 c-56 -19 -26 -105 30 -87 21 7 36 46 25 64 -10 17 -39
29 -55 23z m38 -40 c4 -28 -24 -40 -45 -19 -14 13 -14 19 -3 32 18 22 44 15
48 -13z"/>
<path d="M14650 1303 c-10 -12 -11 -18 -2 -21 7 -2 12 -19 12 -38 0 -34 22
-56 38 -39 4 4 1 10 -5 12 -17 6 -17 60 -1 65 9 3 8 9 -4 21 -20 20 -19 20
-38 0z"/>
<path d="M18640 1274 c0 -27 4 -43 10 -39 6 3 10 24 10 46 0 21 -4 39 -10 39
-5 0 -10 -21 -10 -46z"/>
<path d="M18970 1286 c0 -40 15 -55 52 -53 26 2 28 5 27 47 -1 44 -1 44 -9 12
-9 -40 -15 -46 -35 -39 -9 4 -15 19 -15 37 0 16 -4 30 -10 30 -5 0 -10 -15
-10 -34z"/>
<path d="M19080 1274 c0 -24 5 -44 10 -44 6 0 10 16 10 35 0 21 6 37 17 43 13
8 11 10 -10 10 -25 0 -27 -4 -27 -44z"/>
<path d="M19362 1270 c1 -36 2 -39 5 -13 3 19 14 39 26 48 22 15 22 15 -6 13
-25 -2 -27 -5 -25 -48z"/>
<path d="M14040 1250 c0 -27 5 -50 10 -50 6 0 10 23 10 50 0 28 -4 50 -10 50
-5 0 -10 -22 -10 -50z"/>
<path d="M14104 1292 c-40 -25 -13 -88 33 -79 15 3 22 0 20 -7 -2 -6 -18 -12
-35 -14 -39 -4 -33 -22 7 -22 39 0 51 17 51 75 0 51 0 52 -33 53 -17 1 -37 -2
-43 -6z m54 -35 c4 -20 -25 -34 -40 -19 -15 15 -1 44 19 40 10 -2 19 -11 21
-21z"/>
<path d="M14370 1250 c0 -27 5 -50 10 -50 6 0 10 23 10 50 0 28 -4 50 -10 50
-5 0 -10 -22 -10 -50z"/>
<path d="M14425 1284 c-31 -32 -5 -80 39 -72 17 4 25 1 23 -6 -2 -6 -18 -12
-35 -14 -39 -4 -33 -22 7 -22 39 0 51 17 51 75 l0 52 -35 1 c-19 1 -41 -5 -50
-14z m60 -29 c0 -13 -8 -21 -22 -23 -17 -3 -23 2 -23 16 0 10 3 22 7 26 13 13
38 1 38 -19z"/>
<path d="M14880 1250 c0 -38 4 -50 15 -50 11 0 15 12 15 50 0 38 -4 50 -15 50
-11 0 -15 -12 -15 -50z"/>
<path d="M14930 1248 c0 -26 5 -48 10 -48 6 0 10 12 10 28 0 36 14 56 34 49
10 -4 16 -19 16 -42 0 -19 5 -35 10 -35 14 0 12 76 -2 87 -7 6 -28 10 -45 10
-33 0 -33 -1 -33 -49z"/>
<path d="M15157 1293 c-16 -15 -6 -43 18 -49 33 -8 33 -28 0 -22 -34 7 -43
-10 -10 -18 56 -14 78 31 28 56 l-28 14 28 4 c15 2 25 8 22 13 -7 10 -48 12
-58 2z"/>
<path d="M16136 1263 c26 -62 28 -73 10 -73 -9 0 -16 -5 -16 -11 0 -6 10 -9
22 -7 16 2 28 18 45 63 27 69 27 68 11 63 -6 -2 -17 -20 -23 -39 l-12 -34 -16
38 c-9 20 -21 37 -27 37 -6 0 -4 -14 6 -37z"/>
<path d="M16247 1293 c-16 -15 -6 -43 18 -49 33 -8 32 -28 0 -21 -16 3 -24 0
-22 -7 2 -6 17 -11 33 -11 22 0 30 5 32 22 3 17 -4 26 -25 35 l-28 12 28 4
c15 2 25 8 22 13 -7 10 -48 12 -58 2z"/>
<path d="M16392 1288 c-7 -7 -12 -24 -12 -38 0 -14 5 -31 12 -38 15 -15 54
-16 63 -2 3 6 -5 10 -19 10 -14 0 -28 5 -31 10 -4 6 8 10 29 10 28 0 36 4 36
18 0 24 -19 42 -45 42 -12 0 -26 -5 -33 -12z m53 -18 c4 -6 -5 -10 -20 -10
-15 0 -24 4 -20 10 3 6 12 10 20 10 8 0 17 -4 20 -10z"/>
<path d="M16505 1274 c16 -24 16 -27 -1 -45 -23 -25 -10 -37 16 -14 18 16 20
16 26 1 3 -9 13 -16 20 -16 12 0 11 5 -3 26 -14 21 -14 29 -4 46 16 25 5 38
-12 14 -12 -16 -14 -16 -26 -2 -22 26 -35 18 -16 -10z"/>
<path d="M16600 1250 c0 -27 5 -50 10 -50 6 0 10 23 10 50 0 28 -4 50 -10 50
-5 0 -10 -22 -10 -50z"/>
<path d="M16655 1290 c-3 -6 5 -10 19 -10 14 0 28 -4 31 -10 3 -6 -4 -10 -18
-10 -14 0 -30 -7 -37 -15 -19 -23 5 -45 46 -43 32 1 34 3 34 38 0 20 -5 41
-12 48 -15 15 -54 16 -63 2z m46 -55 c0 -5 -9 -11 -21 -13 -20 -3 -27 8 -13
22 10 9 34 3 34 -9z"/>
<path d="M16924 1291 c-2 -2 -4 -24 -4 -48 0 -32 4 -43 15 -43 11 0 15 11 15
35 0 22 6 38 15 41 24 10 17 22 -11 20 -14 0 -28 -3 -30 -5z"/>
<path d="M17000 1250 c0 -27 5 -50 10 -50 6 0 10 23 10 50 0 28 -4 50 -10 50
-5 0 -10 -22 -10 -50z"/>
<path d="M17050 1279 c-25 -45 18 -94 66 -75 21 8 8 25 -15 19 -10 -3 -22 0
-25 6 -5 7 4 11 23 11 37 0 44 11 25 38 -19 28 -60 29 -74 1z m55 -9 c3 -5 -3
-10 -15 -10 -12 0 -18 5 -15 10 3 6 10 10 15 10 5 0 12 -4 15 -10z"/>
<path d="M17160 1249 c0 -57 17 -66 22 -12 2 27 8 39 21 41 13 3 17 -4 17 -32
0 -19 5 -38 11 -41 7 -5 9 9 7 42 l-3 48 -37 2 -38 1 0 -49z"/>
<path d="M17450 1254 c24 -55 25 -64 5 -64 -8 0 -15 -4 -15 -10 0 -5 9 -10 20
-10 20 0 42 38 65 109 12 39 -17 20 -30 -20 l-12 -34 -13 38 c-8 20 -20 37
-27 37 -9 0 -7 -13 7 -46z"/>
<path d="M18120 985 c0 -13 34 -15 245 -15 211 0 245 2 245 15 0 13 -34 15
-245 15 -211 0 -245 -2 -245 -15z"/>
<path d="M16708 214 c-16 -8 -28 -16 -28 -18 0 -1 27 -3 61 -3 l61 -1 -31 19
c-17 10 -32 19 -34 19 -1 -1 -14 -8 -29 -16z"/>
</g>
</svg>
