<svg width="100" height="28" viewBox="0 0 150 28" xmlns="http://www.w3.org/2000/svg"><defs><linearGradient x1="27.667%" y1="2.939%" x2="90.667%" y2="87.55%" id="a"><stop stop-color="#03BCFF" offset="0%"/><stop stop-color="#024FFF" offset="51%"/><stop stop-color="#F900FF" offset="100%"/></linearGradient></defs><g fill-rule="nonzero" fill="none"><path d="M38.758 21.016c-.555 0-1.188.146-1.91.506l.351.712c.439-.225.926-.42 1.423-.42 1.003 0 1.296.673 1.296 1.306v.156a4.855 4.855 0 00-1.52-.273c-1.11 0-2.017.672-2.017 1.676 0 .984.79 1.608 1.861 1.608.614 0 1.305-.283 1.676-.81v.693h.945v-3.05c0-1.247-.75-2.104-2.105-2.104zm-.33 4.51c-.634 0-1.121-.33-1.121-.876s.565-.926 1.237-.926c.497 0 .965.068 1.374.195v.672c-.166.624-.867.936-1.49.936z" fill="#525A6D"/><path fill="#050A16" d="M45.747 24.874v-5.398h-1.442v6.694h4.774v-1.296zM52.018 25.03c-.594 0-1.032-.37-1.198-.916h3.634c0-1.9-.926-3.098-2.504-3.098-1.471 0-2.592 1.1-2.592 2.62 0 1.55 1.17 2.65 2.67 2.65.74 0 1.608-.311 2.056-.779l-.906-.925c-.273.263-.76.448-1.16.448zm-.01-2.758c.575 0 .946.322 1.082.819h-2.25a1.217 1.217 0 011.168-.819zM56.78 26.17h1.314l2.154-5.037h-1.481l-1.325 3.4-1.355-3.4h-1.49zM62.739 25.03c-.595 0-1.033-.37-1.199-.916h3.634c0-1.9-.925-3.098-2.504-3.098-1.47 0-2.591 1.1-2.591 2.62 0 1.55 1.169 2.65 2.67 2.65.74 0 1.607-.311 2.055-.779l-.906-.925c-.273.263-.76.448-1.16.448zm-.01-2.758c.575 0 .945.322 1.081.819h-2.25a1.217 1.217 0 011.169-.819zM65.814 26.17h1.422v-6.81h-1.422zM75.492 26.17h1.617l-2.728-6.694h-1.607l-2.728 6.694h1.607l.429-1.053h2.981l.429 1.053zm-2.913-2.27l.993-2.446.994 2.446H72.58zM80 26.287c.837 0 1.52-.341 2.016-.887l-.945-.799a1.488 1.488 0 01-1.062.487c-.75 0-1.374-.662-1.374-1.452 0-.77.624-1.422 1.364-1.422.39 0 .79.185 1.043.468l.945-.809a2.633 2.633 0 00-1.978-.857c-1.49 0-2.757 1.198-2.757 2.63s1.257 2.64 2.747 2.64zM85.014 26.287c.838 0 1.52-.341 2.016-.887l-.945-.799a1.488 1.488 0 01-1.062.487c-.75 0-1.373-.662-1.373-1.452 0-.77.623-1.422 1.364-1.422.39 0 .789.185 1.042.468l.945-.809a2.633 2.633 0 00-1.978-.857c-1.49 0-2.757 1.198-2.757 2.63s1.257 2.64 2.748 2.64zM89.94 25.03c-.594 0-1.032-.37-1.198-.916h3.634c0-1.9-.926-3.098-2.504-3.098-1.471 0-2.591 1.1-2.591 2.62 0 1.55 1.169 2.65 2.67 2.65.74 0 1.607-.311 2.055-.779l-.906-.925c-.273.263-.76.448-1.16.448zm-.01-2.758c.575 0 .946.322 1.082.819h-2.25a1.217 1.217 0 011.169-.819zM94.906 26.287c1.237 0 2.046-.634 2.046-1.628 0-1.1-.965-1.393-1.832-1.617-.682-.185-.886-.263-.886-.536 0-.175.243-.302.594-.302.429 0 .955.166 1.413.448l.574-1.013c-.555-.37-1.266-.623-1.987-.623-1.189 0-1.978.682-1.968 1.636.01.994.809 1.277 1.841 1.53.517.136.887.234.887.546 0 .224-.273.38-.653.38-.672 0-1.237-.244-1.685-.565l-.614.984c.604.487 1.461.76 2.27.76zM99.472 26.287c1.237 0 2.046-.634 2.046-1.628 0-1.1-.965-1.393-1.832-1.617-.682-.185-.886-.263-.886-.536 0-.175.243-.302.594-.302.429 0 .955.166 1.413.448l.575-1.013c-.556-.37-1.267-.623-1.988-.623-1.189 0-1.978.682-1.968 1.636.01.994.809 1.277 1.841 1.53.517.136.887.234.887.546 0 .224-.273.38-.653.38-.672 0-1.237-.244-1.685-.565l-.614.984c.604.487 1.461.76 2.27.76z"/><path d="M107.065 26.287c.75 0 1.403-.312 1.89-.81l-.653-.593c-.312.35-.76.565-1.227.565-.926 0-1.686-.819-1.686-1.803 0-.974.76-1.792 1.676-1.792.467 0 .906.204 1.208.545l.653-.604a2.616 2.616 0 00-1.851-.78c-1.442 0-2.66 1.199-2.66 2.631 0 1.432 1.218 2.64 2.65 2.64zM111.943 26.287c1.432 0 2.64-1.209 2.64-2.64 0-1.433-1.208-2.631-2.64-2.631-1.442 0-2.66 1.198-2.66 2.63s1.218 2.64 2.66 2.64zm0-.838c-.926 0-1.696-.819-1.696-1.803 0-.974.77-1.792 1.696-1.792.906 0 1.675.818 1.675 1.792 0 .984-.77 1.803-1.675 1.803zM121.02 21.016c-.76 0-1.403.39-1.637 1.013-.292-.624-.887-1.013-1.617-1.013-.643 0-1.17.321-1.423.818v-.701h-.964v5.037h.964v-3.147c0-.692.507-1.17 1.228-1.17.633 0 1.071.517 1.071 1.257v3.06h.946v-3.147c0-.692.506-1.17 1.227-1.17.633 0 1.072.517 1.072 1.257v3.06h.945v-3.206c0-1.14-.76-1.948-1.812-1.948zM126.687 21.016c-.78 0-1.403.37-1.793.984v-.867h-.955v6.712h.955v-2.552c.39.623 1.013.994 1.793.994 1.325 0 2.319-1.092 2.319-2.64 0-1.54-.994-2.631-2.32-2.631zm-.234 4.433c-.906 0-1.559-.75-1.559-1.803 0-1.052.653-1.792 1.559-1.792.926 0 1.578.74 1.578 1.792s-.652 1.803-1.578 1.803zM131.964 21.016c-.555 0-1.189.146-1.91.506l.351.712c.439-.225.926-.42 1.423-.42 1.003 0 1.295.673 1.295 1.306v.156a4.855 4.855 0 00-1.52-.273c-1.11 0-2.016.672-2.016 1.676 0 .984.789 1.608 1.86 1.608.615 0 1.306-.283 1.676-.81v.693h.946v-3.05c0-1.247-.75-2.104-2.105-2.104zm-.331 4.51c-.633 0-1.12-.33-1.12-.876s.565-.926 1.237-.926c.497 0 .964.068 1.373.195v.672c-.165.624-.867.936-1.49.936zM137.7 21.016c-.683 0-1.296.35-1.598.847v-.73h-.965v5.037h.965v-3.264c.077-.595.682-1.052 1.383-1.052.682 0 1.16.526 1.16 1.276v3.04h.944v-3.206c0-1.14-.779-1.948-1.89-1.948zM141.535 27.923c.72-.01 1.257-.39 1.617-1.295l2.221-5.495h-1.003l-1.53 3.975-1.617-3.975h-1.033l2.163 5.066-.253.536c-.166.292-.38.39-.692.39-.195 0-.419-.05-.614-.157l-.214.74c.263.137.614.215.955.215z" fill="#525A6D"/><path d="M47.16 8.386c.045.395-.001.795-.134 1.173s-.35.727-.636 1.024a3.117 3.117 0 01-1.03.703 3.347 3.347 0 01-1.249.263c-1.768 0-3.05-1.32-3.05-3.163V.572h-4.36v8c0 3.894 3.05 6.636 7.43 6.636 4.382 0 7.442-2.742 7.442-6.635V.572H47.16v7.814zm12.79-2.19c-1.992-.451-2.483-.663-2.483-1.37 0-.534.464-.92 1.419-.92a6.943 6.943 0 013.991 1.425l1.973-2.823a8.917 8.917 0 00-5.855-1.93c-3.319 0-5.52 1.838-5.52 4.652 0 2.813 2.347 3.742 5.374 4.44 1.937.452 2.419.553 2.419 1.233s-.564.993-1.646.993a7.343 7.343 0 01-4.619-1.729l-2.19 2.649a9.933 9.933 0 006.636 2.39c3.501 0 5.756-1.747 5.756-4.735.027-2.694-2-3.577-5.255-4.276zm7.734 9.012h11.154v-3.685h-7.25V9.58h6.6V5.895h-6.6V4.257h7.25V.572H67.684v14.636zm26.655-9.523c0-3.009-2.398-5.113-5.789-5.113h-7.234v14.636h4.266v-4.39H86.9l3.194 4.39h4.856l-3.607-4.961a4.992 4.992 0 002.211-1.841 4.764 4.764 0 00.786-2.72zm-6.143 1.362h-2.614V4.343h2.614c.983 0 1.74.571 1.74 1.361s-.727 1.362-1.74 1.362v-.019zm24.138 5.37L108.304.573h-1.923l-4.041 11.846L98.13.572h-1.942l5.2 14.636h1.705l4.26-12.465 4.23 12.465h1.702L118.496.572h-1.951l-4.21 11.846zm17.956-4.112l-.231-.525-3.214-7.208h-1.827l-6.522 14.636h1.828l1.49-3.328h8.245l1.48 3.328h1.828l-2.183-4.91-.894-1.993zm-7.792 2.011l3.444-7.694 3.424 7.694h-6.868zM144.984.572l-4.79 7.094L135.45.572h-2.083l5.952 8.665v5.971h1.757v-5.97L147 .571h-2.016z" fill="#050A16"/><g fill="url(#a)"><path d="M12.876 20.998a8.34 8.34 0 01-5.862-2.413 8.204 8.204 0 01-2.432-5.814V5.96a3.116 3.116 0 00-.928-2.206 3.168 3.168 0 00-2.227-.912H0V0h1.427c.79 0 1.57.154 2.3.454.728.3 1.39.738 1.949 1.292.558.553 1 1.21 1.302 1.933.302.723.458 1.498.458 2.28v6.812c0 1.431.573 2.804 1.593 3.816a5.463 5.463 0 003.847 1.58 5.463 5.463 0 003.846-1.58 5.374 5.374 0 001.594-3.816V5.96c0-1.58.633-3.097 1.76-4.214A6.034 6.034 0 0124.324 0h1.427v2.842h-1.427c-.834 0-1.635.328-2.226.912a3.116 3.116 0 00-.928 2.206v6.811a8.203 8.203 0 01-2.433 5.814 8.34 8.34 0 01-5.861 2.413zm12.875-8.227c0 3.387-1.356 6.636-3.77 9.03a12.93 12.93 0 01-9.105 3.741 12.93 12.93 0 01-9.105-3.74A12.719 12.719 0 010 12.772V4.543h.998c.494 0 .969.194 1.32.538.352.345.552.813.558 1.304v6.385a9.889 9.889 0 002.932 7.021 10.052 10.052 0 007.078 2.909c2.655 0 5.202-1.046 7.08-2.909a9.889 9.889 0 002.931-7.02V6.385c0-.494.198-.968.55-1.317.352-.35.83-.546 1.328-.546h.976v8.248z"/></g></g></svg>