<svg xmlns="http://www.w3.org/2000/svg" width="32" height="32" viewBox="0 0 32 32" fill="none"><path d="M23.2149 8.77071C21.4038 6.96314 18.9802 5.90119 16.4236 5.79495C13.867 5.6887 11.3636 6.54591 9.40873 8.19697C7.45387 9.84803 6.1899 12.1727 5.86689 14.711C5.54389 17.2494 6.18536 19.8165 7.66442 21.9045C9.14347 23.9926 11.3524 25.4494 13.8541 25.9868C16.3558 26.5243 18.9682 26.1032 21.1743 24.8068C23.3804 23.5104 25.0196 21.4333 25.7676 18.9862C26.1486 17.7395 26.2843 16.4431 26.1796 15.166" stroke="white" stroke-linecap="round" stroke-linejoin="round"></path><path d="M19.6076 12.3859C18.7624 11.5407 17.6478 11.0185 16.4575 10.9098C15.2673 10.8012 14.0765 11.1131 13.0923 11.7913C12.1081 12.4694 11.3927 13.471 11.0703 14.622C10.7479 15.7729 10.8391 17.0004 11.3278 18.0912C11.8166 19.1819 12.6721 20.0669 13.7456 20.5923C14.8191 21.1178 16.0429 21.2504 17.2041 20.9672C18.3653 20.6841 19.3905 20.003 20.1017 19.0423C20.8128 18.0816 21.1649 16.9022 21.0966 15.7089" stroke="white" stroke-linecap="round" stroke-linejoin="round"></path><path d="M21.5437 10.4473C20.2454 9.1491 18.5333 8.34684 16.7049 8.17997C14.8765 8.01311 13.0475 8.49217 11.5357 9.53391C10.0239 10.5756 8.92485 12.1142 8.42967 13.8821C7.9345 15.6501 8.07446 17.5356 8.82523 19.2111C9.57599 20.8865 10.8901 22.246 12.5392 23.0531C14.1882 23.8602 16.0679 24.064 17.8517 23.629C19.6354 23.194 21.2103 22.1478 22.3026 20.6721C23.395 19.1965 23.9358 17.3847 23.831 15.5517" stroke="white" stroke-linecap="round" stroke-linejoin="round"></path><path d="M15.9863 16.0009L23.2597 8.72754" stroke="white" stroke-linecap="round" stroke-linejoin="round"></path><ellipse cx="10.8794" cy="10.0865" rx="1.19195" ry="1.19195" fill="white"></ellipse><ellipse cx="15.9869" cy="16.0005" rx="1.19195" ry="1.19195" fill="white"></ellipse><ellipse cx="12.7935" cy="23.2144" rx="1.19195" ry="1.19195" fill="white"></ellipse></svg>