<svg width="122" height="122" viewBox="0 0 122 122" xmlns="http://www.w3.org/2000/svg"><g fill="#FFF" fill-rule="evenodd"><path d="M61 120.123C28.4 120.123 1.877 93.6 1.877 61 1.877 28.4 28.4 1.877 61 1.877c32.6 0 59.123 26.523 59.123 59.123 0 32.6-26.523 59.123-59.123 59.123M61 0C27.364 0 0 27.364 0 61c0 33.636 27.364 61 61 61 33.636 0 61-27.364 61-61 0-33.636-27.364-61-61-61"/><path d="M61 102.292c-22.769 0-41.292-18.523-41.292-41.292 0-22.769 18.523-41.292 41.292-41.292 22.769 0 41.292 18.523 41.292 41.292 0 22.769-18.523 41.292-41.292 41.292m0-84.461C37.195 17.83 17.83 37.195 17.83 61c0 23.805 19.365 43.17 43.17 43.17 23.805 0 43.17-19.365 43.17-43.17 0-23.805-19.365-43.17-43.17-43.17M7.955 73.885l.289 1.138 6.494-1.646-.287-1.136zM10.607 68.47l3.007-.51-.176-1.054-3.285.553c-.544.094-.925.314-1.149.661-.217.35-.285.785-.193 1.31.05.316.175.588.37.822.197.233.439.408.73.524l-.013.02-.704.12.17 1 4.783-.81-.178-1.055-2.823.477a1.46 1.46 0 01-.503 0 1.265 1.265 0 01-.443-.163 1.078 1.078 0 01-.507-.78c-.056-.314-.007-.56.137-.739.145-.174.404-.302.777-.377M8.503 66.019l.066.793.796-.067-.068-.794 4.04-.342-.091-1.064-4.04.34-.074-.907-.796.066.075.908-.494.04c-.2.019-.337-.025-.416-.118a.666.666 0 01-.134-.363c-.009-.105-.009-.197-.009-.276.002-.078.011-.152.023-.223l-.832.071c-.03.158-.032.411-.004.751.017.177.047.342.096.498.047.157.128.29.242.409.113.114.267.202.464.26.197.059.447.076.752.051l.404-.033zM9.132 60.261c.101-.174.23-.317.39-.43.158-.112.342-.195.548-.247.207-.055.415-.08.62-.08.212.003.422.027.624.082.203.052.385.137.549.247.16.115.292.26.394.434.1.176.148.38.148.62 0 .238-.05.442-.152.619-.1.176-.23.319-.394.431a1.661 1.661 0 01-.55.246 2.395 2.395 0 01-1.243-.002 1.686 1.686 0 01-.55-.247 1.33 1.33 0 01-.388-.434 1.25 1.25 0 01-.148-.62c.001-.236.05-.442.152-.619m-.278 2.425c.227.21.495.372.807.483.313.108.653.165 1.023.165.373.002.719-.055 1.032-.162.314-.11.582-.27.81-.478.226-.209.399-.466.53-.768.128-.302.192-.65.194-1.038 0-.388-.064-.734-.19-1.038a2.247 2.247 0 00-.527-.77 2.3 2.3 0 00-.81-.48 3.117 3.117 0 00-1.032-.165 3.102 3.102 0 00-1.023.161c-.311.111-.581.269-.809.477-.223.21-.4.466-.529.77-.13.304-.193.65-.195 1.036 0 .388.062.736.191 1.038.128.304.304.56.528.77M13.314 56.638l-2.299-.207c-.266-.026-.5-.08-.7-.169a1.582 1.582 0 01-.494-.326 1.189 1.189 0 01-.341-.965c.007-.077.02-.15.035-.229a6.65 6.65 0 01.053-.225l-1.027-.094c-.01.05-.02.097-.033.143-.01.046-.02.133-.03.257-.016.163.001.324.048.484.05.163.12.311.212.449.087.138.192.255.31.36.116.1.238.17.366.216l-.002.018-.935-.084-.091.999 4.833.439.095-1.066zM10.264 47.152c-.302.227-.508.591-.613 1.093-.074.35-.062.657.028.916.092.264.242.51.45.74a1.105 1.105 0 00-.707.403 1.73 1.73 0 00-.363.762c-.04.19-.054.362-.047.518a1.416 1.416 0 00.265.783c.077.112.167.22.267.326l-.008.026-.66-.139-.209.993 4.749.995.22-1.045-2.82-.594a1.508 1.508 0 01-.505-.195 1.2 1.2 0 01-.336-.311.963.963 0 01-.17-.383.953.953 0 01-.002-.406c.065-.319.195-.52.39-.606.191-.082.456-.088.788-.019l3.048.64.22-1.047-2.783-.586c-.404-.084-.699-.23-.886-.435-.19-.203-.244-.484-.171-.839.045-.205.109-.357.193-.46a.626.626 0 01.317-.206c.126-.034.267-.042.425-.021.161.02.334.05.523.09l2.774.582.22-1.047-3.28-.687c-.573-.12-1.014-.07-1.317.16M15.15 44.861a1.97 1.97 0 01-.132.285 1.285 1.285 0 01-.201.269.806.806 0 01-.265.169.461.461 0 01-.317-.004.793.793 0 01-.308-.186.6.6 0 01-.155-.259.952.952 0 01-.04-.313c.006-.111.017-.226.036-.336.037-.239.09-.473.148-.704.058-.233.068-.443.02-.633l.751.269c.16.058.28.144.363.26a1.186 1.186 0 01.184.805 1.713 1.713 0 01-.085.378m.89-2.483l-.04.103c-.033.096-.082.15-.146.163a.566.566 0 01-.283-.046l-2.352-.84a1.202 1.202 0 00-.67-.061 1.369 1.369 0 00-.56.274 1.925 1.925 0 00-.44.505c-.124.2-.23.412-.308.636-.092.253-.156.51-.196.77a2.05 2.05 0 00.015.735c.051.235.149.447.299.642.152.193.371.351.659.473l.36-1.006c-.238-.113-.385-.282-.437-.505-.053-.225-.028-.479.073-.762.036-.101.08-.203.135-.31.056-.107.122-.199.199-.274a.682.682 0 01.268-.163.578.578 0 01.353.023c.147.054.246.129.295.229a.7.7 0 01.054.358c-.01.14-.037.295-.082.465-.043.171-.081.351-.111.549-.05.22-.094.443-.126.666-.028.227-.022.44.015.644.042.204.132.388.272.555.14.167.351.3.633.402.225.08.435.107.636.082.195-.026.377-.09.537-.197.161-.103.302-.242.424-.41.124-.168.224-.355.297-.562.095-.272.154-.569.169-.891a1.887 1.887 0 00-.16-.89c.22.032.396-.006.528-.11.13-.106.234-.262.307-.468.017-.041.029-.092.045-.154.015-.06.027-.124.038-.186.007-.064.015-.126.019-.186l.011-.154-.698-.247a.843.843 0 01-.032.148M17.985 39.88l-.751-.343a1.136 1.136 0 01-.066.22c-.026.07-.058.139-.086.206a.746.746 0 01-.156.239.333.333 0 01-.18.088.486.486 0 01-.214-.026 3.273 3.273 0 01-.274-.11l-2.356-1.075.404-.88-.726-.33-.404.878-1.321-.604-.445.974 1.323.604-.334.734.724.33.336-.733 2.606 1.192c.182.076.352.13.51.165a.809.809 0 00.436-.017.93.93 0 00.382-.27c.119-.134.239-.33.353-.586.05-.109.094-.216.128-.323.037-.109.071-.218.11-.332M18.835 38.286l-4.294-2.258-.5.948 4.297 2.258zM13.802 35.64l-.9-.472-.496.948.895.471zM16.96 33.303c.126-.201.278-.35.458-.443.178-.096.362-.149.56-.158.195-.01.395.017.596.083a2.442 2.442 0 011.053.662c.143.154.254.321.33.503.08.18.113.376.106.574a1.276 1.276 0 01-.205.607 1.24 1.24 0 01-.458.443 1.333 1.333 0 01-.563.155 1.734 1.734 0 01-.597-.084 2.458 2.458 0 01-1.053-.663 1.722 1.722 0 01-.332-.503 1.368 1.368 0 01-.098-.574c.008-.199.077-.402.203-.602m-.638 2.299c.206.257.465.486.777.683.317.2.638.34.963.413a2.194 2.194 0 001.796-.343c.268-.188.509-.445.715-.774.207-.33.336-.657.39-.981a2.23 2.23 0 00-.039-.935 2.3 2.3 0 00-.426-.833c-.206-.261-.47-.49-.786-.69a3.023 3.023 0 00-.954-.407 2.302 2.302 0 00-.938-.026c-.302.058-.586.18-.858.37a2.58 2.58 0 00-.715.775 2.57 2.57 0 00-.39.978c-.055.326-.04.636.037.933.079.298.221.578.428.837M22.882 32.001l-2.237-1.785a1.474 1.474 0 01-.336-.375 1.276 1.276 0 01-.173-.44 1.007 1.007 0 01.017-.454c.036-.153.111-.302.226-.443.197-.25.41-.38.641-.39.228-.01.494.098.8.327l2.386 1.901.668-.835-2.605-2.078c-.434-.343-.849-.48-1.258-.413-.405.07-.775.312-1.105.726a1.689 1.689 0 00-.365.826c-.045.3-.01.599.098.894l-.026.003-.56-.444-.63.794 3.795 3.021.664-.835zM24.39 23.63c.151.096.314.162.5.197.184.038.389.038.61 0 .225-.034.467-.122.732-.257.43-.214.786-.398 1.076-.552.285-.152.55-.276.784-.368a.996.996 0 01.456-.063c.167.015.338.118.505.307.085.094.148.203.195.327a.85.85 0 01.032.403c-.02.145-.079.3-.174.468-.096.165-.24.332-.432.503-.176.16-.357.287-.544.383a1.539 1.539 0 01-.573.172 1.217 1.217 0 01-.569-.088 1.493 1.493 0 01-.534-.403l-.877.782c.28.304.578.518.892.646.313.124.63.176.946.156.315-.025.63-.113.944-.269.315-.155.615-.36.9-.615.246-.222.462-.468.646-.74.186-.27.316-.553.39-.844.076-.293.08-.59.016-.89-.062-.302-.22-.59-.47-.87a1.762 1.762 0 00-.409-.339 1.671 1.671 0 00-.512-.202 1.678 1.678 0 00-.576-.032c-.201.018-.402.077-.614.172-.083.038-.216.105-.404.203-.186.096-.379.193-.574.29-.195.102-.374.192-.531.273a6.379 6.379 0 00-.274.137c-.224.109-.436.16-.635.158-.199-.002-.379-.092-.535-.267a.722.722 0 01-.197-.394.91.91 0 01.044-.396c.043-.131.112-.251.198-.37.089-.116.184-.22.286-.313.304-.27.614-.426.927-.471.315-.042.629.088.938.39l.875-.783a1.967 1.967 0 00-.77-.551 2.005 2.005 0 00-.863-.128 2.5 2.5 0 00-.88.24 3.404 3.404 0 00-.828.56c-.227.199-.42.428-.587.68a2.52 2.52 0 00-.348.797 1.821 1.821 0 00-.003.83c.06.279.2.544.426.795.118.132.248.242.396.336M30.661 18.85c.087-.143.207-.27.36-.377.149-.105.305-.17.464-.196.163-.026.32-.02.47.012.153.035.296.1.437.193.137.094.263.205.37.336l-2.04 1.442c-.1-.153-.166-.31-.202-.475a1.297 1.297 0 01-.024-.486c.024-.158.077-.308.165-.45m-.563 2.383c.218.306.458.555.723.75.268.198.548.329.843.395.294.065.6.065.914-.002.311-.068.623-.21.934-.434.212-.152.398-.324.554-.523.154-.198.27-.411.347-.639.077-.225.115-.463.107-.71a2.055 2.055 0 00-.17-.744l-.826.585c.076.274.078.522 0 .742-.077.22-.244.42-.5.6-.186.132-.366.21-.542.24-.178.033-.35.025-.513-.022a1.342 1.342 0 01-.46-.236 1.862 1.862 0 01-.379-.398l2.91-2.063a2.755 2.755 0 00-.668-.82 2.474 2.474 0 00-.877-.486 2.222 2.222 0 00-.984-.081 2.15 2.15 0 00-.976.398 2.197 2.197 0 00-.957 1.612c-.03.31-.002.623.09.939.089.317.231.613.43.897M34.503 18.223c.175.312.381.576.621.794.239.218.5.373.785.471.281.096.584.128.897.1.317-.03.642-.14.974-.325.548-.304.905-.695 1.07-1.171.167-.477.143-1.016-.079-1.618l-.934.522c.127.33.15.63.067.897-.082.27-.26.48-.535.632-.2.115-.398.167-.585.162a1.208 1.208 0 01-.533-.137 1.618 1.618 0 01-.458-.359 2.587 2.587 0 01-.355-.488c-.18-.323-.287-.606-.321-.848a1.444 1.444 0 01.024-.625c.05-.179.135-.325.25-.443a1.63 1.63 0 01.349-.274c.265-.147.518-.203.764-.164.248.036.462.177.647.417l.935-.52a1.893 1.893 0 00-.574-.572 1.726 1.726 0 00-.689-.239 2.112 2.112 0 00-.747.047c-.26.06-.51.16-.753.297-.35.197-.625.424-.818.685a2.111 2.111 0 00-.381.846c-.06.305-.054.62.013.946.066.327.188.65.366.967M40.588 17.263c.385.18.873.146 1.46-.104.248-.105.462-.276.644-.51.183-.238.286-.496.312-.768l.017-.01.265.624.968-.411-1.894-4.469-.983.419 1.098 2.593c.073.173.122.34.148.505.024.167.017.32-.024.464a.95.95 0 01-.227.398c-.111.124-.273.225-.48.315-.27.115-.515.124-.733.025-.22-.098-.411-.344-.576-.734l-1.16-2.74-.985.418 1.199 2.834c.251.586.567.97.951 1.15M46.203 15.457l-.712-2.198a2.304 2.304 0 01-.12-.71 1.56 1.56 0 01.107-.581c.068-.17.171-.315.299-.434.131-.116.283-.202.454-.26a2.774 2.774 0 01.454-.094l-.319-.984c-.049.01-.098.019-.145.026-.046.01-.13.032-.247.07-.156.05-.297.13-.428.236a1.767 1.767 0 00-.537.798 1.074 1.074 0 00-.054.42l-.017.006-.291-.891-.956.31 1.494 4.615 1.018-.329zM48.257 14.838l1.036-.273-1.233-4.692-1.036.272zM47.847 9.066l-.26-.98-1.033.272.257.982zM49.1 10.422l.795-.161.572 2.802c.045.197.101.368.165.514.07.146.154.26.272.34a.894.894 0 00.443.15c.179.017.406-.004.684-.058.116-.025.227-.053.336-.088.108-.034.217-.07.332-.104l-.165-.81c-.07.033-.141.058-.214.076a3.07 3.07 0 01-.22.05.768.768 0 01-.283.016.297.297 0 01-.177-.096.445.445 0 01-.107-.187 2.642 2.642 0 01-.073-.284l-.518-2.535.946-.194-.162-.782-.944.193-.292-1.425-1.048.214.291 1.425-.792.163.16.781zM54.555 13.908c-.016.11-.039.207-.067.291a.81.81 0 01-.109.226.476.476 0 01-.184.16.816.816 0 01-.304.084c-.084.009-.169.015-.252.007a5.525 5.525 0 00-.257-.011l.11.895c.245.008.493-.004.74-.036.282-.032.505-.105.674-.217.17-.111.306-.252.408-.419.101-.165.184-.355.244-.563.058-.21.12-.428.18-.657l1.254-5.304-1.11.135-.78 3.745-.02.003-1.696-3.444-1.164.14 2.408 4.579-.075.386zM62.069 7.907l.018.002 1.524 5.278.965.062 2.185-5.043.017.002-.329 5.16 1.115.07.426-6.685-1.629-.105-2.132 5.122-.019-.002-1.51-5.353-1.649-.107-.428 6.688 1.115.071zM69.785 12.198a.61.61 0 01.235-.193.98.98 0 01.304-.08c.113-.012.223-.016.34-.012.24.004.48.017.717.045.238.026.446.002.628-.07l-.16.781a.727.727 0 01-.207.394c-.1.1-.22.173-.353.222a1.318 1.318 0 01-.415.077 1.685 1.685 0 01-.689-.12 1.218 1.218 0 01-.293-.16.762.762 0 01-.206-.238.451.451 0 01-.041-.316.783.783 0 01.14-.33m-.918 1.306c.126.143.282.267.468.365.184.097.385.167.599.212.281.058.585.071.906.04.321-.03.606-.125.858-.284 0 .221.06.392.182.506.124.115.29.194.509.239a3.116 3.116 0 00.347.032c.064-.002.127-.002.188-.006s.112-.01.152-.013l.146-.725a.637.637 0 01-.152-.013 1.946 1.946 0 00-.11-.022c-.097-.02-.157-.06-.177-.122-.027-.064-.023-.158.004-.287l.495-2.446a1.171 1.171 0 00-.034-.674 1.312 1.312 0 00-.35-.514 2.001 2.001 0 00-.562-.366 3.518 3.518 0 00-.674-.214 4.213 4.213 0 00-.788-.083 1.96 1.96 0 00-.728.122c-.226.081-.42.209-.592.387-.17.175-.294.413-.377.717l1.048.214c.078-.253.225-.422.439-.507.214-.082.47-.094.764-.035.105.02.212.05.326.091.113.038.212.09.299.158a.643.643 0 01.199.244c.048.1.058.218.03.351-.032.154-.094.263-.186.323a.689.689 0 01-.346.105c-.14.01-.298.004-.473-.013a5.178 5.178 0 00-.559-.034c-.225-.02-.45-.03-.677-.028a1.98 1.98 0 00-.635.105c-.197.07-.366.186-.512.35-.145.16-.246.39-.306.682-.049.233-.043.445.007.639.055.191.143.36.272.504M75.443 12.334c.053-.17.132-.317.233-.449.103-.133.216-.236.347-.317.132-.08.274-.131.432-.148.156-.02.321-.002.496.054.304.098.499.25.593.46.09.208.082.5-.025.865l-.927 2.906 1.021.324 1.012-3.173c.169-.524.148-.963-.06-1.32-.209-.355-.567-.614-1.072-.775a1.704 1.704 0 00-.903-.047 1.793 1.793 0 00-.797.41l-.012-.023.214-.682-.964-.307-1.476 4.62 1.02.327.868-2.725zM79.786 15.483a.806.806 0 01.204-.295.648.648 0 01.274-.135c.1-.02.203-.026.314-.015.11.013.223.03.334.058.235.056.464.122.69.199.228.077.436.1.628.07l-.321.728a.724.724 0 01-.286.341 1.054 1.054 0 01-.394.14 1.323 1.323 0 01-.422-.014 1.663 1.663 0 01-.648-.266 1.248 1.248 0 01-.253-.22.74.74 0 01-.147-.276.442.442 0 01.027-.315m-.97.786a1.7 1.7 0 00.38.454c.158.134.336.248.54.338a3.2 3.2 0 00.874.235c.32.037.623.007.899-.096-.047.218-.027.394.071.533.096.14.244.252.445.342.04.019.09.035.146.056.064.019.124.038.184.049a2.512 2.512 0 00.338.058l.299-.68a.693.693 0 01-.145-.043 2.574 2.574 0 00-.103-.045c-.094-.043-.141-.093-.15-.16-.008-.065.015-.157.065-.279l1.012-2.282c.105-.235.143-.456.11-.665a1.366 1.366 0 00-.232-.58 2.053 2.053 0 00-.471-.474 3.199 3.199 0 00-.612-.353 4.057 4.057 0 00-.75-.252 2.056 2.056 0 00-.738-.037 1.571 1.571 0 00-.661.25 1.623 1.623 0 00-.52.62l.976.434c.131-.229.308-.362.537-.4.227-.035.478.008.752.128.1.045.198.098.3.16.104.063.19.137.26.217.07.083.116.177.139.284a.54.54 0 01-.045.347c-.066.144-.147.235-.248.276a.762.762 0 01-.364.03 2.69 2.69 0 01-.458-.117 5.248 5.248 0 00-.537-.15 6.928 6.928 0 00-.659-.174 1.918 1.918 0 00-.642-.032c-.206.024-.396.1-.572.229-.178.126-.327.328-.447.6a1.393 1.393 0 00-.13.627c.012.2.066.383.156.552M84.813 17.297c.053-.191.13-.371.231-.546.102-.173.22-.336.36-.49.141-.154.295-.274.462-.362.164-.088.344-.133.535-.139.19-.004.39.053.595.17.201.117.351.256.449.416.101.157.158.328.17.51.014.182-.007.37-.061.561a2.63 2.63 0 01-.604 1.053 1.71 1.71 0 01-.468.359c-.17.084-.35.13-.542.131a1.19 1.19 0 01-.597-.18 1.095 1.095 0 01-.428-.413 1.21 1.21 0 01-.158-.512 1.627 1.627 0 01.056-.558m-1.101.639c.035.292.135.566.304.818.169.251.42.477.754.672.261.152.54.227.841.229.3 0 .582-.08.847-.237l.017.012-.372.64c-.203.345-.443.557-.723.641-.281.085-.606.02-.98-.198a3.048 3.048 0 01-.33-.218.994.994 0 01-.242-.261.801.801 0 01-.122-.327.814.814 0 01.047-.396l-.927-.537a1.45 1.45 0 00-.147.74c.025.236.092.458.209.663.114.206.268.39.456.557.188.169.386.313.599.435.666.389 1.266.528 1.8.423.536-.105.987-.475 1.355-1.108l2.308-3.975-.923-.539-.334.578-.015-.009a1.326 1.326 0 00-.21-.822 1.81 1.81 0 00-.635-.59 2.084 2.084 0 00-.895-.294 2.047 2.047 0 00-.864.113 2.363 2.363 0 00-.762.45 2.864 2.864 0 00-.596.73 3.773 3.773 0 00-.39.91 2.309 2.309 0 00-.07.9M90.508 19.092a1.37 1.37 0 01.453-.175 1.26 1.26 0 01.48.015c.164.042.317.115.47.224.146.11.257.236.332.38.077.145.12.297.137.451.013.154-.002.312-.047.473a1.82 1.82 0 01-.205.458l-2.006-1.483c.112-.144.24-.257.386-.343m-1.993.978a2.28 2.28 0 00-.11.921c.031.303.125.59.29.867.16.274.394.526.702.751.212.156.438.276.674.362a2.018 2.018 0 001.42.006c.236-.082.455-.214.656-.392l-.816-.603c-.237.162-.472.24-.704.235-.235-.006-.475-.101-.727-.285a1.316 1.316 0 01-.398-.441 1.139 1.139 0 01-.139-.492c-.007-.171.02-.34.081-.513.06-.172.147-.336.257-.486l2.872 2.117c.25-.264.441-.563.569-.89.131-.328.191-.658.187-.988a2.26 2.26 0 00-.232-.958 2.163 2.163 0 00-.684-.803 2.244 2.244 0 00-.908-.413 2.259 2.259 0 00-.925.011c-.302.068-.59.196-.864.378-.27.184-.508.416-.713.69a3.241 3.241 0 00-.488.926M92.596 24.94l2.005-2.07c.14-.142.285-.25.437-.32.15-.072.298-.111.441-.12a1 1 0 01.758.277c.235.225.334.443.304.65-.033.21-.167.435-.401.68l-2.168 2.236.768.744 1.978-2.042c.289-.297.569-.47.843-.519.272-.048.54.055.8.306.147.143.243.28.284.408a.632.632 0 01.008.377c-.04.126-.107.25-.21.372a6.92 6.92 0 01-.357.394l-1.97 2.036.767.745 2.33-2.406c.41-.422.602-.824.57-1.201-.03-.377-.23-.743-.599-1.102-.255-.25-.52-.403-.79-.465a2.173 2.173 0 00-.862-.013c.113-.273.126-.545.036-.813a1.734 1.734 0 00-.452-.713 1.995 1.995 0 00-.413-.318 1.662 1.662 0 00-.402-.157 1.372 1.372 0 00-.401-.038 2.534 2.534 0 00-.419.055l-.019-.021.47-.486-.727-.704-3.377 3.484.768.745zM100.654 28.513c.163-.045.324-.06.484-.045.16.013.312.062.456.14.146.082.278.194.394.34.113.145.188.297.218.457.036.161.04.315.013.47a1.37 1.37 0 01-.17.444c-.087.142-.192.27-.32.384l-1.539-1.96c.145-.11.3-.187.464-.23m-2.183.413a2.245 2.245 0 00-.35.86c-.05.3-.035.602.05.912.084.308.242.612.476.912.164.206.346.383.554.53.203.142.42.247.651.313.231.067.47.088.717.071.248-.02.492-.09.736-.208l-.629-.796c-.27.092-.516.105-.737.037-.226-.065-.432-.223-.627-.469a1.342 1.342 0 01-.267-.53 1.133 1.133 0 01-.002-.513c.036-.164.107-.32.212-.471.11-.15.233-.282.381-.396l2.202 2.802c.314-.19.574-.426.788-.708.21-.283.359-.584.443-.903.081-.319.092-.645.03-.985a2.165 2.165 0 00-.448-.955 2.208 2.208 0 00-1.658-.875 2.526 2.526 0 00-.932.137c-.31.103-.601.263-.871.475-.295.23-.535.484-.72.76M101.066 34.734l2.427-1.516c.148-.092.302-.16.467-.192.162-.037.32-.041.47-.019.152.025.292.08.426.167.133.089.244.207.341.36.17.273.22.517.154.737-.067.217-.257.431-.574.645l-2.587 1.616.565.907 2.827-1.765c.465-.29.736-.64.807-1.047.071-.403-.036-.833-.317-1.284a1.671 1.671 0 00-.657-.617 1.796 1.796 0 00-.875-.208l.006-.025.604-.379-.537-.86-4.116 2.574.57.906zM104.908 39.09c.068-.044.154-.093.253-.144l2.307-1.175.44.862.71-.362-.437-.862 1.295-.659-.484-.953-1.299.659-.366-.72-.711.361.368.72-2.55 1.298a2.658 2.658 0 00-.45.3.765.765 0 00-.257.35.87.87 0 00-.026.467c.03.176.109.39.237.642.052.107.112.206.172.3.062.096.128.193.194.293l.733-.374c-.05-.06-.093-.12-.13-.186-.037-.067-.074-.133-.106-.199a.743.743 0 01-.09-.27.323.323 0 01.041-.195.548.548 0 01.156-.152M109.13 42.938c-.053.22-.072.479-.05.776.027.478.057.88.085 1.205.022.324.034.613.026.867a.977.977 0 01-.122.44c-.079.149-.24.267-.482.348a.962.962 0 01-.376.047.833.833 0 01-.383-.126 1.33 1.33 0 01-.362-.347 2.239 2.239 0 01-.293-.593 2.703 2.703 0 01-.135-.653 1.518 1.518 0 01.07-.593 1.18 1.18 0 01.302-.488c.146-.141.34-.254.584-.335l-.376-1.113c-.39.137-.704.327-.946.567a2.118 2.118 0 00-.512.807 2.5 2.5 0 00-.128.973 4.136 4.136 0 00.634 1.956c.173.277.384.508.624.69.238.184.51.306.81.368.3.058.63.028.986-.09a1.782 1.782 0 00.863-.633c.11-.152.194-.324.254-.516.06-.193.09-.402.084-.632l-.026-.453-.045-.644c-.015-.22-.028-.416-.036-.596l-.019-.304a1.45 1.45 0 01.102-.646c.082-.18.234-.312.462-.387a.707.707 0 01.437-.022c.13.035.246.101.349.193.096.092.184.203.257.33.071.126.132.256.175.385.13.387.152.732.067 1.038-.086.306-.326.544-.728.711l.377 1.11c.329-.111.6-.274.807-.49.21-.216.364-.462.458-.743.098-.28.143-.58.13-.905a3.559 3.559 0 00-.19-.982 3.572 3.572 0 00-.394-.807 2.492 2.492 0 00-.595-.632 1.892 1.892 0 00-.76-.333 1.733 1.733 0 00-.9.081 1.838 1.838 0 00-.466.231c-.145.1-.269.225-.378.38a1.704 1.704 0 00-.242.56M113.04 52.125l-.238-1.092-3.799-.432-.003-.019 3.271-2.006-.25-1.147-4.333 2.823-.393-.04c-.11-.007-.21-.02-.298-.04a.91.91 0 01-.235-.087.522.522 0 01-.174-.171.827.827 0 01-.11-.291 1.337 1.337 0 01-.033-.253c-.004-.085-.01-.17-.013-.256l-.88.19c.015.246.049.494.101.738.062.274.154.49.282.647.125.16.277.282.454.37.176.086.37.15.584.188.214.043.435.078.668.12l5.4.758zM111.904 53.054c-.244.03-.443.096-.597.201-.154.107-.276.24-.368.396-.086.16-.152.334-.191.526-.043.19-.073.386-.094.589-.02.2-.04.394-.052.586-.017.19-.044.362-.077.514-.038.15-.094.278-.17.38a.482.482 0 01-.32.19.468.468 0 01-.342-.06.69.69 0 01-.223-.251 1.503 1.503 0 01-.13-.351 2.444 2.444 0 01-.062-.336c-.033-.285.002-.54.102-.758.1-.22.302-.363.61-.43l-.122-1.063c-.286.04-.526.126-.721.258a1.529 1.529 0 00-.471.508 2.02 2.02 0 00-.235.706 3.432 3.432 0 00.167 1.603c.085.248.203.467.351.662.147.194.329.346.545.453.212.107.463.144.747.11.236-.026.431-.093.583-.202.15-.11.269-.244.359-.402a1.88 1.88 0 00.195-.527c.04-.195.071-.389.092-.588.02-.202.038-.401.054-.591.017-.193.042-.364.077-.516.036-.152.09-.276.16-.377a.413.413 0 01.302-.173c.105-.01.193.01.265.066a.573.573 0 01.176.212c.045.084.08.18.103.278.025.103.04.191.05.264.027.237.009.452-.057.646-.066.191-.223.33-.473.409l.128 1.107c.262-.062.484-.163.66-.307.175-.143.312-.314.41-.51a1.99 1.99 0 00.183-.645 3.008 3.008 0 00-.005-.722 3.615 3.615 0 00-.143-.678 2.082 2.082 0 00-.304-.625 1.42 1.42 0 00-.486-.435 1.092 1.092 0 00-.676-.117M112.885 58.531l-2.862.1c-.2.013-.378.039-.532.08a.808.808 0 00-.384.209.93.93 0 00-.218.413 2.382 2.382 0 00-.056.68c.003.121.015.235.03.348l.05.345.824-.028a1.573 1.573 0 01-.04-.225c-.007-.075-.008-.15-.012-.225a.806.806 0 01.032-.282.311.311 0 01.122-.16.49.49 0 01.202-.07 1.8 1.8 0 01.293-.025l2.588-.092.034.967.798-.028-.036-.965 1.455-.05-.04-1.07-1.45.05-.03-.805-.798.026.03.807zM112.828 64.13c-.08.143-.182.265-.3.361-.122.098-.261.173-.419.225a1.69 1.69 0 01-.493.083l.12-2.493c.182.015.349.06.503.134.154.073.285.167.394.281a1.22 1.22 0 01.325.922c-.008.182-.051.345-.13.488m.295-2.194a2.49 2.49 0 00-.792-.507 2.945 2.945 0 00-.97-.214 3.314 3.314 0 00-1.04.105 2.237 2.237 0 00-.83.42 2.11 2.11 0 00-.561.72 2.617 2.617 0 00-.237 1.003 2.67 2.67 0 00.072.759c.06.246.155.467.285.666.133.203.298.375.497.526.2.146.428.253.687.322l.05-1.013c-.262-.103-.459-.257-.581-.454-.128-.197-.18-.453-.167-.766.013-.224.06-.417.146-.575.087-.16.2-.287.334-.388a1.38 1.38 0 01.47-.216c.18-.043.36-.062.548-.052l-.173 3.56c.36.062.711.056 1.059-.019.343-.073.65-.202.925-.39.272-.186.494-.428.668-.723a2.18 2.18 0 00.291-1.015 2.294 2.294 0 00-.158-.986 2.329 2.329 0 00-.523-.763M108.522 67.406l2.835.528c.195.037.366.099.506.187.143.087.26.186.348.302.086.115.142.24.178.378a.954.954 0 01.007.405c-.06.321-.184.524-.375.614-.191.088-.452.101-.788.04l-3.062-.571-.195 1.05 2.795.523c.407.075.704.214.897.414.192.203.255.48.186.837-.036.203-.096.357-.18.464a.602.602 0 01-.312.212c-.126.04-.266.049-.426.032a7.627 7.627 0 01-.524-.079l-2.789-.52-.193 1.051 3.294.614c.574.109 1.015.045 1.314-.188.296-.234.495-.604.59-1.107.065-.35.046-.659-.051-.918a2.184 2.184 0 00-.466-.726c.29-.055.522-.193.7-.419.175-.225.287-.482.344-.771a2.1 2.1 0 00.033-.516 1.53 1.53 0 00-.28-.781 2.534 2.534 0 00-.275-.315l.005-.03.665.123.186-.996-4.77-.888-.197 1.051zM48.21 106.468a2.813 2.813 0 00-.68-.714 3.463 3.463 0 00-.927-.476 3.379 3.379 0 00-1.38-.179 2.913 2.913 0 00-1.2.38c-.365.208-.684.49-.956.844a4.026 4.026 0 00-.648 1.231 3.964 3.964 0 00-.217 1.344c.01.441.095.854.259 1.232.165.38.41.72.74 1.015.326.295.73.522 1.21.683.385.128.756.188 1.117.179a2.547 2.547 0 001.011-.228c.316-.138.599-.345.85-.611.25-.267.462-.592.626-.969l-1.331-.447c-.194.404-.453.693-.775.873-.321.177-.695.193-1.115.055-.308-.106-.552-.254-.729-.443a1.601 1.601 0 01-.366-.655c-.067-.244-.09-.5-.067-.77a3.417 3.417 0 01.524-1.563c.146-.237.32-.434.521-.59.205-.156.434-.259.687-.308.257-.048.54-.017.852.087a1.495 1.495 0 01.987 1.066c.038.16.04.32.014.488l1.332.446c.08-.377.089-.732.023-1.066a2.485 2.485 0 00-.362-.904M50.134 110.271c.027-.09.066-.19.12-.296a.951.951 0 01.24-.29.939.939 0 01.382-.193c.148-.041.324-.041.53 0 .314.062.532.197.65.396.122.201.177.471.171.81l-2.093-.427zm2.502-1.297a2.255 2.255 0 00-.995-.445 2.453 2.453 0 00-1.011-.007c-.321.067-.61.19-.864.366a2.332 2.332 0 00-.649.683 2.83 2.83 0 00-.372.944 2.922 2.922 0 00-.035 1.032c.05.323.156.616.315.875.161.257.377.477.651.655.27.178.59.304.961.381.531.109 1.008.079 1.43-.086.425-.165.785-.509 1.078-1.033l-1.13-.232c-.071.137-.214.25-.43.341-.214.09-.448.111-.707.059-.365-.074-.624-.226-.777-.45-.156-.23-.2-.553-.132-.97l3.377.688c.1-.359.139-.71.122-1.06a2.54 2.54 0 00-.231-.971 2.11 2.11 0 00-.6-.77zM57.345 109.362a1.556 1.556 0 00-.486.02 1.707 1.707 0 00-.85.44c-.119.114-.216.24-.295.379l-.017-.002.1-.88-1.24-.141-.538 4.749 1.305.148.242-2.142c.024-.212.067-.41.131-.589.064-.178.154-.33.272-.458.115-.128.261-.22.434-.282.176-.06.383-.077.621-.048.079.009.162.02.246.04.084.02.158.04.218.057l.135-1.212a1.079 1.079 0 00-.278-.08M59.792 108.18l-1.31-.059-.064 1.43-.794-.031-.04.874.795.036-.124 2.817c-.011.239.02.438.094.588a.86.86 0 00.313.355c.135.088.293.148.471.183.182.034.376.057.578.066.128.008.261.008.396.01.137 0 .261-.008.372-.021l.045-1.015a2.033 2.033 0 01-.41.019c-.219-.01-.365-.055-.436-.13-.072-.077-.102-.227-.09-.449l.103-2.367.959.045.041-.878-.96-.041.061-1.432zM62.602 107.802l-1.312.017.015 1.081 1.312-.019zM61.313 109.639l.06 4.78 1.312-.017-.06-4.78zM66.134 109.42l-.903.06-.018-.283c-.015-.199.015-.34.084-.428.071-.09.195-.14.375-.152.166-.01.327-.013.483-.003l-.068-.978h-.343c-.119-.002-.235.003-.353.01-.535.037-.925.198-1.171.487-.244.291-.353.644-.323 1.07l.024.368-.784.054.06.875.784-.05.265 3.89 1.308-.09-.263-3.893.903-.062-.06-.874zM66.65 109.35l.583 4.742 1.302-.16-.583-4.743zM67.729 107.382l-1.303.162.132 1.071 1.302-.16zM70.392 110.387a.999.999 0 01.38-.685c.123-.098.284-.166.49-.21.314-.065.566-.027.753.11.19.137.348.362.473.676l-2.09.43a1.488 1.488 0 01-.006-.321m2.194 1.756c-.161.166-.37.278-.63.33-.363.074-.661.038-.892-.11-.231-.148-.398-.43-.501-.84l3.378-.692a3.368 3.368 0 00-.304-1.023 2.61 2.61 0 00-.591-.803 2.121 2.121 0 00-.858-.471 2.245 2.245 0 00-1.087-.019c-.358.075-.67.201-.934.39a2.34 2.34 0 00-.652.674 2.349 2.349 0 00-.33.883c-.052.326-.041.666.028 1.013.075.362.2.683.372.963.173.28.385.507.634.681.25.177.533.293.854.351.321.059.665.047 1.033-.028.53-.109.96-.32 1.285-.638.325-.32.52-.777.586-1.374l-1.13.231c-.013.152-.1.313-.26.482M78.094 109.802c.024.188.015.362-.025.527a.99.99 0 01-.221.438c-.11.123-.268.221-.477.285a.953.953 0 01-.537.036 1.158 1.158 0 01-.45-.226 1.48 1.48 0 01-.351-.405 2.72 2.72 0 01-.233-.51 2.583 2.583 0 01-.114-.558 1.506 1.506 0 01.034-.524c.043-.161.12-.306.234-.431.115-.13.274-.226.48-.291a.977.977 0 01.984.172c.126.105.237.239.327.398a2.94 2.94 0 01.349 1.089zm-1.453-4.546l.738 2.29-.019.005a1.394 1.394 0 00-.738-.319 1.848 1.848 0 00-.827.077 1.948 1.948 0 00-.815.48c-.21.213-.362.457-.46.727-.097.27-.142.56-.137.873.006.312.06.621.158.927.103.315.242.608.422.875.18.264.39.482.63.655.241.174.51.283.812.332.3.047.62.017.959-.092.3-.096.55-.236.754-.424.201-.182.336-.42.406-.719l.015-.002.19.58 1.186-.383-2.024-6.282-1.25.4z"/><path d="M45.556 63.473H42.9V50.42h2.656V45.55h-10.65v4.87h2.686v13.053h-2.686v4.876h10.65zM59.583 54.773l-3.273-.53c-2.859-.474-3.097-1.367-3.097-2.167 0-1.903 2.055-2.186 3.28-2.186 2.384 0 3.976.953 5.157 3.095l.223.403h4.675V45.55h-4.78v.946c-1.436-.938-3.266-1.415-5.464-1.415-5.216 0-8.587 2.82-8.587 7.181 0 3.716 2.465 6.143 6.926 6.832l4.101.687c1.78.282 2.68.987 2.68 2.102 0 1.314-1.599 1.903-3.183 1.903-3.03 0-4.332-1.114-6.107-3.609l-.235-.328h-4.685v8.498h5.064v-1.252c1.582 1.123 3.6 1.692 6.023 1.692 5.28 0 8.56-2.716 8.56-7.091 0-2.613-1.262-5.935-7.278-6.923M79.894 63.725c-3.64 0-6.492-2.976-6.492-6.777 0-3.8 2.853-6.776 6.492-6.776 3.626 0 6.464 2.975 6.464 6.776 0 3.8-2.838 6.777-6.464 6.777m-.032-18.613c-6.524 0-11.834 5.308-11.834 11.836 0 6.524 5.31 11.838 11.834 11.838 6.53 0 11.84-5.314 11.84-11.838 0-6.528-5.31-11.836-11.84-11.836"/><path d="M45.112 86.204c.255-.19.533-.38.834-.571.3-.188.6-.39.9-.599.3-.21.59-.435.871-.675.28-.24.532-.505.751-.789.22-.287.396-.599.526-.938.131-.342.195-.721.195-1.143 0-.338-.055-.699-.165-1.074a2.922 2.922 0 00-.563-1.043 3.088 3.088 0 00-1.042-.794c-.432-.212-.969-.316-1.609-.316-.589 0-1.109.102-1.554.308a3.264 3.264 0 00-1.133.848 3.534 3.534 0 00-.699 1.282 5.364 5.364 0 00-.232 1.616h1.711c.01-.371.047-.717.113-1.036.066-.32.165-.598.3-.833.136-.235.316-.422.541-.556.225-.137.509-.204.848-.204.372 0 .67.064.901.19.231.123.411.28.54.465.13.186.219.385.264.599.045.217.067.418.067.61-.01.409-.116.773-.315 1.088-.201.316-.454.608-.766.877-.31.272-.651.525-1.021.76-.372.235-.726.479-1.066.726-.711.48-1.27 1.048-1.682 1.699-.41.65-.62 1.411-.63 2.28h7.177V87.45h-5.118c.069-.23.198-.447.39-.653a4.85 4.85 0 01.666-.593M50.285 80.003h5.45c-.54.61-1.045 1.267-1.516 1.967-.47.702-.884 1.432-1.24 2.192-.354.76-.645 1.547-.87 2.36a12.537 12.537 0 00-.428 2.46h1.877c.07-.952.21-1.841.42-2.673.21-.83.485-1.62.819-2.363.336-.747.728-1.453 1.178-2.117.45-.668.952-1.31 1.502-1.931v-1.425h-7.192v1.53zM64.114 85.289c-.06.49-.163.918-.308 1.284a2.182 2.182 0 01-.59.869c-.252.217-.562.323-.934.323-.38 0-.694-.106-.938-.323a2.212 2.212 0 01-.586-.87 5.237 5.237 0 01-.308-1.283c-.06-.492-.09-1.012-.09-1.562s.03-1.068.09-1.554.164-.912.308-1.284c.145-.37.342-.662.586-.88.244-.214.557-.32.938-.32.372 0 .682.106.933.32.248.218.447.51.591.88.145.372.248.798.308 1.284s.09 1.004.09 1.554-.03 1.07-.09 1.562m1.119-5.19a3.56 3.56 0 00-1.111-1.32c-.475-.345-1.089-.517-1.84-.517-.75 0-1.364.172-1.84.518a3.577 3.577 0 00-1.11 1.32 5.965 5.965 0 00-.54 1.765 12.607 12.607 0 00-.143 1.862c0 .599.047 1.22.142 1.862.096.64.276 1.228.54 1.765.267.534.637.976 1.112 1.32.475.344 1.089.519 1.84.519.75 0 1.364-.175 1.839-.518a3.565 3.565 0 001.11-1.321 5.953 5.953 0 00.541-1.765c.096-.642.143-1.263.143-1.862 0-.6-.047-1.22-.143-1.862a5.965 5.965 0 00-.54-1.766M72.463 85.289c-.06.49-.163.918-.308 1.284a2.182 2.182 0 01-.59.869c-.252.217-.562.323-.934.323-.38 0-.694-.106-.938-.323a2.212 2.212 0 01-.586-.87 5.237 5.237 0 01-.308-1.283c-.06-.492-.09-1.012-.09-1.562s.03-1.068.09-1.554.164-.912.308-1.284c.145-.37.342-.662.586-.88.244-.214.557-.32.938-.32.372 0 .682.106.933.32.248.218.447.51.591.88.145.372.248.798.308 1.284s.09 1.004.09 1.554-.03 1.07-.09 1.562m1.119-5.19a3.56 3.56 0 00-1.111-1.32c-.475-.345-1.089-.517-1.84-.517-.75 0-1.364.172-1.84.518a3.577 3.577 0 00-1.11 1.32 5.965 5.965 0 00-.54 1.765 12.607 12.607 0 00-.143 1.862c0 .599.046 1.22.142 1.862.096.64.276 1.228.54 1.765.267.534.637.976 1.112 1.32.475.344 1.088.519 1.84.519.75 0 1.364-.175 1.839-.518a3.565 3.565 0 001.11-1.321 5.953 5.953 0 00.541-1.765c.096-.642.143-1.263.143-1.862 0-.6-.047-1.22-.143-1.862a5.965 5.965 0 00-.54-1.766M78.28 79.282c-.194.22-.429.4-.705.54-.274.14-.584.241-.923.301-.34.058-.69.09-1.051.09v1.352h2.582v7.417h1.877v-10.51h-1.396c-.06.319-.188.59-.383.81" stroke="#FFF" stroke-width=".4"/><path d="M74.407 36.789c-.043-.078-.057-.154-.104-.18-.841-.473-1.662-.984-2.536-1.397-.931-.44-1.904-.807-2.876-1.166a6.707 6.707 0 00-1.444-.351c-.19-.025-.411.162-.618.253.116.122.212.27.352.36.893.588 1.82 1.134 2.689 1.75.742.526 1.417 1.133 2.133 1.693.095.075.293.148.377.107.679-.338 1.342-.703 2.027-1.069zm-26.87-.052c.158.13.233.214.33.265.504.264 1.028.499 1.517.784.337.198.555.126.818-.112a25.719 25.719 0 013.748-2.785c.425-.262.843-.532 1.272-.803-.443-.506-.91-.432-1.463-.246-1.401.472-2.785.972-4.075 1.669-.71.383-1.4.798-2.148 1.228zm8.466-3.381c.957.826 2.187 1.153 3.436 1.37 2.197.381 6.082-.496 6.539-1.426-3.31-.7-6.617-.658-9.975.056zm1.504 1.824c-.06-.05-.11-.116-.18-.144-.273-.108-.577-.167-.821-.315-.23-.138-.372-.088-.57.027-.623.364-1.295.665-1.88 1.074-1.049.733-2.052 1.523-3.067 2.297-.21.16-.25.291.094.396.878.267 1.737.588 2.614.857.715.219.717.196 1.056-.276.875-1.215 1.755-2.425 2.63-3.64.05-.068.071-.156.124-.276zm6.904-.042c.073.127.125.24.197.342a645.932 645.932 0 002.702 3.755c.07.096.219.222.311.21a7.23 7.23 0 001.195-.248c.665-.21 1.317-.453 1.967-.7.547-.208.467-.273.15-.545-1.43-1.227-2.979-2.309-4.694-3.171-.202-.102-.49-.184-.694-.13-.382.1-.731.307-1.134.487zm2.093 4.59c-.172-.323-.26-.555-.406-.75a216.485 216.485 0 00-2.542-3.349c-.073-.093-.276-.151-.412-.141-.539.038-1.076.109-1.619.169v4.63c1.707.021 3.328-.232 4.98-.56zm-5.994-4.096c-.51-.055-1.019-.042-1.475-.18-.348-.104-.51 0-.692.202-1.061 1.182-1.938 2.48-2.775 3.802-.114.18-.066.346.198.38.867.109 1.734.214 2.6.324.118.015.234.057.351.064.593.033 1.187.058 1.793.086v-4.678zm7.401 4.662l.74 1.574c-.642.19-.797.136-1.06-.325-.103-.18-.216-.354-.312-.537-.235-.442-.437-.523-1.015-.397-.41.09-.816.2-1.232.257-.592.08-1.191.121-1.788.175-.57.051-1.139.098-1.737.15l-.038.761c-.168 0-.336-.01-.502.003-.308.024-.46-.077-.417-.382.055-.38-.169-.508-.54-.508-.268 0-.54.007-.805-.023-1.185-.136-2.37-.267-3.55-.436-.575-.082-.705-.057-.976.442-.083.152-.182.296-.262.45-.264.51-.397.566-1.066.398l.688-1.574c-.536-.162-1.057-.31-1.57-.478a85.793 85.793 0 01-2.01-.693c-.286-.103-.532-.1-.737.142a444.1 444.1 0 01-2.096 2.448c-.076.089-.18.192-.289.215-.206.043-.425.032-.638.044.049-.173.05-.378.154-.514.684-.89 1.381-1.77 2.098-2.638.155-.188.13-.25-.071-.353-.643-.332-1.27-.69-1.922-1.004-.125-.06-.37-.022-.498.058-1.084.673-2.008 1.516-2.856 2.428-.55.592-1.058 1.216-1.593 1.82-.284.32-.648.115-1.011.145 4.49-6.612 13.055-10.653 22.513-9.838 5.32.458 9.99 2.45 13.937 5.82 1.773 1.515 3.443 3.428 3.55 3.961-.603.147-.784.096-1.152-.355a24.219 24.219 0 00-3.383-3.39 3.367 3.367 0 00-.34-.253c-.301-.19-.602-.509-.916-.522-.312-.014-.643.276-.959.444-.314.168-.612.36-.93.522-.497.253-.47.227-.106.646.81.932 1.583 1.89 2.398 2.87-.754.212-.94.142-1.311-.304-.665-.8-1.35-1.585-2.034-2.37-.137-.158-.252-.238-.546-.123-1.017.4-2.067.726-3.108 1.072-.218.073-.448.11-.702.172zM74.407 77.211c-.043.078-.057.154-.104.18-.841.473-1.662.984-2.536 1.397-.931.44-1.904.807-2.876 1.166-.46.17-.954.287-1.444.351-.19.025-.411-.162-.618-.253.116-.122.212-.27.352-.36.893-.588 1.82-1.134 2.689-1.75.742-.526 1.417-1.133 2.133-1.693.095-.075.293-.148.377-.107.679.338 1.342.703 2.027 1.069zm-26.87.052c.158-.13.233-.214.33-.265.504-.264 1.028-.499 1.517-.784.337-.198.555-.126.818.112a25.719 25.719 0 003.748 2.785c.425.262.843.532 1.272.803-.443.506-.91.432-1.463.246-1.401-.472-2.785-.972-4.075-1.669-.71-.383-1.4-.798-2.148-1.228zm8.466 3.381c.957-.826 2.187-1.153 3.436-1.37 2.197-.381 6.082.496 6.539 1.426-3.31.7-6.617.658-9.975-.056zm1.504-1.824c-.06.05-.11.116-.18.144-.273.108-.577.167-.821.315-.23.138-.372.088-.57-.027-.623-.364-1.295-.665-1.88-1.074-1.049-.733-2.052-1.523-3.067-2.297-.21-.16-.25-.291.094-.396.878-.267 1.737-.588 2.614-.857.715-.219.717-.196 1.056.276.875 1.215 1.755 2.425 2.63 3.64.05.068.071.156.124.276zm6.904.042c.073-.127.125-.24.197-.342a645.932 645.932 0 012.702-3.755c.07-.096.219-.222.311-.21.404.056.81.127 1.195.248.665.21 1.317.453 1.967.7.547.208.467.273.15.545-1.43 1.227-2.979 2.309-4.694 3.171-.202.102-.49.184-.694.13-.382-.1-.731-.307-1.134-.487zm2.093-4.59c-.172.323-.26.555-.406.75a216.485 216.485 0 01-2.542 3.349c-.073.093-.276.151-.412.141-.539-.038-1.076-.109-1.619-.169v-4.63c1.707-.021 3.328.232 4.98.56zm-5.994 4.096c-.51.055-1.019.042-1.475.18-.348.104-.51 0-.692-.202-1.061-1.182-1.938-2.48-2.775-3.802-.114-.18-.066-.346.198-.38.867-.109 1.734-.214 2.6-.324.118-.015.234-.057.351-.064.593-.033 1.187-.058 1.793-.086v4.678zm7.401-4.662l.74-1.574c-.642-.19-.797-.136-1.06.325-.103.18-.216.354-.312.537-.235.442-.437.523-1.015.397-.41-.09-.816-.2-1.232-.257-.592-.08-1.191-.121-1.788-.175-.57-.051-1.139-.098-1.737-.15l-.038-.761c-.168 0-.336.01-.502-.003-.308-.024-.46.077-.417.382.055.38-.169.508-.54.508-.268 0-.54-.007-.805.023-1.185.136-2.37.267-3.55.436-.575.082-.705.057-.976-.442-.083-.152-.182-.296-.262-.45-.264-.51-.397-.566-1.066-.398l.688 1.574c-.536.162-1.057.31-1.57.478-.674.222-1.343.456-2.01.693-.286.103-.532.1-.737-.142a444.1 444.1 0 00-2.096-2.448c-.076-.089-.18-.192-.289-.215-.206-.043-.425-.032-.638-.044.049.173.05.378.154.514.684.89 1.381 1.77 2.098 2.638.155.188.13.25-.071.353-.643.332-1.27.69-1.922 1.004-.125.06-.37.022-.498-.058-1.084-.673-2.008-1.516-2.856-2.428-.55-.592-1.058-1.216-1.593-1.82-.284-.32-.648-.115-1.011-.145 4.49 6.612 13.055 10.653 22.513 9.838 5.32-.458 9.99-2.45 13.937-5.82 1.773-1.515 3.443-3.428 3.55-3.961-.603-.147-.784-.096-1.152.355a24.219 24.219 0 01-3.383 3.39c-.109.09-.22.177-.34.253-.301.19-.602.509-.916.522-.312.014-.643-.276-.959-.444-.314-.168-.612-.36-.93-.522-.497-.253-.47-.227-.106-.646.81-.932 1.583-1.89 2.398-2.87-.754-.212-.94-.142-1.311.304-.665.8-1.35 1.585-2.034 2.37-.137.158-.252.238-.546.123-1.017-.4-2.067-.726-3.108-1.072-.218-.073-.448-.11-.702-.172z" opacity=".517"/></g></svg>