<svg width="132" height="22" viewBox="0 0 132 22" fill="none" xmlns="http://www.w3.org/2000/svg">
<g clip-path="url(#clip0_1872_1085)">
<path d="M11.7656 0.0644531C11.8523 0.107601 11.939 0.150752 12.004 0.215475L15.7523 3.9478C15.904 4.09882 15.9906 4.29299 15.9906 4.50873V21.7249C15.9906 21.8759 15.8823 21.9838 15.7306 21.9838C15.6656 21.9838 15.6006 21.9622 15.5573 21.9191L12.0256 18.4025C11.874 18.2515 11.7873 18.0573 11.7873 17.8416V0.0644531H11.7656Z" fill="url(#paint0_linear_1872_1085)"/>
<path d="M22.0783 0.23705C22.1433 0.172328 22.23 0.107601 22.3166 0.0644531V17.8416C22.3166 18.0573 22.23 18.2515 22.0783 18.4025L18.5466 21.9191C18.4383 22.0269 18.2866 22.0269 18.1783 21.9191C18.1349 21.8759 18.1133 21.8112 18.1133 21.7465V4.53031C18.1133 4.33614 18.1999 4.1204 18.3516 3.99095L22.0783 0.23705Z" fill="url(#paint1_linear_1872_1085)"/>
<path d="M28.8816 13.9148L28.6216 13.6559V9.98828H25.0466C24.9816 9.98828 24.9166 10.0099 24.8516 10.0746L22.2949 12.6203L30.4849 20.7969C30.6366 20.948 30.8316 21.0127 31.0483 21.0127H35.36C35.5116 21.0127 35.6199 20.9048 35.6199 20.7538C35.6199 20.6891 35.5983 20.6243 35.555 20.5812L28.8816 13.9148Z" fill="url(#paint2_linear_1872_1085)"/>
<path d="M22.6215 0C22.4049 0 22.2099 0.086298 22.0582 0.237317L18.3099 3.96964C18.2449 4.03437 18.2015 4.12066 18.1582 4.18539H28.6232V13.6349L28.8832 13.8938L32.6099 10.2046C32.7616 10.0536 32.8482 9.85939 32.8482 9.64365V4.53057C32.8482 4.31483 32.7616 4.12066 32.6099 3.96964L28.8616 0.237317C28.7099 0.086298 28.5149 0 28.2982 0H22.6215Z" fill="url(#paint3_linear_1872_1085)"/>
<path d="M11.9823 0.237317C11.8306 0.0862979 11.6356 0 11.419 0H1.58227C1.4306 0 1.32227 0.107873 1.32227 0.258892C1.32227 0.323615 1.34393 0.388336 1.40893 0.453058L4.94061 3.96964C5.09227 4.12066 5.28727 4.20696 5.50394 4.20696H15.4706C15.7523 4.20696 15.9906 4.44427 15.9906 4.72474V4.53057C15.9906 4.31483 15.904 4.12066 15.7523 3.96964L11.9823 0.237317Z" fill="url(#paint4_linear_1872_1085)"/>
<path d="M22.0566 0.237317C22.2083 0.0862979 22.4033 0 22.62 0H28.2966C28.5133 0 28.7083 0.0862979 28.86 0.237317L32.6083 3.96964C32.76 4.12066 32.8466 4.31483 32.8466 4.53057V4.72474C32.8466 4.44427 32.6083 4.20696 32.3266 4.20696H18.6333C18.3516 4.20696 18.1133 4.44427 18.1133 4.72474V4.53031C18.1133 4.31456 18.1999 4.12066 18.3516 3.96964L22.0566 0.237317Z" fill="url(#paint5_linear_1872_1085)"/>
<path d="M32.8481 9.44922C32.8481 9.72968 32.6098 9.967 32.3281 9.967H25.2648C25.1998 9.967 25.1348 10.0317 25.1348 10.0964C25.1348 10.1396 25.1564 10.1612 25.1781 10.1827L28.9048 13.8935L32.6314 10.2043C32.7831 10.0533 32.8698 9.85913 32.8698 9.64339V9.44922H32.8481Z" fill="url(#paint6_linear_1872_1085)"/>
<path class="svg-text" d="M131.322 14.0666C131.322 12.2975 130.303 11.6287 127.812 11.003C126.317 10.6363 125.927 10.3342 125.927 9.81647C125.927 9.29869 126.403 8.9535 127.378 8.9535C128.462 8.99665 129.502 9.27711 130.455 9.79489L130.758 7.89637C129.697 7.44331 128.548 7.22757 127.378 7.22757C125.125 7.22757 123.803 8.371 123.803 9.96749C123.803 11.6934 124.778 12.3406 127.118 12.9231C128.743 13.3115 129.198 13.5704 129.198 14.2607C129.198 14.8864 128.57 15.2747 127.465 15.2747C126.208 15.2316 124.973 14.8648 123.89 14.1745L123.587 16.0945C124.757 16.6771 126.057 16.9791 127.357 17.0007C129.957 17.0007 131.322 15.9004 131.322 14.0666ZM122.46 16.8065V7.35702H120.163V13.7645C119.405 14.4981 118.603 14.9727 117.802 14.9727C116.87 14.9727 116.48 14.4118 116.48 13.5704V7.33544H114.183V14.1529C114.183 15.9004 115.158 16.9575 117.022 16.9575C118.322 16.9575 119.383 16.2887 120.315 15.4473L120.64 16.7633L122.46 16.8065ZM112.797 16.8065V7.35702H110.522V16.8065H112.797ZM111.67 3.21478C112.407 3.21478 112.992 3.79728 112.992 4.5308C112.992 5.26432 112.407 5.84683 111.67 5.84683C110.933 5.84683 110.348 5.26432 110.348 4.5308C110.348 3.79728 110.933 3.21478 111.67 3.21478ZM106.882 13.6567C106.21 14.4765 105.473 14.9943 104.542 14.9943C103.393 14.9943 102.548 14.1097 102.548 12.2543C102.548 10.1832 103.545 9.16924 104.888 9.16924C105.582 9.14767 106.275 9.29869 106.882 9.57915V13.6567ZM109.157 16.8065V2.76172L106.882 3.15006V7.70221C106.145 7.46489 105.365 7.33544 104.563 7.33544C102.267 7.33544 100.23 8.88878 100.23 12.3838C100.23 15.5336 101.898 17.0007 103.978 17.0007C105.365 17.0007 106.318 16.3103 107.033 15.512L107.228 16.8065H109.157ZM97.0016 14.2176C96.3516 14.8648 95.4849 15.2316 94.5749 15.2747C93.7949 15.2747 93.2966 14.8432 93.2966 14.1745C93.2966 13.2683 94.0116 12.4701 97.0233 12.1249V14.2176H97.0016ZM99.2766 16.8065V10.3774C99.2766 8.15526 98.0633 7.24915 95.5499 7.24915C94.2283 7.24915 92.9066 7.50804 91.6933 8.00424L91.9749 9.81647C93.0149 9.36341 94.1416 9.10452 95.2899 9.06137C96.3733 9.06137 97.0233 9.44971 97.0233 10.4637V10.7657C92.9933 11.1541 91.0433 12.1249 91.0433 14.3902C91.0433 16.0083 92.1699 16.9791 93.8599 16.9791C95.1166 16.9791 96.3083 16.4613 97.1749 15.5768L97.3916 16.7849H99.2766V16.8065ZM90.6533 16.4613L87.0133 11.5208C88.6599 11.003 89.7433 9.85962 89.7433 8.00424C89.7433 5.58794 87.9883 4.20719 85.0849 4.20719H81.0766V16.8065H83.4383V11.9307H84.5866L88.1399 16.9144L90.6533 16.4613ZM87.3816 8.13369C87.3816 9.44971 86.3849 10.1617 84.7816 10.1617H83.4383V6.14886H84.9116C86.5366 6.17044 87.3816 6.88239 87.3816 8.13369ZM79.8849 16.8065L79.6032 14.9295C79.3432 14.9727 79.0616 14.9943 78.7799 14.9943C77.8482 14.9943 77.4799 14.5844 77.4799 13.8077V9.19082H79.8849L79.4949 7.35702H77.4799V4.07774L75.2266 4.46608V7.35702H73.6882V9.19082H75.2266V14.1745C75.2266 16.2887 76.4832 16.9359 78.3682 16.9359C78.8882 16.9575 79.3866 16.9144 79.8849 16.8065ZM73.2116 14.0666C73.2116 12.2975 72.1932 11.6287 69.7016 11.003C68.2066 10.6363 67.8165 10.3342 67.8165 9.81647C67.8165 9.29869 68.2932 8.9535 69.2682 8.9535C70.3516 8.99665 71.3916 9.27711 72.3449 9.79489L72.6699 7.89637C71.6082 7.44331 70.4599 7.22757 69.2899 7.22757C67.0366 7.22757 65.7149 8.371 65.7149 9.96749C65.7149 11.6934 66.6899 12.3406 69.0299 12.9231C70.6549 13.3115 71.1099 13.5704 71.1099 14.2607C71.1099 14.8864 70.4816 15.2747 69.3766 15.2747C68.1199 15.2316 66.9065 14.8648 65.8449 14.1745L65.5199 16.0945C66.6899 16.6771 67.9899 16.9791 69.3116 17.0007C71.8466 17.0007 73.2116 15.9004 73.2116 14.0666ZM64.4799 16.8065V7.35702H62.1832V13.7645C61.4249 14.4981 60.6232 14.9727 59.8215 14.9727C58.8899 14.9727 58.4999 14.4118 58.4999 13.5704V7.33544H56.2032V14.1529C56.2032 15.9004 57.1782 16.9575 59.0415 16.9575C60.3415 16.9575 61.4032 16.2887 62.3349 15.4473L62.6599 16.7633L64.4799 16.8065ZM55.1199 9.44971L54.5999 7.22757C53.1482 7.48646 52.2815 8.24156 51.6098 9.32027L51.1765 7.35702H49.4648V16.8065H51.6965V11.413C52.4549 10.2695 53.7332 9.536 55.1199 9.44971Z" fill="white"/>
<path class="svg-text" d="M50.8955 6.29973L50.3755 4.20703H39.1738V6.29973H43.3988V16.8063H45.7605V6.29973H50.8955Z" fill="white"/>
</g>
<defs>
<linearGradient id="paint0_linear_1872_1085" x1="18.3861" y1="22.0744" x2="18.3861" y2="-0.0543073" gradientUnits="userSpaceOnUse">
<stop offset="0.71" stop-color="#116BF2"/>
<stop offset="1" stop-color="#1E50E5"/>
</linearGradient>
<linearGradient id="paint1_linear_1872_1085" x1="18.2912" y1="22.0623" x2="18.2912" y2="-0.0482291" gradientUnits="userSpaceOnUse">
<stop offset="0.71" stop-color="#116BF2"/>
<stop offset="1" stop-color="#1E50E5"/>
</linearGradient>
<linearGradient id="paint2_linear_1872_1085" x1="7.2825" y1="0.893128" x2="27.0445" y2="26.4919" gradientUnits="userSpaceOnUse">
<stop offset="0.41" stop-color="#116BF2"/>
<stop offset="1" stop-color="#185DEC"/>
</linearGradient>
<linearGradient id="paint3_linear_1872_1085" x1="18.4652" y1="21.9155" x2="18.4652" y2="-0.228132" gradientUnits="userSpaceOnUse">
<stop offset="0.58" stop-color="#116BF2"/>
<stop offset="1" stop-color="#1E50E5"/>
</linearGradient>
<linearGradient id="paint4_linear_1872_1085" x1="24.7866" y1="-1.19935" x2="9.06267" y2="6.73042" gradientUnits="userSpaceOnUse">
<stop offset="0.03" stop-color="#59C5FF"/>
<stop offset="0.99" stop-color="#21B1FF"/>
</linearGradient>
<linearGradient id="paint5_linear_1872_1085" x1="9.57356" y1="3.13404" x2="25.2562" y2="11.0081" gradientUnits="userSpaceOnUse">
<stop offset="0.04" stop-color="#59C5FF"/>
<stop offset="0.99" stop-color="#21B1FF"/>
</linearGradient>
<linearGradient id="paint6_linear_1872_1085" x1="31.0579" y1="11.8685" x2="27.9083" y2="8.70532" gradientUnits="userSpaceOnUse">
<stop offset="0.04" stop-color="#57C4FF"/>
<stop offset="0.99" stop-color="#21B1FF"/>
</linearGradient>
<clipPath id="clip0_1872_1085">
<rect width="131" height="22" fill="white" transform="translate(0.5)"/>
</clipPath>
</defs>
</svg>
