<svg width="1263" height="390" viewBox="1130 0 1263 501" fill="none" xmlns="http://www.w3.org/2000/svg">
<path opacity="0.04" fill-rule="evenodd" clip-rule="evenodd" d="M1011.7 200.222C1011.7 256.125 1056.34 300.445 1110.18 300.445L1116.4 300.445C1170.24 300.445 1214.88 256.124 1214.88 200.222L1214.88 144.38C1214.88 65.1923 1278.49 -8.1638e-05 1358.17 -6.77058e-05L1575.5 -6.02242e-05L1575.5 40.0001L1358.17 40.0001C1301.02 40.0001 1254.88 86.843 1254.88 144.381L1254.88 200.222C1254.88 277.775 1192.77 340.445 1116.4 340.445L1110.18 340.445C1033.81 340.445 971.701 277.775 971.701 200.222L971.701 138.088C971.701 84.0258 928.351 40 874.632 40L10.5001 40L10.5001 60L874.632 60C917.086 60 951.701 94.8512 951.701 138.088L951.701 200.222C951.701 288.6 1022.55 360.445 1110.18 360.445L1116.4 360.445C1204.04 360.445 1274.88 288.601 1274.88 200.222L1274.88 144.381C1274.88 97.6683 1312.28 60.0001 1358.17 60.0001L1575.5 60.0001L1575.5 99.9999L1358.17 99.9999C1334.81 99.9999 1314.88 119.319 1314.88 144.38L1314.88 200.222C1314.88 310.251 1226.57 400.445 1116.4 400.445L1110.18 400.445C1000.02 400.445 911.7 310.251 911.7 200.222L911.7 138.088C911.7 116.502 894.557 99.9999 874.632 99.9998L6.64854e-05 99.9998L7.00159e-05 -0.000183105L874.632 -0.00015225C950.88 -0.000138919 1011.7 62.3749 1011.7 138.088L1011.7 200.222Z" fill="url(#paint0_linear_1902_3184)"/>
<defs>
<linearGradient id="paint0_linear_1902_3184" x1="1559.5" y1="184.032" x2="404.572" y2="184.032" gradientUnits="userSpaceOnUse">
<stop stop-color="#0048FF" stop-opacity="0"/>
<stop offset="0.32682" stop-color="#0048FF"/>
<stop offset="0.65" stop-color="#0048FF" stop-opacity="0"/>
</linearGradient>
</defs>
</svg>
