<svg width="102" height="22" viewBox="0 0 102 22" fill="none" xmlns="http://www.w3.org/2000/svg"><g clip-path="url(#clip0_1872_1061)"><mask id="a" style="mask-type:luminance" maskUnits="userSpaceOnUse" x="1" y="0" width="101" height="22"><path d="M101.322 0h-100v22h100V0z" fill="#fff"/></mask><g mask="url(#a)"><path d="M1.322 8.096h14.739V2.588L1.322 8.096z" fill="#FF9D28"/><path d="M16.06 2.588V22l6.97-22-6.97 2.588z" fill="#68C5ED"/><path d="M16.06 8.096h-5.568l5.569 13.903V8.096z" fill="#044D80"/><path d="M1.322 8.096l10.604 3.583-1.434-3.583h-9.17z" fill="#E54747"/><path class="svg-text" d="M35.101 16.89a2.98 2.98 0 01-.4.299c-.2.133-.434.232-.734.365-.3.133-.666.232-1.1.299-.433.1-.934.132-1.5.132-1.1 0-2.035-.165-2.835-.53a5.091 5.091 0 01-1.967-1.46c-.534-.631-.9-1.361-1.134-2.224a10.63 10.63 0 01-.367-2.787c0-1.029.134-1.958.4-2.82a6.903 6.903 0 011.168-2.257 5.092 5.092 0 011.967-1.46c.8-.365 1.7-.531 2.768-.531.533 0 1 .033 1.433.133.434.1.8.199 1.1.332.3.132.568.265.801.398.2.132.367.265.467.365.133.1.233.232.3.398.1.133.133.299.133.498 0 .265-.1.53-.3.796-.2.266-.433.531-.667.73-.166-.166-.333-.332-.533-.498-.2-.166-.434-.298-.667-.431-.233-.133-.534-.232-.834-.332-.3-.1-.667-.133-1.067-.133-.7 0-1.267.133-1.734.399-.466.265-.833.63-1.133 1.061-.267.432-.5.963-.6 1.527-.134.564-.167 1.161-.167 1.725 0 .63.066 1.228.166 1.792.134.564.334 1.095.634 1.527.3.431.667.796 1.167 1.061.467.266 1.067.399 1.8.399.367 0 .734-.034 1.034-.133.3-.1.6-.2.834-.332.233-.133.467-.265.633-.431.167-.133.334-.266.467-.399.067.1.167.2.267.332.1.133.2.266.3.432.1.132.167.298.234.431a.88.88 0 01.1.398c0 .166-.034.332-.1.432-.1.199-.2.331-.334.497zm10.404-1.56c0 1.063.166 1.826.466 2.324-.233.1-.466.166-.666.199s-.434.066-.667.066c-.5 0-.867-.1-1.1-.299-.267-.199-.4-.464-.467-.796-.3.299-.7.564-1.168.796-.5.2-1.067.332-1.8.332-.367 0-.734-.066-1.1-.166a2.83 2.83 0 01-1-.497c-.301-.233-.534-.531-.734-.93-.2-.398-.3-.862-.3-1.393 0-.697.166-1.228.5-1.66a3.716 3.716 0 011.233-1.028c.5-.232 1.034-.431 1.634-.498.567-.1 1.1-.166 1.6-.166.167 0 .334-.033.468-.033h.433v-.365c0-.53-.133-.896-.4-1.095-.267-.232-.734-.332-1.367-.332-.567 0-1.1.1-1.567.299-.467.2-.9.398-1.334.63-.2-.232-.334-.497-.467-.763-.1-.265-.167-.498-.167-.63 0-.2.1-.365.3-.531.2-.166.5-.332.867-.465.367-.132.8-.265 1.267-.332.467-.1.967-.132 1.5-.132.734 0 1.368.066 1.868.232.5.133.934.365 1.234.697.333.298.534.697.667 1.161.133.465.2.996.2 1.626v3.75h.067zm-2.601-2.322h-.3c-.1 0-.2 0-.3.033-.334.033-.667.067-1 .133-.334.066-.634.133-.868.299a1.646 1.646 0 00-.633.53c-.167.233-.234.498-.234.83 0 .365.1.697.334.962.2.266.567.399 1.1.399a2.507 2.507 0 001.334-.365c.167-.1.3-.233.4-.366.1-.132.167-.232.167-.364v-2.091zm7.636-3.982c.2-.265.566-.53 1-.763.467-.266 1.034-.398 1.734-.398.5 0 .967.1 1.434.265a2.71 2.71 0 011.2.83c.367.365.634.862.834 1.493.2.63.3 1.394.3 2.29 0 1.061-.134 1.924-.367 2.588-.233.697-.567 1.227-.934 1.626-.4.398-.8.663-1.3.83a4.134 4.134 0 01-1.4.232c-.4 0-.734-.034-1.034-.133-.3-.1-.534-.2-.734-.299-.2-.1-.367-.199-.467-.332-.1-.1-.166-.165-.2-.232V22H47.84V8.13c.066 0 .133-.033.233-.033.067 0 .167-.033.3-.033h.4c.434 0 .834.066 1.134.232.367.133.567.365.634.73zm3.668 3.717c0-.399-.034-.797-.1-1.129-.067-.365-.167-.663-.334-.896a1.561 1.561 0 00-.633-.597c-.267-.133-.567-.199-.968-.199-.566 0-.967.1-1.167.332a.923.923 0 00-.333.697v4.28c.1.1.3.232.567.398.267.133.6.233.967.233.7 0 1.2-.266 1.5-.797.334-.597.5-1.327.5-2.322zm5.001 3.484a2.48 2.48 0 01-.167-.863c-.033-.299-.033-.597-.033-.896V5.111c.1 0 .2-.034.3-.034.1 0 .2-.033.3-.033h.334c.2 0 .433.033.667.067.2.033.4.132.6.232.167.133.333.299.433.498.1.199.167.497.167.83v1.426h2.834v2.057H61.81v4.314c0 .93.4 1.394 1.167 1.394.2 0 .367-.034.534-.1.166-.066.333-.133.466-.199.134-.066.267-.166.367-.232.1-.067.167-.133.2-.166.2.299.367.564.467.763.1.232.167.431.167.597a.88.88 0 01-.2.531 1.788 1.788 0 01-.6.465 3.415 3.415 0 01-.934.332c-.367.1-.767.132-1.2.132-.834 0-1.501-.165-1.968-.497-.533-.299-.867-.73-1.067-1.261zm12.371-.266c.333 0 .633-.033.9-.1.267-.066.5-.165.7-.265.2-.1.367-.232.534-.365.133-.133.3-.232.4-.365.167.2.334.465.5.763.167.332.267.565.267.764 0 .298-.167.564-.5.796-.3.232-.7.398-1.2.564-.534.166-1.134.232-1.834.232a7.025 7.025 0 01-1.868-.232c-.6-.166-1.167-.431-1.634-.863-.466-.398-.867-.962-1.167-1.626-.3-.663-.433-1.526-.433-2.588 0-.863.133-1.593.4-2.19s.6-1.128 1.067-1.526a4.299 4.299 0 011.5-.896 5.103 5.103 0 011.701-.299c.767 0 1.4.133 1.934.365.534.232.967.564 1.3.962.334.399.567.863.734 1.361.133.498.234 1.062.234 1.626v.63c0 .133 0 .233-.034.365 0 .1-.033.2-.033.266h-6.002c.066.73.3 1.36.7 1.858.334.531.967.763 1.834.763zm.934-4.081c0-.63-.134-1.162-.367-1.593-.267-.398-.7-.597-1.367-.597-.567 0-1 .199-1.334.564-.334.398-.5.929-.5 1.593h3.568v.033zm7.302-2.82c.067-.133.2-.266.334-.399.133-.133.3-.265.5-.398s.4-.232.633-.299c.234-.066.5-.132.767-.132.167 0 .334 0 .534.033.166.033.366.066.5.166a.815.815 0 01.367.298.76.76 0 01.133.465c0 .298-.067.63-.234 1.028-.133.366-.3.697-.433.963a2.672 2.672 0 00-.7-.432c-.234-.1-.5-.165-.8-.165a1.66 1.66 0 00-1.067.364c-.3.233-.434.531-.434.863v6.537H77.15V8.13c.066 0 .133-.033.233-.033.067 0 .167-.033.3-.033h.4c.434 0 .8.1 1.134.265a.958.958 0 01.6.73zm7.87 0c.066-.133.2-.266.333-.399s.3-.265.5-.398.4-.232.633-.299c.234-.066.5-.132.767-.132.167 0 .334 0 .534.033.167.033.367.066.5.166a.815.815 0 01.367.298.76.76 0 01.133.465c0 .298-.066.63-.233 1.028-.133.366-.3.697-.434.963a2.673 2.673 0 00-.7-.432c-.233-.1-.5-.165-.8-.165a1.66 1.66 0 00-1.067.364c-.3.233-.434.531-.434.863v6.537h-2.767V8.13c.067 0 .133-.033.233-.033.067 0 .167-.033.3-.033h.4c.434 0 .8.1 1.134.265.3.133.5.398.6.73zm13.17 6.27c0 1.063.167 1.826.467 2.324-.233.1-.467.166-.667.199s-.433.066-.667.066c-.5 0-.867-.1-1.1-.299-.267-.199-.4-.464-.467-.796-.3.299-.7.564-1.167.796-.5.2-1.067.332-1.8.332-.367 0-.734-.066-1.1-.166a2.83 2.83 0 01-1.001-.497c-.3-.233-.534-.531-.734-.93-.2-.398-.3-.862-.3-1.393 0-.697.167-1.228.5-1.66a3.715 3.715 0 011.234-1.028c.5-.232 1.034-.431 1.634-.498.567-.1 1.1-.166 1.6-.166.167 0 .334-.033.467-.033h.434v-.365c0-.53-.134-.896-.4-1.095-.267-.232-.734-.332-1.334-.332-.567 0-1.1.1-1.567.299-.467.2-.9.398-1.334.63-.2-.232-.334-.497-.467-.763-.1-.265-.167-.498-.167-.63 0-.2.1-.365.3-.531.2-.166.5-.332.868-.465a6.39 6.39 0 011.267-.332c.466-.1.966-.132 1.5-.132.734 0 1.334.066 1.867.232.5.133.934.365 1.234.697.333.298.534.697.667 1.161.133.465.2.996.2 1.626v3.75h.033zm-2.6-2.322h-.3c-.1 0-.2 0-.3.033-.334.033-.668.067-1.001.133-.334.066-.634.133-.867.299a1.646 1.646 0 00-.633.53c-.167.233-.234.498-.234.83 0 .365.1.697.333.962.234.266.567.399 1.1.399a2.509 2.509 0 001.334-.365c.167-.1.3-.233.4-.366.1-.132.168-.232.168-.364v-2.091z" fill="#000"/></g></g><defs><clipPath id="clip0_1872_1061"><path fill="#fff" transform="translate(.5)" d="M0 0h101v22H0z"/></clipPath></defs></svg>