<svg width="59" height="22" viewBox="0 0 59 22" fill="none" xmlns="http://www.w3.org/2000/svg">
<g clip-path="url(#clip0_1872_1071)">
<mask id="mask0_1872_1071" style="mask-type:luminance" maskUnits="userSpaceOnUse" x="0" y="0" width="23" height="22">
<path d="M22.6777 0H0.677734V22H22.6777V0Z" fill="white"/>
</mask>
<g mask="url(#mask0_1872_1071)">
<path d="M16.1804 15.6743C17.0124 17.0787 17.8351 18.4671 18.6572 19.8541C15.0168 22.565 9.35295 22.8926 5.16012 19.7707C0.33508 16.1753 -0.457958 10.0403 2.12529 5.62412C5.0964 0.544562 10.6563 -0.578814 14.2361 0.244915C14.1393 0.449493 11.9953 4.77603 11.9953 4.77603C11.9953 4.77603 11.8258 4.78686 11.7299 4.78866C10.6718 4.83228 9.8837 5.07176 9.03901 5.49656C8.11227 5.96694 7.31808 6.65095 6.72585 7.48881C6.13362 8.32666 5.76139 9.29286 5.64169 10.303C5.5168 11.3273 5.66242 12.3658 6.06481 13.3202C6.40504 14.1271 6.8863 14.8437 7.5315 15.4487C8.52125 16.3777 9.69905 16.953 11.0643 17.1434C12.3572 17.3239 13.6005 17.1452 14.7657 16.5757C15.2027 16.3624 15.5745 16.1268 16.009 15.8037C16.0644 15.7688 16.1136 15.7246 16.1804 15.6743Z" fill="#FF492C"/>
<path d="M16.1885 3.35768C15.9773 3.15551 15.7815 2.96898 15.5866 2.78125C15.4703 2.66934 15.3584 2.55291 15.2393 2.4437C15.1966 2.40429 15.1465 2.35043 15.1465 2.35043C15.1465 2.35043 15.187 2.2668 15.2043 2.2325C15.4323 1.78754 15.7895 1.46232 16.2133 1.20359C16.6818 0.915314 17.2277 0.768636 17.782 0.7821C18.4912 0.795639 19.1506 0.967424 19.7071 1.43013C20.1178 1.7716 20.3285 2.20482 20.3656 2.72199C20.4274 3.59445 20.0563 4.26264 19.3192 4.72896C18.8862 5.00333 18.4192 5.21543 17.9509 5.46664C17.6926 5.60534 17.4718 5.72718 17.2194 5.97809C16.9973 6.2299 16.9865 6.46727 16.9865 6.46727L20.3414 6.46306V7.91647H15.1629C15.1629 7.91647 15.1629 7.81719 15.1629 7.77597C15.1431 7.06175 15.2288 6.38965 15.565 5.74102C15.8743 5.14594 16.3549 4.71031 16.9324 4.37486C17.3771 4.11643 17.8454 3.89651 18.2911 3.63928C18.5661 3.48073 18.7603 3.24817 18.7588 2.91092C18.7588 2.6215 18.5423 2.36427 18.233 2.28395C17.5036 2.09261 16.7613 2.39797 16.3753 3.0472C16.319 3.14197 16.2615 3.23614 16.1885 3.35768Z" fill="#FF492C"/>
<path d="M22.6779 14.1301L19.8506 9.38086H14.2557L11.4102 14.1791H17.0462L19.8274 18.9058L22.6779 14.1301Z" fill="#FF492C"/>
</g>
<path class="svg-text" d="M41.572 11.122V9.05197H47.044V14.146C45.802 15.442 43.894 16.216 42.04 16.216C38.458 16.216 35.416 13.282 35.416 9.80797C35.416 6.33397 38.458 3.41797 42.04 3.41797C43.894 3.41797 45.802 4.19197 47.044 5.48797L45.118 7.21597C44.38 6.36997 43.174 5.82997 42.04 5.82997C39.934 5.82997 38.152 7.66597 38.152 9.80797C38.152 11.968 39.934 13.804 42.04 13.804C42.886 13.804 43.75 13.516 44.452 13.012V11.122H41.572Z" fill="black"/>
<path class="svg-text" d="M48.6466 16V13.84L53.2006 10.312C54.6766 9.14197 55.1446 8.33197 55.1446 7.46797C55.1446 6.44197 54.2806 5.82997 53.2726 5.82997C52.0666 5.82997 51.1486 6.44197 50.2486 7.46797L48.5566 5.82997C49.7806 4.28197 51.3466 3.41797 53.3446 3.41797C55.9726 3.41797 57.8806 5.03797 57.8806 7.35997C57.8806 9.01597 57.1606 10.294 55.0006 11.86L52.7506 13.606H57.9886V16H48.6466Z" fill="black"/>
</g>
<defs>
<clipPath id="clip0_1872_1071">
<rect width="58" height="22" fill="white" transform="translate(0.5)"/>
</clipPath>
</defs>
</svg>
