<svg xmlns="http://www.w3.org/2000/svg" width="32" height="32" viewBox="0 0 32 32" fill="none"><g clip-path="url(#clip0_1865_1706)"><path d="M16 27C22.0751 27 27 22.0751 27 16C27 9.92487 22.0751 5 16 5C9.92487 5 5 9.92487 5 16C5 22.0751 9.92487 27 16 27Z" fill="#0048FF"></path><path fill-rule="evenodd" clip-rule="evenodd" d="M15.9998 6.99023C18.4877 6.99023 20.74 7.99866 22.3705 9.62906C24.0009 11.2595 25.0093 13.5118 25.0093 15.9998C25.0093 18.4877 24.0009 20.74 22.3705 22.3705C20.74 24.0009 18.4877 25.0093 15.9998 25.0093C13.5118 25.0093 11.2595 24.0009 9.62906 22.3705C7.99866 20.74 6.99023 18.4877 6.99023 15.9998C6.99023 13.5118 7.99866 11.2595 9.62906 9.62906C11.2595 7.99866 13.5118 6.99023 15.9998 6.99023Z" stroke="white" stroke-width="1.66667"></path><path fill-rule="evenodd" clip-rule="evenodd" d="M19.6304 14.0266C19.7148 14.0096 19.802 14.0119 19.8854 14.0333C19.9687 14.0546 20.0463 14.0943 20.1125 14.1497C20.1785 14.2048 20.2314 14.274 20.2677 14.3522C20.3039 14.4301 20.3225 14.5152 20.3225 14.6054C20.3197 14.7453 20.2689 14.8799 20.1788 14.9863C20.0881 15.0932 19.9633 15.1648 19.8282 15.1881C19.0049 15.3406 18.1734 15.4437 17.3388 15.4966C17.2863 15.5001 17.235 15.5145 17.188 15.5389C17.1408 15.5633 17.0989 15.5974 17.0649 15.639C17.0307 15.6808 17.0052 15.7293 16.9899 15.7816C16.9823 15.8078 16.9773 15.8347 16.9749 15.8589L16.9732 15.8926L16.9764 15.9449L17.047 16.5858C17.1351 17.3744 17.2971 18.1524 17.5301 18.9075L17.6208 19.1896L17.7188 19.4713L18.1744 20.7104C18.2008 20.7828 18.2128 20.8599 18.2095 20.937C18.2063 21.0142 18.1879 21.09 18.1555 21.16C18.1229 21.2301 18.0769 21.293 18.0199 21.345C17.9628 21.3972 17.896 21.4373 17.8308 21.4601C17.766 21.4859 17.6971 21.4994 17.6219 21.5C17.5099 21.4979 17.4009 21.4629 17.3083 21.3993C17.2565 21.3637 17.211 21.32 17.1704 21.2646L17.1314 21.2052L17.1038 21.1501L16.9875 20.8973C16.6729 20.2096 16.3856 19.5357 16.1234 18.8681L16.002 18.553L15.8453 18.9589C15.7593 19.1767 15.6711 19.3939 15.5808 19.6104L15.4439 19.9345L15.2327 20.4185L15.0151 20.8987L14.9111 21.1123C14.8575 21.2576 14.7489 21.3756 14.6091 21.4402C14.4686 21.5051 14.3083 21.5106 14.1638 21.4554C14.0199 21.4005 13.9036 21.29 13.8404 21.1485C13.7969 21.0511 13.7808 20.944 13.795 20.8315L13.8072 20.7634L13.8256 20.7029L14.2807 19.4653C14.5506 18.7206 14.749 17.9515 14.8732 17.1703L14.9163 16.8768L14.9529 16.5783L15.0259 15.9407C15.0324 15.8859 15.028 15.8304 15.0128 15.7776C14.9976 15.7249 14.9721 15.676 14.9378 15.6338C14.9037 15.5918 14.8616 15.5574 14.8143 15.5326C14.767 15.5079 14.7155 15.4933 14.6641 15.4897C13.8217 15.4363 12.9832 15.3317 12.1537 15.1766C12.0784 15.1627 12.0066 15.1339 11.9424 15.0918C11.8785 15.0498 11.8234 14.9954 11.7804 14.9318C11.7376 14.8684 11.7075 14.7971 11.692 14.7221C11.6765 14.6471 11.6757 14.5697 11.6892 14.4974C11.7022 14.4216 11.73 14.3491 11.771 14.2841C11.8121 14.2189 11.8657 14.1627 11.9287 14.1186C11.9918 14.0745 12.0631 14.0436 12.1384 14.0277C12.2137 14.0119 12.2914 14.0115 12.3646 14.0261C14.7671 14.4775 17.2305 14.4775 19.6304 14.0266ZM14.9686 10.9338C15.5374 10.3554 16.461 10.3554 17.0299 10.9338C17.5969 11.5102 17.5969 12.4436 17.0298 13.02C16.461 13.5984 15.5374 13.5984 14.9686 13.02C14.4016 12.4436 14.4016 11.5102 14.9686 10.9338Z" fill="white"></path></g><defs><clipPath id="clip0_1865_1706"><rect width="22" height="22" fill="white" transform="translate(5 5)"></rect></clipPath></defs></svg>