<svg xmlns="http://www.w3.org/2000/svg" width="32" height="32" viewBox="0 0 32 32" fill="none"><path d="M7.53206 17.2178L10.7959 10.3936L13.9113 17.2178M7.53206 17.2178C7.30336 18.2748 7.63594 20.3889 10.7959 20.3889C13.9558 20.3889 14.1895 18.2748 13.9113 17.2178M7.53206 17.2178H13.9113" stroke="#0048FF" stroke-linecap="round" stroke-linejoin="round"></path><path d="M18.0575 17.2178L21.3212 10.3936L24.4367 17.2178M18.0575 17.2178C17.8288 18.2748 18.1613 20.3889 21.3212 20.3889C24.4812 20.3889 24.7148 18.2748 24.4367 17.2178M18.0575 17.2178H24.4367" stroke="#0048FF" stroke-linecap="round" stroke-linejoin="round"></path><circle cx="15.9997" cy="10.3132" r="1.29852" stroke="#0048FF"></circle><path d="M14.525 10.4141H8.17969" stroke="#0048FF" stroke-linecap="round"></path><path d="M23.7789 10.4141H17.4336" stroke="#0048FF" stroke-linecap="round"></path><path d="M15.921 11.667V23.4855M15.921 23.4855H11.9141M15.921 23.4855H19.638" stroke="#0048FF" stroke-linecap="round" stroke-linejoin="round"></path></svg>