<svg width="103" height="24" viewBox="0 0 103 24" fill="none" xmlns="http://www.w3.org/2000/svg">
<g clip-path="url(#clip0_1872_1081)">
<path class="svg-text" d="M27.6224 5.01758H37.874V6.91785H33.8375V17.63H31.625V6.91785H27.6055L27.6224 5.01758ZM37.4348 8.49861H39.3264V10.2644H39.3602C39.4277 10.0121 39.546 9.77668 39.7149 9.54125C39.8837 9.30581 40.0864 9.0872 40.3397 8.90221C40.5762 8.70041 40.8464 8.54907 41.1504 8.43135C41.4375 8.31363 41.7415 8.24637 42.0455 8.24637C42.282 8.24637 42.4509 8.26318 42.5353 8.26318C42.6198 8.28 42.7211 8.29682 42.8055 8.29682V10.2307C42.6704 10.1971 42.5184 10.1803 42.3664 10.1635C42.2144 10.1466 42.0793 10.1298 41.9273 10.1298C41.5895 10.1298 41.2686 10.1971 40.9646 10.3316C40.6606 10.4662 40.4073 10.668 40.1709 10.9202C39.9513 11.1893 39.7655 11.5088 39.6304 11.8956C39.4953 12.2824 39.4277 12.7364 39.4277 13.2409V17.5796H37.4011L37.4348 8.49861ZM52.0945 17.63H50.1016V16.352H50.0678C49.8144 16.8228 49.4429 17.176 48.9531 17.4619C48.4633 17.7478 47.9567 17.8823 47.45 17.8823C46.2509 17.8823 45.3727 17.5964 44.8322 16.991C44.2918 16.4024 44.0215 15.4943 44.0215 14.3003V8.49861H46.0482V14.0986C46.0482 14.9057 46.2002 15.4775 46.5211 15.797C46.8251 16.1334 47.2642 16.3015 47.8215 16.3015C48.2438 16.3015 48.5984 16.2343 48.8856 16.0997C49.1727 15.9652 49.4091 15.797 49.578 15.5784C49.7638 15.3598 49.882 15.0907 49.9664 14.788C50.0509 14.4853 50.0847 14.149 50.0847 13.7958V8.49861H52.1113V17.63H52.0945ZM55.5398 14.7039C55.6074 15.2925 55.8269 15.6961 56.2154 15.9484C56.6038 16.1838 57.0767 16.3015 57.6171 16.3015C57.8029 16.3015 58.0225 16.2847 58.2589 16.2511C58.4954 16.2174 58.7318 16.167 58.9345 16.0829C59.154 15.9988 59.3229 15.8811 59.458 15.7129C59.5932 15.5448 59.6607 15.343 59.6438 15.0907C59.6269 14.8385 59.5425 14.6199 59.3567 14.4517C59.1709 14.2835 58.9514 14.1658 58.6812 14.0481C58.4109 13.9472 58.09 13.8631 57.7354 13.7958C57.3807 13.7286 57.026 13.6445 56.6545 13.5604C56.2829 13.4763 55.9114 13.3754 55.5567 13.2577C55.202 13.14 54.898 12.9887 54.6109 12.77C54.3407 12.5682 54.1042 12.316 53.9522 11.9965C53.7834 11.677 53.6989 11.307 53.6989 10.8361C53.6989 10.3316 53.8171 9.92803 54.0705 9.59169C54.3069 9.25536 54.6278 8.9863 54.9994 8.7845C55.3709 8.5827 55.7931 8.43135 56.2491 8.34727C56.7051 8.26318 57.1443 8.22955 57.5496 8.22955C58.0225 8.22955 58.4785 8.28 58.9007 8.3809C59.3229 8.4818 59.7283 8.63315 60.066 8.86858C60.4207 9.0872 60.7078 9.38989 60.9274 9.74304C61.1638 10.0962 61.2989 10.5334 61.3665 11.0379H59.2554C59.154 10.5502 58.9345 10.2307 58.5967 10.0626C58.242 9.8944 57.8536 9.81031 57.3976 9.81031C57.2625 9.81031 57.0767 9.82713 56.8909 9.84394C56.6883 9.87758 56.5194 9.91121 56.3336 9.97848C56.1647 10.0457 56.0127 10.1466 55.8945 10.2644C55.7763 10.3821 55.7087 10.5502 55.7087 10.752C55.7087 11.0043 55.7931 11.1893 55.962 11.3406C56.1309 11.492 56.3505 11.6097 56.6376 11.7274C56.9078 11.8283 57.2287 11.9124 57.5834 11.9797C57.938 12.0469 58.3096 12.131 58.6812 12.2151C59.0527 12.2992 59.4074 12.4001 59.762 12.5178C60.1167 12.6355 60.4376 12.7869 60.7078 13.0055C60.9781 13.2073 61.2145 13.4595 61.3834 13.7622C61.5523 14.0649 61.6367 14.4517 61.6367 14.8889C61.6367 15.4271 61.5185 15.8811 61.2652 16.2679C61.0118 16.6379 60.6909 16.9574 60.3025 17.1928C59.914 17.4282 59.458 17.5964 58.9852 17.7141C58.4954 17.815 58.0225 17.8823 57.5496 17.8823C56.9754 17.8823 56.4349 17.815 55.9451 17.6805C55.4554 17.546 55.0162 17.3442 54.6616 17.0919C54.3069 16.8228 54.0198 16.5033 53.8171 16.0997C53.6145 15.7129 53.4962 15.2421 53.4793 14.6871H55.5229V14.7039H55.5398ZM62.2109 8.49861H63.7478V5.74069H65.7745V8.4818H67.5985V9.97848H65.7745V14.8553C65.7745 15.0739 65.7914 15.2421 65.8083 15.4102C65.8252 15.5616 65.8758 15.6961 65.9265 15.797C65.9941 15.8979 66.0954 15.982 66.2136 16.0325C66.3487 16.0829 66.5176 16.1165 66.7541 16.1165C66.8892 16.1165 67.0412 16.1165 67.1763 16.0997C67.3114 16.0829 67.4634 16.0661 67.5985 16.0325V17.5964C67.379 17.63 67.1594 17.6469 66.9398 17.6637C66.7203 17.6973 66.5176 17.6973 66.2812 17.6973C65.7407 17.6973 65.3185 17.6469 64.9976 17.546C64.6767 17.4451 64.4234 17.2937 64.2376 17.1087C64.0518 16.9069 63.9336 16.6715 63.8661 16.3856C63.7985 16.0997 63.7647 15.7466 63.7478 15.3766V9.99529H62.2109V8.46498V8.49861ZM69.0172 8.49861H70.9256V9.74304H70.9594C71.2465 9.20491 71.635 8.83495 72.1416 8.59952C72.6483 8.36408 73.1888 8.24637 73.7968 8.24637C74.523 8.24637 75.1479 8.36408 75.6883 8.63315C76.2288 8.8854 76.6679 9.22173 77.0226 9.67578C77.3772 10.113 77.6474 10.6343 77.8163 11.2229C77.9852 11.8115 78.0866 12.4505 78.0866 13.1064C78.0866 13.7286 78.0021 14.3172 77.8501 14.8889C77.6812 15.4607 77.4448 15.982 77.1239 16.4192C76.803 16.8565 76.3977 17.2096 75.891 17.4787C75.3843 17.7478 74.8101 17.8823 74.1345 17.8823C73.8474 17.8823 73.5434 17.8487 73.2563 17.7982C72.9692 17.7478 72.6821 17.6637 72.4119 17.546C72.1417 17.4282 71.8883 17.2769 71.6688 17.0919C71.4323 16.9069 71.2465 16.6883 71.0945 16.4529H71.0608V21.0102H69.0341V8.49861H69.0172ZM76.0937 13.0727C76.0937 12.6691 76.043 12.2655 75.9248 11.8788C75.8234 11.492 75.6546 11.1556 75.435 10.8529C75.2154 10.5502 74.9452 10.3148 74.6412 10.1298C74.3203 9.94485 73.9488 9.86076 73.5434 9.86076C72.699 9.86076 72.0572 10.1466 71.6181 10.7352C71.1959 11.3238 70.9763 12.1142 70.9763 13.0896C70.9763 13.5604 71.027 13.9808 71.1452 14.3676C71.2634 14.7544 71.4154 15.0907 71.6519 15.3766C71.8714 15.6625 72.1417 15.8811 72.4625 16.0493C72.7834 16.2174 73.1381 16.3015 73.5603 16.3015C74.0332 16.3015 74.4048 16.2006 74.7257 16.0156C75.0466 15.8307 75.2999 15.5784 75.5194 15.2925C75.7221 14.9898 75.8741 14.6535 75.9586 14.2667C76.043 13.8631 76.0937 13.4763 76.0937 13.0727ZM79.6572 5.01758H81.6839V6.91785H79.6572V5.01758ZM79.6572 8.49861H81.6839V17.63H79.6572V8.49861ZM83.491 5.01758H85.5177V17.63H83.491V5.01758ZM91.6991 17.8823C90.9728 17.8823 90.3142 17.7646 89.7399 17.5123C89.1657 17.2601 88.6928 16.9406 88.2875 16.5201C87.8991 16.0997 87.595 15.5784 87.3924 14.9898C87.1897 14.4012 87.0715 13.7454 87.0715 13.0559C87.0715 12.3664 87.1728 11.7274 87.3924 11.1388C87.595 10.5502 87.8991 10.0457 88.2875 9.60851C88.6759 9.1881 89.1657 8.85177 89.7399 8.61633C90.3142 8.3809 90.9728 8.24637 91.6991 8.24637C92.4253 8.24637 93.084 8.36408 93.6582 8.61633C94.2324 8.85177 94.7053 9.1881 95.1106 9.60851C95.4991 10.0289 95.8031 10.5502 96.0057 11.1388C96.2084 11.7274 96.3266 12.3664 96.3266 13.0559C96.3266 13.7622 96.2253 14.4012 96.0057 14.9898C95.7862 15.5784 95.4991 16.0829 95.1106 16.5201C94.7222 16.9406 94.2324 17.2769 93.6582 17.5123C93.084 17.7478 92.4422 17.8823 91.6991 17.8823ZM91.6991 16.2847C92.1382 16.2847 92.5435 16.1838 92.8644 15.9988C93.2022 15.8138 93.4555 15.5616 93.6751 15.2589C93.8946 14.9562 94.0466 14.603 94.148 14.2331C94.2493 13.8463 94.3 13.4595 94.3 13.0559C94.3 12.6691 94.2493 12.2824 94.148 11.8956C94.0466 11.5088 93.8946 11.1725 93.6751 10.8698C93.4555 10.5671 93.1853 10.3316 92.8644 10.1466C92.5266 9.96166 92.1382 9.86076 91.6991 9.86076C91.2599 9.86076 90.8546 9.96166 90.5337 10.1466C90.1959 10.3316 89.9426 10.5839 89.7231 10.8698C89.5035 11.1725 89.3515 11.5088 89.2502 11.8956C89.1488 12.2824 89.0982 12.6691 89.0982 13.0559C89.0982 13.4595 89.1488 13.8463 89.2502 14.2331C89.3515 14.6199 89.5035 14.9562 89.7231 15.2589C89.9426 15.5616 90.2128 15.8138 90.5337 15.9988C90.8715 16.2006 91.2599 16.2847 91.6991 16.2847ZM96.9346 8.49861H98.4715V5.74069H100.498V8.4818H102.322V9.97848H100.498V14.8553C100.498 15.0739 100.515 15.2421 100.532 15.4102C100.549 15.5616 100.6 15.6961 100.65 15.797C100.718 15.8979 100.819 15.982 100.937 16.0325C101.072 16.0829 101.241 16.1165 101.478 16.1165C101.613 16.1165 101.765 16.1165 101.9 16.0997C102.035 16.0829 102.187 16.0661 102.322 16.0325V17.5964C102.103 17.63 101.883 17.6469 101.664 17.6637C101.444 17.6973 101.241 17.6973 101.005 17.6973C100.464 17.6973 100.042 17.6469 99.7213 17.546C99.4004 17.4451 99.1471 17.2937 98.9613 17.1087C98.7755 16.9069 98.6573 16.6715 98.5898 16.3856C98.5222 16.0997 98.4884 15.7466 98.4715 15.3766V9.99529H96.9346V8.46498V8.49861Z" fill="black"/>
<path d="M25.2577 9.2939H15.9857L13.1314 0.515625L10.2603 9.2939L0.988281 9.27708L8.48698 14.7089L5.61586 23.4871L13.1146 18.0554L20.6132 23.4871L17.759 14.7089L25.2577 9.2939Z" fill="#00B67A"/>
<path d="M18.4002 16.6933L17.7584 14.709L13.1309 18.0555L18.4002 16.6933Z" fill="#005128"/>
</g>
<defs>
<clipPath id="clip0_1872_1081">
<rect width="102" height="24" fill="white" transform="translate(0.5)"/>
</clipPath>
</defs>
</svg>
